M48
METRIC,TZ
T1C0.300
T2C0.800
%
G90
G05
T1
X110502Y-94800
X110502Y-102100
X110502Y-109400
X110502Y-116700
X110502Y-124000
X110502Y-94071
X110502Y-101371
X110502Y-108671
X110502Y-115971
X110502Y-123271
X111100Y-96200
X111100Y-96200
X111100Y-96200
X111100Y-97800
X111100Y-103500
X111100Y-103500
X111100Y-103500
X111100Y-105100
X111100Y-110800
X111100Y-110800
X111100Y-110800
X111100Y-112400
X111100Y-118100
X111100Y-118100
X111100Y-118100
X111100Y-119700
X111600Y-96200
X111600Y-97800
X111600Y-103500
X111600Y-105100
X111600Y-110800
X111600Y-112400
X111600Y-118100
X111600Y-119700
X112100Y-95498
X112100Y-96200
X112100Y-97800
X112100Y-102798
X112100Y-103500
X112100Y-105100
X112100Y-110098
X112100Y-110800
X112100Y-112400
X112100Y-117398
X112100Y-118100
X112100Y-119700
X112100Y-124698
X112600Y-96200
X112600Y-97800
X112600Y-103500
X112600Y-105100
X112600Y-110800
X112600Y-112400
X112600Y-118100
X112600Y-119700
X113100Y-96200
X113100Y-97800
X113100Y-103500
X113100Y-105100
X113100Y-110800
X113100Y-112400
X113100Y-118100
X113100Y-119700
X113698Y-94071
X113698Y-101371
X113698Y-108671
X113698Y-115971
X113698Y-123271
X113698Y-94800
X113698Y-102100
X113698Y-109400
X113698Y-116700
X113698Y-124000
X114400Y-91850
X114400Y-92350
X114400Y-92850
X114400Y-93350
X114400Y-93850
X114400Y-94350
X114400Y-94850
X114400Y-99150
X114400Y-99650
X114400Y-100150
X114400Y-100650
X114400Y-101150
X114400Y-101650
X114400Y-102150
X114400Y-106450
X114400Y-106950
X114400Y-107450
X114400Y-107950
X114400Y-108450
X114400Y-108950
X114400Y-109450
X114400Y-113750
X114400Y-114250
X114400Y-114750
X114400Y-115250
X114400Y-115750
X114400Y-116250
X114400Y-116750
X114400Y-121050
X114400Y-121550
X114400Y-122050
X114400Y-122550
X114400Y-123050
X114400Y-123550
X114400Y-124050
X116000Y-91850
X116000Y-92350
X116000Y-92850
X116000Y-93350
X116000Y-93850
X116000Y-94350
X116000Y-94850
X116000Y-99150
X116000Y-99650
X116000Y-100150
X116000Y-100650
X116000Y-101150
X116000Y-101650
X116000Y-102150
X116000Y-106450
X116000Y-106950
X116000Y-107450
X116000Y-107950
X116000Y-108450
X116000Y-108950
X116000Y-109450
X116000Y-113750
X116000Y-114250
X116000Y-114750
X116000Y-115250
X116000Y-115750
X116000Y-116250
X116000Y-116750
X116000Y-121050
X116000Y-121550
X116000Y-122050
X116000Y-122550
X116000Y-123050
X116000Y-123550
X116000Y-124050
X116702Y-94800
X116702Y-102100
X116702Y-109400
X116702Y-116700
X116702Y-124000
X116702Y-94071
X116702Y-101371
X116702Y-108671
X116702Y-115971
X116702Y-123271
X117300Y-96200
X117300Y-96200
X117300Y-96200
X117300Y-97800
X117300Y-103500
X117300Y-103500
X117300Y-103500
X117300Y-105100
X117300Y-110800
X117300Y-110800
X117300Y-110800
X117300Y-112400
X117300Y-118100
X117300Y-118100
X117300Y-118100
X117300Y-119700
X117800Y-96200
X117800Y-97800
X117800Y-103500
X117800Y-105100
X117800Y-110800
X117800Y-112400
X117800Y-118100
X117800Y-119700
X118300Y-95498
X118300Y-96200
X118300Y-97800
X118300Y-102798
X118300Y-103500
X118300Y-105100
X118300Y-110098
X118300Y-110800
X118300Y-112400
X118300Y-117398
X118300Y-118100
X118300Y-119700
X118300Y-124698
X118800Y-96200
X118800Y-97800
X118800Y-103500
X118800Y-105100
X118800Y-110800
X118800Y-112400
X118800Y-118100
X118800Y-119700
X119300Y-96200
X119300Y-97800
X119300Y-103500
X119300Y-105100
X119300Y-110800
X119300Y-112400
X119300Y-118100
X119300Y-119700
X119898Y-94071
X119898Y-101371
X119898Y-108671
X119898Y-115971
X119898Y-123271
X119898Y-94800
X119898Y-102100
X119898Y-109400
X119898Y-116700
X119898Y-124000
X120600Y-91850
X120600Y-92350
X120600Y-92850
X120600Y-93350
X120600Y-93850
X120600Y-94350
X120600Y-94850
X120600Y-99150
X120600Y-99650
X120600Y-100150
X120600Y-100650
X120600Y-101150
X120600Y-101650
X120600Y-102150
X120600Y-106450
X120600Y-106950
X120600Y-107450
X120600Y-107950
X120600Y-108450
X120600Y-108950
X120600Y-109450
X120600Y-113750
X120600Y-114250
X120600Y-114750
X120600Y-115250
X120600Y-115750
X120600Y-116250
X120600Y-116750
X120600Y-121050
X120600Y-121550
X120600Y-122050
X120600Y-122550
X120600Y-123050
X120600Y-123550
X120600Y-124050
X122200Y-91850
X122200Y-92350
X122200Y-92850
X122200Y-93350
X122200Y-93850
X122200Y-94350
X122200Y-94850
X122200Y-99150
X122200Y-99650
X122200Y-100150
X122200Y-100650
X122200Y-101150
X122200Y-101650
X122200Y-102150
X122200Y-106450
X122200Y-106950
X122200Y-107450
X122200Y-107950
X122200Y-108450
X122200Y-108950
X122200Y-109450
X122200Y-113750
X122200Y-114250
X122200Y-114750
X122200Y-115250
X122200Y-115750
X122200Y-116250
X122200Y-116750
X122200Y-121050
X122200Y-121550
X122200Y-122050
X122200Y-122550
X122200Y-123050
X122200Y-123550
X122200Y-124050
X122902Y-94800
X122902Y-102100
X122902Y-109400
X122902Y-116700
X122902Y-124000
X122902Y-94071
X122902Y-101371
X122902Y-108671
X122902Y-115971
X122902Y-123271
X123500Y-96200
X123500Y-96200
X123500Y-96200
X123500Y-97800
X123500Y-103500
X123500Y-103500
X123500Y-103500
X123500Y-105100
X123500Y-110800
X123500Y-110800
X123500Y-110800
X123500Y-112400
X123500Y-118100
X123500Y-118100
X123500Y-118100
X123500Y-119700
X124000Y-96200
X124000Y-97800
X124000Y-103500
X124000Y-105100
X124000Y-110800
X124000Y-112400
X124000Y-118100
X124000Y-119700
X124500Y-95498
X124500Y-96200
X124500Y-97800
X124500Y-102798
X124500Y-103500
X124500Y-105100
X124500Y-110098
X124500Y-110800
X124500Y-112400
X124500Y-117398
X124500Y-118100
X124500Y-119700
X124500Y-124698
X125000Y-96200
X125000Y-97800
X125000Y-103500
X125000Y-105100
X125000Y-110800
X125000Y-112400
X125000Y-118100
X125000Y-119700
X125500Y-96200
X125500Y-97800
X125500Y-103500
X125500Y-105100
X125500Y-110800
X125500Y-112400
X125500Y-118100
X125500Y-119700
X126098Y-94071
X126098Y-101371
X126098Y-108671
X126098Y-115971
X126098Y-123271
X126098Y-94800
X126098Y-102100
X126098Y-109400
X126098Y-116700
X126098Y-124000
X126800Y-91850
X126800Y-92350
X126800Y-92850
X126800Y-93350
X126800Y-93850
X126800Y-94350
X126800Y-94850
X126800Y-99150
X126800Y-99650
X126800Y-100150
X126800Y-100650
X126800Y-101150
X126800Y-101650
X126800Y-102150
X126800Y-106450
X126800Y-106950
X126800Y-107450
X126800Y-107950
X126800Y-108450
X126800Y-108950
X126800Y-109450
X126800Y-113750
X126800Y-114250
X126800Y-114750
X126800Y-115250
X126800Y-115750
X126800Y-116250
X126800Y-116750
X126800Y-121050
X126800Y-121550
X126800Y-122050
X126800Y-122550
X126800Y-123050
X126800Y-123550
X126800Y-124050
X128400Y-91850
X128400Y-92350
X128400Y-92850
X128400Y-93350
X128400Y-93850
X128400Y-94350
X128400Y-94850
X128400Y-99150
X128400Y-99650
X128400Y-100150
X128400Y-100650
X128400Y-101150
X128400Y-101650
X128400Y-102150
X128400Y-106450
X128400Y-106950
X128400Y-107450
X128400Y-107950
X128400Y-108450
X128400Y-108950
X128400Y-109450
X128400Y-113750
X128400Y-114250
X128400Y-114750
X128400Y-115250
X128400Y-115750
X128400Y-116250
X128400Y-116750
X128400Y-121050
X128400Y-121550
X128400Y-122050
X128400Y-122550
X128400Y-123050
X128400Y-123550
X128400Y-124050
X129102Y-94800
X129102Y-102100
X129102Y-109400
X129102Y-116700
X129102Y-124000
X129102Y-94071
X129102Y-101371
X129102Y-108671
X129102Y-115971
X129102Y-123271
X129700Y-96200
X129700Y-96200
X129700Y-96200
X129700Y-97800
X129700Y-103500
X129700Y-103500
X129700Y-103500
X129700Y-105100
X129700Y-110800
X129700Y-110800
X129700Y-110800
X129700Y-112400
X129700Y-118100
X129700Y-118100
X129700Y-118100
X129700Y-119700
X130200Y-96200
X130200Y-97800
X130200Y-103500
X130200Y-105100
X130200Y-110800
X130200Y-112400
X130200Y-118100
X130200Y-119700
X130700Y-95498
X130700Y-96200
X130700Y-97800
X130700Y-102798
X130700Y-103500
X130700Y-105100
X130700Y-110098
X130700Y-110800
X130700Y-112400
X130700Y-117398
X130700Y-118100
X130700Y-119700
X130700Y-124698
X131200Y-96200
X131200Y-97800
X131200Y-103500
X131200Y-105100
X131200Y-110800
X131200Y-112400
X131200Y-118100
X131200Y-119700
X131700Y-96200
X131700Y-97800
X131700Y-103500
X131700Y-105100
X131700Y-110800
X131700Y-112400
X131700Y-118100
X131700Y-119700
X132298Y-94071
X132298Y-101371
X132298Y-108671
X132298Y-115971
X132298Y-123271
X132298Y-94800
X132298Y-102100
X132298Y-109400
X132298Y-116700
X132298Y-124000
X133000Y-91850
X133000Y-92350
X133000Y-92850
X133000Y-93350
X133000Y-93850
X133000Y-94350
X133000Y-94850
X133000Y-99150
X133000Y-99650
X133000Y-100150
X133000Y-100650
X133000Y-101150
X133000Y-101650
X133000Y-102150
X133000Y-106450
X133000Y-106950
X133000Y-107450
X133000Y-107950
X133000Y-108450
X133000Y-108950
X133000Y-109450
X133000Y-113750
X133000Y-114250
X133000Y-114750
X133000Y-115250
X133000Y-115750
X133000Y-116250
X133000Y-116750
X133000Y-121050
X133000Y-121550
X133000Y-122050
X133000Y-122550
X133000Y-123050
X133000Y-123550
X133000Y-124050
X134600Y-91850
X134600Y-92350
X134600Y-92850
X134600Y-93350
X134600Y-93850
X134600Y-94350
X134600Y-94850
X134600Y-99150
X134600Y-99650
X134600Y-100150
X134600Y-100650
X134600Y-101150
X134600Y-101650
X134600Y-102150
X134600Y-106450
X134600Y-106950
X134600Y-107450
X134600Y-107950
X134600Y-108450
X134600Y-108950
X134600Y-109450
X134600Y-113750
X134600Y-114250
X134600Y-114750
X134600Y-115250
X134600Y-115750
X134600Y-116250
X134600Y-116750
X134600Y-121050
X134600Y-121550
X134600Y-122050
X134600Y-122550
X134600Y-123050
X134600Y-123550
X134600Y-124050
X135302Y-94800
X135302Y-102100
X135302Y-109400
X135302Y-116700
X135302Y-124000
X135302Y-94071
X135302Y-101371
X135302Y-108671
X135302Y-115971
X135302Y-123271
X135900Y-96200
X135900Y-96200
X135900Y-96200
X135900Y-97800
X135900Y-103500
X135900Y-103500
X135900Y-103500
X135900Y-105100
X135900Y-110800
X135900Y-110800
X135900Y-110800
X135900Y-112400
X135900Y-118100
X135900Y-118100
X135900Y-118100
X135900Y-119700
X136400Y-96200
X136400Y-97800
X136400Y-103500
X136400Y-105100
X136400Y-110800
X136400Y-112400
X136400Y-118100
X136400Y-119700
X136900Y-95498
X136900Y-96200
X136900Y-97800
X136900Y-102798
X136900Y-103500
X136900Y-105100
X136900Y-110098
X136900Y-110800
X136900Y-112400
X136900Y-117398
X136900Y-118100
X136900Y-119700
X136900Y-124698
X137400Y-96200
X137400Y-97800
X137400Y-103500
X137400Y-105100
X137400Y-110800
X137400Y-112400
X137400Y-118100
X137400Y-119700
X137900Y-96200
X137900Y-97800
X137900Y-103500
X137900Y-105100
X137900Y-110800
X137900Y-112400
X137900Y-118100
X137900Y-119700
X138498Y-94071
X138498Y-101371
X138498Y-108671
X138498Y-115971
X138498Y-123271
X138498Y-94800
X138498Y-102100
X138498Y-109400
X138498Y-116700
X138498Y-124000
T2
X124500Y-92620
X112100Y-107220
X118300Y-121820
X136900Y-92620
X130700Y-99920
X124500Y-114520
X130700Y-121820
X124500Y-107220
X112100Y-92620
X130700Y-92620
X118300Y-107220
X124500Y-121820
X136900Y-121820
X118300Y-114520
X136900Y-99920
X130700Y-114520
X136900Y-121820
X130700Y-107220
X124500Y-107220
X136900Y-114520
X130700Y-121820
X136900Y-92620
X118300Y-92620
X124500Y-114520
X112100Y-99920
X112100Y-107220
X130700Y-107220
X136900Y-107220
X112100Y-121820
X112100Y-99920
X130700Y-114520
X130700Y-92620
X124500Y-99920
X136900Y-107220
X118300Y-107220
X130700Y-99920
X118300Y-99920
X112100Y-114520
X136900Y-114520
X118300Y-92620
X118300Y-121820
X112100Y-114520
X136900Y-99920
X112100Y-121820
X118300Y-99920
X124500Y-99920
X118300Y-114520
X124500Y-121820
X112100Y-92620
X124500Y-92620
T0
M30
