G04 #@! TF.GenerationSoftware,KiCad,Pcbnew,5.0.2-bee76a0~70~ubuntu18.04.1*
G04 #@! TF.CreationDate,2018-12-05T20:22:07+01:00*
G04 #@! TF.ProjectId,noname,6e6f6e61-6d65-42e6-9b69-6361645f7063,rev?*
G04 #@! TF.SameCoordinates,Original*
G04 #@! TF.FileFunction,Profile,NP*
%FSLAX46Y46*%
G04 Gerber Fmt 4.6, Leading zero omitted, Abs format (unit mm)*
G04 Created by KiCad (PCBNEW 5.0.2-bee76a0~70~ubuntu18.04.1) date Wed 05 Dec 2018 20:22:07 CET*
%MOMM*%
%LPD*%
G01*
G04 APERTURE LIST*
%ADD10C,0.200000*%
G04 APERTURE END LIST*
D10*
X134800000Y-120000000D02*
G75*
G02X132800000Y-120000000I-1000000J0D01*
G01*
X128600000Y-120000000D02*
G75*
G02X126600000Y-120000000I-1000000J0D01*
G01*
X122400000Y-120000000D02*
G75*
G02X120400000Y-120000000I-1000000J0D01*
G01*
X116200000Y-120000000D02*
G75*
G02X114200000Y-120000000I-1000000J0D01*
G01*
X134800000Y-112700000D02*
G75*
G02X132800000Y-112700000I-1000000J0D01*
G01*
X128600000Y-112700000D02*
G75*
G02X126600000Y-112700000I-1000000J0D01*
G01*
X122400000Y-112700000D02*
G75*
G02X120400000Y-112700000I-1000000J0D01*
G01*
X116200000Y-112700000D02*
G75*
G02X114200000Y-112700000I-1000000J0D01*
G01*
X134800000Y-105400000D02*
G75*
G02X132800000Y-105400000I-1000000J0D01*
G01*
X128600000Y-105400000D02*
G75*
G02X126600000Y-105400000I-1000000J0D01*
G01*
X122400000Y-105400000D02*
G75*
G02X120400000Y-105400000I-1000000J0D01*
G01*
X116200000Y-105400000D02*
G75*
G02X114200000Y-105400000I-1000000J0D01*
G01*
X134800000Y-98100000D02*
G75*
G02X132800000Y-98100000I-1000000J0D01*
G01*
X128600000Y-98100000D02*
G75*
G02X126600000Y-98100000I-1000000J0D01*
G01*
X122400000Y-98100000D02*
G75*
G02X120400000Y-98100000I-1000000J0D01*
G01*
X116200000Y-98100000D02*
G75*
G02X114200000Y-98100000I-1000000J0D01*
G01*
X134800000Y-90800000D02*
G75*
G02X132800000Y-90800000I-1000000J0D01*
G01*
X128600000Y-90800000D02*
G75*
G02X126600000Y-90800000I-1000000J0D01*
G01*
X122400000Y-90800000D02*
G75*
G02X120400000Y-90800000I-1000000J0D01*
G01*
X134800000Y-117900000D02*
G75*
G02X134800000Y-119900000I0J-1000000D01*
G01*
X128600000Y-117900000D02*
G75*
G02X128600000Y-119900000I0J-1000000D01*
G01*
X122400000Y-117900000D02*
G75*
G02X122400000Y-119900000I0J-1000000D01*
G01*
X116200000Y-117900000D02*
G75*
G02X116200000Y-119900000I0J-1000000D01*
G01*
X110000000Y-117900000D02*
G75*
G02X110000000Y-119900000I0J-1000000D01*
G01*
X134800000Y-110600000D02*
G75*
G02X134800000Y-112600000I0J-1000000D01*
G01*
X128600000Y-110600000D02*
G75*
G02X128600000Y-112600000I0J-1000000D01*
G01*
X122400000Y-110600000D02*
G75*
G02X122400000Y-112600000I0J-1000000D01*
G01*
X116200000Y-110600000D02*
G75*
G02X116200000Y-112600000I0J-1000000D01*
G01*
X110000000Y-110600000D02*
G75*
G02X110000000Y-112600000I0J-1000000D01*
G01*
X134800000Y-103300000D02*
G75*
G02X134800000Y-105300000I0J-1000000D01*
G01*
X128600000Y-103300000D02*
G75*
G02X128600000Y-105300000I0J-1000000D01*
G01*
X122400000Y-103300000D02*
G75*
G02X122400000Y-105300000I0J-1000000D01*
G01*
X116200000Y-103300000D02*
G75*
G02X116200000Y-105300000I0J-1000000D01*
G01*
X110000000Y-103300000D02*
G75*
G02X110000000Y-105300000I0J-1000000D01*
G01*
X134800000Y-96000000D02*
G75*
G02X134800000Y-98000000I0J-1000000D01*
G01*
X128600000Y-96000000D02*
G75*
G02X128600000Y-98000000I0J-1000000D01*
G01*
X122400000Y-96000000D02*
G75*
G02X122400000Y-98000000I0J-1000000D01*
G01*
X116200000Y-96000000D02*
G75*
G02X116200000Y-98000000I0J-1000000D01*
G01*
X139000000Y-119900000D02*
X139000000Y-125200000D01*
X110000000Y-119900000D02*
X110000000Y-125200000D01*
X139000000Y-112600000D02*
X139000000Y-117900000D01*
X110000000Y-112600000D02*
X110000000Y-117900000D01*
X139000000Y-105300000D02*
X139000000Y-110600000D01*
X110000000Y-105300000D02*
X110000000Y-110600000D01*
X139000000Y-98000000D02*
X139000000Y-103300000D01*
X110000000Y-98000000D02*
X110000000Y-103300000D01*
X139000000Y-90700000D02*
X139000000Y-96000000D01*
X134800000Y-120000000D02*
X134800000Y-119900000D01*
X128600000Y-120000000D02*
X128600000Y-119900000D01*
X122400000Y-120000000D02*
X122400000Y-119900000D01*
X116200000Y-120000000D02*
X116200000Y-119900000D01*
X134800000Y-112700000D02*
X134800000Y-112600000D01*
X128600000Y-112700000D02*
X128600000Y-112600000D01*
X122400000Y-112700000D02*
X122400000Y-112600000D01*
X116200000Y-112700000D02*
X116200000Y-112600000D01*
X134800000Y-105400000D02*
X134800000Y-105300000D01*
X128600000Y-105400000D02*
X128600000Y-105300000D01*
X122400000Y-105400000D02*
X122400000Y-105300000D01*
X116200000Y-105400000D02*
X116200000Y-105300000D01*
X134800000Y-98100000D02*
X134800000Y-98000000D01*
X128600000Y-98100000D02*
X128600000Y-98000000D01*
X122400000Y-98100000D02*
X122400000Y-98000000D01*
X116200000Y-98100000D02*
X116200000Y-98000000D01*
X134800000Y-90800000D02*
X134800000Y-90700000D01*
X128600000Y-90800000D02*
X128600000Y-90700000D01*
X122400000Y-90800000D02*
X122400000Y-90700000D01*
X139000000Y-119900000D02*
G75*
G02X139000000Y-117900000I0J1000000D01*
G01*
X132800000Y-119900000D02*
G75*
G02X132800000Y-117900000I0J1000000D01*
G01*
X126600000Y-119900000D02*
G75*
G02X126600000Y-117900000I0J1000000D01*
G01*
X120400000Y-119900000D02*
G75*
G02X120400000Y-117900000I0J1000000D01*
G01*
X114200000Y-119900000D02*
G75*
G02X114200000Y-117900000I0J1000000D01*
G01*
X139000000Y-112600000D02*
G75*
G02X139000000Y-110600000I0J1000000D01*
G01*
X132800000Y-112600000D02*
G75*
G02X132800000Y-110600000I0J1000000D01*
G01*
X126600000Y-112600000D02*
G75*
G02X126600000Y-110600000I0J1000000D01*
G01*
X120400000Y-112600000D02*
G75*
G02X120400000Y-110600000I0J1000000D01*
G01*
X114200000Y-112600000D02*
G75*
G02X114200000Y-110600000I0J1000000D01*
G01*
X139000000Y-105300000D02*
G75*
G02X139000000Y-103300000I0J1000000D01*
G01*
X132800000Y-105300000D02*
G75*
G02X132800000Y-103300000I0J1000000D01*
G01*
X126600000Y-105300000D02*
G75*
G02X126600000Y-103300000I0J1000000D01*
G01*
X120400000Y-105300000D02*
G75*
G02X120400000Y-103300000I0J1000000D01*
G01*
X114200000Y-105300000D02*
G75*
G02X114200000Y-103300000I0J1000000D01*
G01*
X139000000Y-98000000D02*
G75*
G02X139000000Y-96000000I0J1000000D01*
G01*
X132800000Y-98000000D02*
G75*
G02X132800000Y-96000000I0J1000000D01*
G01*
X126600000Y-98000000D02*
G75*
G02X126600000Y-96000000I0J1000000D01*
G01*
X120400000Y-98000000D02*
G75*
G02X120400000Y-96000000I0J1000000D01*
G01*
X139000000Y-125200000D02*
X134800000Y-125200000D01*
X132800000Y-125200000D02*
X128600000Y-125200000D01*
X126600000Y-125200000D02*
X122400000Y-125200000D01*
X120400000Y-125200000D02*
X116200000Y-125200000D01*
X114200000Y-125200000D02*
X110000000Y-125200000D01*
X139000000Y-90700000D02*
X134800000Y-90700000D01*
X132800000Y-90700000D02*
X128600000Y-90700000D01*
X126600000Y-90700000D02*
X122400000Y-90700000D01*
X120400000Y-90700000D02*
X116200000Y-90700000D01*
X132800000Y-125100000D02*
G75*
G02X134800000Y-125100000I1000000J0D01*
G01*
X126600000Y-125100000D02*
G75*
G02X128600000Y-125100000I1000000J0D01*
G01*
X120400000Y-125100000D02*
G75*
G02X122400000Y-125100000I1000000J0D01*
G01*
X114200000Y-125100000D02*
G75*
G02X116200000Y-125100000I1000000J0D01*
G01*
X132800000Y-117800000D02*
G75*
G02X134800000Y-117800000I1000000J0D01*
G01*
X126600000Y-117800000D02*
G75*
G02X128600000Y-117800000I1000000J0D01*
G01*
X120400000Y-117800000D02*
G75*
G02X122400000Y-117800000I1000000J0D01*
G01*
X114200000Y-117800000D02*
G75*
G02X116200000Y-117800000I1000000J0D01*
G01*
X132800000Y-110500000D02*
G75*
G02X134800000Y-110500000I1000000J0D01*
G01*
X126600000Y-110500000D02*
G75*
G02X128600000Y-110500000I1000000J0D01*
G01*
X120400000Y-110500000D02*
G75*
G02X122400000Y-110500000I1000000J0D01*
G01*
X114200000Y-110500000D02*
G75*
G02X116200000Y-110500000I1000000J0D01*
G01*
X132800000Y-103200000D02*
G75*
G02X134800000Y-103200000I1000000J0D01*
G01*
X126600000Y-103200000D02*
G75*
G02X128600000Y-103200000I1000000J0D01*
G01*
X120400000Y-103200000D02*
G75*
G02X122400000Y-103200000I1000000J0D01*
G01*
X114200000Y-103200000D02*
G75*
G02X116200000Y-103200000I1000000J0D01*
G01*
X132800000Y-95900000D02*
G75*
G02X134800000Y-95900000I1000000J0D01*
G01*
X126600000Y-95900000D02*
G75*
G02X128600000Y-95900000I1000000J0D01*
G01*
X120400000Y-95900000D02*
G75*
G02X122400000Y-95900000I1000000J0D01*
G01*
X134800000Y-125100000D02*
X134800000Y-125200000D01*
X128600000Y-125100000D02*
X128600000Y-125200000D01*
X122400000Y-125100000D02*
X122400000Y-125200000D01*
X116200000Y-125100000D02*
X116200000Y-125200000D01*
X134800000Y-117800000D02*
X134800000Y-117900000D01*
X128600000Y-117800000D02*
X128600000Y-117900000D01*
X122400000Y-117800000D02*
X122400000Y-117900000D01*
X116200000Y-117800000D02*
X116200000Y-117900000D01*
X134800000Y-110500000D02*
X134800000Y-110600000D01*
X128600000Y-110500000D02*
X128600000Y-110600000D01*
X122400000Y-110500000D02*
X122400000Y-110600000D01*
X116200000Y-110500000D02*
X116200000Y-110600000D01*
X134800000Y-103200000D02*
X134800000Y-103300000D01*
X128600000Y-103200000D02*
X128600000Y-103300000D01*
X122400000Y-103200000D02*
X122400000Y-103300000D01*
X116200000Y-103200000D02*
X116200000Y-103300000D01*
X134800000Y-95900000D02*
X134800000Y-96000000D01*
X128600000Y-95900000D02*
X128600000Y-96000000D01*
X122400000Y-95900000D02*
X122400000Y-96000000D01*
X132800000Y-120000000D02*
X132800000Y-119900000D01*
X126600000Y-120000000D02*
X126600000Y-119900000D01*
X120400000Y-120000000D02*
X120400000Y-119900000D01*
X114200000Y-120000000D02*
X114200000Y-119900000D01*
X132800000Y-112700000D02*
X132800000Y-112600000D01*
X126600000Y-112700000D02*
X126600000Y-112600000D01*
X120400000Y-112700000D02*
X120400000Y-112600000D01*
X114200000Y-112700000D02*
X114200000Y-112600000D01*
X132800000Y-105400000D02*
X132800000Y-105300000D01*
X126600000Y-105400000D02*
X126600000Y-105300000D01*
X120400000Y-105400000D02*
X120400000Y-105300000D01*
X114200000Y-105400000D02*
X114200000Y-105300000D01*
X132800000Y-98100000D02*
X132800000Y-98000000D01*
X126600000Y-98100000D02*
X126600000Y-98000000D01*
X120400000Y-98100000D02*
X120400000Y-98000000D01*
X114200000Y-98100000D02*
X114200000Y-98000000D01*
X132800000Y-90800000D02*
X132800000Y-90700000D01*
X126600000Y-90800000D02*
X126600000Y-90700000D01*
X120400000Y-90800000D02*
X120400000Y-90700000D01*
X132800000Y-125100000D02*
X132800000Y-125200000D01*
X126600000Y-125100000D02*
X126600000Y-125200000D01*
X120400000Y-125100000D02*
X120400000Y-125200000D01*
X114200000Y-125100000D02*
X114200000Y-125200000D01*
X132800000Y-117800000D02*
X132800000Y-117900000D01*
X126600000Y-117800000D02*
X126600000Y-117900000D01*
X120400000Y-117800000D02*
X120400000Y-117900000D01*
X114200000Y-117800000D02*
X114200000Y-117900000D01*
X132800000Y-110500000D02*
X132800000Y-110600000D01*
X126600000Y-110500000D02*
X126600000Y-110600000D01*
X120400000Y-110500000D02*
X120400000Y-110600000D01*
X114200000Y-110500000D02*
X114200000Y-110600000D01*
X132800000Y-103200000D02*
X132800000Y-103300000D01*
X126600000Y-103200000D02*
X126600000Y-103300000D01*
X120400000Y-103200000D02*
X120400000Y-103300000D01*
X114200000Y-103200000D02*
X114200000Y-103300000D01*
X132800000Y-95900000D02*
X132800000Y-96000000D01*
X126600000Y-95900000D02*
X126600000Y-96000000D01*
X120400000Y-95900000D02*
X120400000Y-96000000D01*
X116200000Y-95900000D02*
X116200000Y-96000000D01*
X116200000Y-90800000D02*
X116200000Y-90700000D01*
X114200000Y-90800000D02*
X114200000Y-90700000D01*
X114200000Y-95900000D02*
X114200000Y-96000000D01*
X114200000Y-95900000D02*
G75*
G02X116200000Y-95900000I1000000J0D01*
G01*
X116200000Y-90800000D02*
G75*
G02X114200000Y-90800000I-1000000J0D01*
G01*
X114200000Y-98000000D02*
G75*
G02X114200000Y-96000000I0J1000000D01*
G01*
X110000000Y-96000000D02*
G75*
G02X110000000Y-98000000I0J-1000000D01*
G01*
X110000000Y-90700000D02*
X110000000Y-96000000D01*
X114200000Y-90700000D02*
X110000000Y-90700000D01*
M02*
