G04 #@! TF.GenerationSoftware,KiCad,Pcbnew,5.0.2-bee76a0~70~ubuntu18.04.1*
G04 #@! TF.CreationDate,2018-12-05T20:22:07+01:00*
G04 #@! TF.ProjectId,noname,6e6f6e61-6d65-42e6-9b69-6361645f7063,rev?*
G04 #@! TF.SameCoordinates,Original*
G04 #@! TF.FileFunction,Copper,L2,Bot*
G04 #@! TF.FilePolarity,Positive*
%FSLAX46Y46*%
G04 Gerber Fmt 4.6, Leading zero omitted, Abs format (unit mm)*
G04 Created by KiCad (PCBNEW 5.0.2-bee76a0~70~ubuntu18.04.1) date Wed 05 Dec 2018 20:22:07 CET*
%MOMM*%
%LPD*%
G01*
G04 APERTURE LIST*
G04 #@! TA.AperFunction,SMDPad,CuDef*
%ADD10R,0.600000X0.400000*%
G04 #@! TD*
G04 #@! TA.AperFunction,ViaPad*
%ADD11C,1.700000*%
G04 #@! TD*
G04 #@! TA.AperFunction,SMDPad,CuDef*
%ADD12C,0.350000*%
G04 #@! TD*
G04 #@! TA.AperFunction,Conductor*
%ADD13C,0.100000*%
G04 #@! TD*
G04 #@! TA.AperFunction,SMDPad,CuDef*
%ADD14R,0.350000X2.000000*%
G04 #@! TD*
G04 #@! TA.AperFunction,ViaPad*
%ADD15C,0.500000*%
G04 #@! TD*
G04 #@! TA.AperFunction,Conductor*
%ADD16C,0.152400*%
G04 #@! TD*
G04 APERTURE END LIST*
D10*
G04 #@! TO.P,U1,1*
G04 #@! TO.N,Net-(U1-Pad1)*
X137350000Y-123870000D03*
G04 #@! TO.P,U1,4*
G04 #@! TO.N,Net-(U1-Pad4)*
X136450000Y-123870000D03*
G04 #@! TO.P,U1,2*
G04 #@! TO.N,Net-(U1-Pad2)*
X137350000Y-123170000D03*
G04 #@! TO.P,U1,3*
G04 #@! TO.N,Net-(U1-Pad3)*
X136450000Y-123170000D03*
D11*
G04 #@! TD*
G04 #@! TO.N,GND*
G04 #@! TO.C,U1*
X136900000Y-121820000D03*
D12*
G04 #@! TO.P,U1,5*
G04 #@! TO.N,GND*
X136725000Y-124545000D03*
D13*
G04 #@! TD*
G04 #@! TO.N,GND*
G04 #@! TO.C,U1*
G36*
X138300000Y-124370000D02*
X138300000Y-124420000D01*
X138000000Y-124720000D01*
X135500000Y-124720000D01*
X135500000Y-124370000D01*
X138300000Y-124370000D01*
X138300000Y-124370000D01*
G37*
D14*
G04 #@! TO.P,U1,5*
G04 #@! TO.N,GND*
X138125000Y-121920000D03*
X135675000Y-121920000D03*
G04 #@! TD*
D10*
G04 #@! TO.P,U1,1*
G04 #@! TO.N,Net-(U1-Pad1)*
X131150000Y-123870000D03*
G04 #@! TO.P,U1,4*
G04 #@! TO.N,Net-(U1-Pad4)*
X130250000Y-123870000D03*
G04 #@! TO.P,U1,2*
G04 #@! TO.N,Net-(U1-Pad2)*
X131150000Y-123170000D03*
G04 #@! TO.P,U1,3*
G04 #@! TO.N,Net-(U1-Pad3)*
X130250000Y-123170000D03*
D11*
G04 #@! TD*
G04 #@! TO.N,GND*
G04 #@! TO.C,U1*
X130700000Y-121820000D03*
D12*
G04 #@! TO.P,U1,5*
G04 #@! TO.N,GND*
X130525000Y-124545000D03*
D13*
G04 #@! TD*
G04 #@! TO.N,GND*
G04 #@! TO.C,U1*
G36*
X132100000Y-124370000D02*
X132100000Y-124420000D01*
X131800000Y-124720000D01*
X129300000Y-124720000D01*
X129300000Y-124370000D01*
X132100000Y-124370000D01*
X132100000Y-124370000D01*
G37*
D14*
G04 #@! TO.P,U1,5*
G04 #@! TO.N,GND*
X131925000Y-121920000D03*
X129475000Y-121920000D03*
G04 #@! TD*
D10*
G04 #@! TO.P,U1,1*
G04 #@! TO.N,Net-(U1-Pad1)*
X124950000Y-123870000D03*
G04 #@! TO.P,U1,4*
G04 #@! TO.N,Net-(U1-Pad4)*
X124050000Y-123870000D03*
G04 #@! TO.P,U1,2*
G04 #@! TO.N,Net-(U1-Pad2)*
X124950000Y-123170000D03*
G04 #@! TO.P,U1,3*
G04 #@! TO.N,Net-(U1-Pad3)*
X124050000Y-123170000D03*
D11*
G04 #@! TD*
G04 #@! TO.N,GND*
G04 #@! TO.C,U1*
X124500000Y-121820000D03*
D12*
G04 #@! TO.P,U1,5*
G04 #@! TO.N,GND*
X124325000Y-124545000D03*
D13*
G04 #@! TD*
G04 #@! TO.N,GND*
G04 #@! TO.C,U1*
G36*
X125900000Y-124370000D02*
X125900000Y-124420000D01*
X125600000Y-124720000D01*
X123100000Y-124720000D01*
X123100000Y-124370000D01*
X125900000Y-124370000D01*
X125900000Y-124370000D01*
G37*
D14*
G04 #@! TO.P,U1,5*
G04 #@! TO.N,GND*
X125725000Y-121920000D03*
X123275000Y-121920000D03*
G04 #@! TD*
D10*
G04 #@! TO.P,U1,1*
G04 #@! TO.N,Net-(U1-Pad1)*
X118750000Y-123870000D03*
G04 #@! TO.P,U1,4*
G04 #@! TO.N,Net-(U1-Pad4)*
X117850000Y-123870000D03*
G04 #@! TO.P,U1,2*
G04 #@! TO.N,Net-(U1-Pad2)*
X118750000Y-123170000D03*
G04 #@! TO.P,U1,3*
G04 #@! TO.N,Net-(U1-Pad3)*
X117850000Y-123170000D03*
D11*
G04 #@! TD*
G04 #@! TO.N,GND*
G04 #@! TO.C,U1*
X118300000Y-121820000D03*
D12*
G04 #@! TO.P,U1,5*
G04 #@! TO.N,GND*
X118125000Y-124545000D03*
D13*
G04 #@! TD*
G04 #@! TO.N,GND*
G04 #@! TO.C,U1*
G36*
X119700000Y-124370000D02*
X119700000Y-124420000D01*
X119400000Y-124720000D01*
X116900000Y-124720000D01*
X116900000Y-124370000D01*
X119700000Y-124370000D01*
X119700000Y-124370000D01*
G37*
D14*
G04 #@! TO.P,U1,5*
G04 #@! TO.N,GND*
X119525000Y-121920000D03*
X117075000Y-121920000D03*
G04 #@! TD*
D10*
G04 #@! TO.P,U1,1*
G04 #@! TO.N,Net-(U1-Pad1)*
X112550000Y-123870000D03*
G04 #@! TO.P,U1,4*
G04 #@! TO.N,Net-(U1-Pad4)*
X111650000Y-123870000D03*
G04 #@! TO.P,U1,2*
G04 #@! TO.N,Net-(U1-Pad2)*
X112550000Y-123170000D03*
G04 #@! TO.P,U1,3*
G04 #@! TO.N,Net-(U1-Pad3)*
X111650000Y-123170000D03*
D11*
G04 #@! TD*
G04 #@! TO.N,GND*
G04 #@! TO.C,U1*
X112100000Y-121820000D03*
D12*
G04 #@! TO.P,U1,5*
G04 #@! TO.N,GND*
X111925000Y-124545000D03*
D13*
G04 #@! TD*
G04 #@! TO.N,GND*
G04 #@! TO.C,U1*
G36*
X113500000Y-124370000D02*
X113500000Y-124420000D01*
X113200000Y-124720000D01*
X110700000Y-124720000D01*
X110700000Y-124370000D01*
X113500000Y-124370000D01*
X113500000Y-124370000D01*
G37*
D14*
G04 #@! TO.P,U1,5*
G04 #@! TO.N,GND*
X113325000Y-121920000D03*
X110875000Y-121920000D03*
G04 #@! TD*
D10*
G04 #@! TO.P,U1,1*
G04 #@! TO.N,Net-(U1-Pad1)*
X137350000Y-116570000D03*
G04 #@! TO.P,U1,4*
G04 #@! TO.N,Net-(U1-Pad4)*
X136450000Y-116570000D03*
G04 #@! TO.P,U1,2*
G04 #@! TO.N,Net-(U1-Pad2)*
X137350000Y-115870000D03*
G04 #@! TO.P,U1,3*
G04 #@! TO.N,Net-(U1-Pad3)*
X136450000Y-115870000D03*
D11*
G04 #@! TD*
G04 #@! TO.N,GND*
G04 #@! TO.C,U1*
X136900000Y-114520000D03*
D12*
G04 #@! TO.P,U1,5*
G04 #@! TO.N,GND*
X136725000Y-117245000D03*
D13*
G04 #@! TD*
G04 #@! TO.N,GND*
G04 #@! TO.C,U1*
G36*
X138300000Y-117070000D02*
X138300000Y-117120000D01*
X138000000Y-117420000D01*
X135500000Y-117420000D01*
X135500000Y-117070000D01*
X138300000Y-117070000D01*
X138300000Y-117070000D01*
G37*
D14*
G04 #@! TO.P,U1,5*
G04 #@! TO.N,GND*
X138125000Y-114620000D03*
X135675000Y-114620000D03*
G04 #@! TD*
D10*
G04 #@! TO.P,U1,1*
G04 #@! TO.N,Net-(U1-Pad1)*
X131150000Y-116570000D03*
G04 #@! TO.P,U1,4*
G04 #@! TO.N,Net-(U1-Pad4)*
X130250000Y-116570000D03*
G04 #@! TO.P,U1,2*
G04 #@! TO.N,Net-(U1-Pad2)*
X131150000Y-115870000D03*
G04 #@! TO.P,U1,3*
G04 #@! TO.N,Net-(U1-Pad3)*
X130250000Y-115870000D03*
D11*
G04 #@! TD*
G04 #@! TO.N,GND*
G04 #@! TO.C,U1*
X130700000Y-114520000D03*
D12*
G04 #@! TO.P,U1,5*
G04 #@! TO.N,GND*
X130525000Y-117245000D03*
D13*
G04 #@! TD*
G04 #@! TO.N,GND*
G04 #@! TO.C,U1*
G36*
X132100000Y-117070000D02*
X132100000Y-117120000D01*
X131800000Y-117420000D01*
X129300000Y-117420000D01*
X129300000Y-117070000D01*
X132100000Y-117070000D01*
X132100000Y-117070000D01*
G37*
D14*
G04 #@! TO.P,U1,5*
G04 #@! TO.N,GND*
X131925000Y-114620000D03*
X129475000Y-114620000D03*
G04 #@! TD*
D10*
G04 #@! TO.P,U1,1*
G04 #@! TO.N,Net-(U1-Pad1)*
X124950000Y-116570000D03*
G04 #@! TO.P,U1,4*
G04 #@! TO.N,Net-(U1-Pad4)*
X124050000Y-116570000D03*
G04 #@! TO.P,U1,2*
G04 #@! TO.N,Net-(U1-Pad2)*
X124950000Y-115870000D03*
G04 #@! TO.P,U1,3*
G04 #@! TO.N,Net-(U1-Pad3)*
X124050000Y-115870000D03*
D11*
G04 #@! TD*
G04 #@! TO.N,GND*
G04 #@! TO.C,U1*
X124500000Y-114520000D03*
D12*
G04 #@! TO.P,U1,5*
G04 #@! TO.N,GND*
X124325000Y-117245000D03*
D13*
G04 #@! TD*
G04 #@! TO.N,GND*
G04 #@! TO.C,U1*
G36*
X125900000Y-117070000D02*
X125900000Y-117120000D01*
X125600000Y-117420000D01*
X123100000Y-117420000D01*
X123100000Y-117070000D01*
X125900000Y-117070000D01*
X125900000Y-117070000D01*
G37*
D14*
G04 #@! TO.P,U1,5*
G04 #@! TO.N,GND*
X125725000Y-114620000D03*
X123275000Y-114620000D03*
G04 #@! TD*
D10*
G04 #@! TO.P,U1,1*
G04 #@! TO.N,Net-(U1-Pad1)*
X118750000Y-116570000D03*
G04 #@! TO.P,U1,4*
G04 #@! TO.N,Net-(U1-Pad4)*
X117850000Y-116570000D03*
G04 #@! TO.P,U1,2*
G04 #@! TO.N,Net-(U1-Pad2)*
X118750000Y-115870000D03*
G04 #@! TO.P,U1,3*
G04 #@! TO.N,Net-(U1-Pad3)*
X117850000Y-115870000D03*
D11*
G04 #@! TD*
G04 #@! TO.N,GND*
G04 #@! TO.C,U1*
X118300000Y-114520000D03*
D12*
G04 #@! TO.P,U1,5*
G04 #@! TO.N,GND*
X118125000Y-117245000D03*
D13*
G04 #@! TD*
G04 #@! TO.N,GND*
G04 #@! TO.C,U1*
G36*
X119700000Y-117070000D02*
X119700000Y-117120000D01*
X119400000Y-117420000D01*
X116900000Y-117420000D01*
X116900000Y-117070000D01*
X119700000Y-117070000D01*
X119700000Y-117070000D01*
G37*
D14*
G04 #@! TO.P,U1,5*
G04 #@! TO.N,GND*
X119525000Y-114620000D03*
X117075000Y-114620000D03*
G04 #@! TD*
D10*
G04 #@! TO.P,U1,1*
G04 #@! TO.N,Net-(U1-Pad1)*
X112550000Y-116570000D03*
G04 #@! TO.P,U1,4*
G04 #@! TO.N,Net-(U1-Pad4)*
X111650000Y-116570000D03*
G04 #@! TO.P,U1,2*
G04 #@! TO.N,Net-(U1-Pad2)*
X112550000Y-115870000D03*
G04 #@! TO.P,U1,3*
G04 #@! TO.N,Net-(U1-Pad3)*
X111650000Y-115870000D03*
D11*
G04 #@! TD*
G04 #@! TO.N,GND*
G04 #@! TO.C,U1*
X112100000Y-114520000D03*
D12*
G04 #@! TO.P,U1,5*
G04 #@! TO.N,GND*
X111925000Y-117245000D03*
D13*
G04 #@! TD*
G04 #@! TO.N,GND*
G04 #@! TO.C,U1*
G36*
X113500000Y-117070000D02*
X113500000Y-117120000D01*
X113200000Y-117420000D01*
X110700000Y-117420000D01*
X110700000Y-117070000D01*
X113500000Y-117070000D01*
X113500000Y-117070000D01*
G37*
D14*
G04 #@! TO.P,U1,5*
G04 #@! TO.N,GND*
X113325000Y-114620000D03*
X110875000Y-114620000D03*
G04 #@! TD*
D10*
G04 #@! TO.P,U1,1*
G04 #@! TO.N,Net-(U1-Pad1)*
X137350000Y-109270000D03*
G04 #@! TO.P,U1,4*
G04 #@! TO.N,Net-(U1-Pad4)*
X136450000Y-109270000D03*
G04 #@! TO.P,U1,2*
G04 #@! TO.N,Net-(U1-Pad2)*
X137350000Y-108570000D03*
G04 #@! TO.P,U1,3*
G04 #@! TO.N,Net-(U1-Pad3)*
X136450000Y-108570000D03*
D11*
G04 #@! TD*
G04 #@! TO.N,GND*
G04 #@! TO.C,U1*
X136900000Y-107220000D03*
D12*
G04 #@! TO.P,U1,5*
G04 #@! TO.N,GND*
X136725000Y-109945000D03*
D13*
G04 #@! TD*
G04 #@! TO.N,GND*
G04 #@! TO.C,U1*
G36*
X138300000Y-109770000D02*
X138300000Y-109820000D01*
X138000000Y-110120000D01*
X135500000Y-110120000D01*
X135500000Y-109770000D01*
X138300000Y-109770000D01*
X138300000Y-109770000D01*
G37*
D14*
G04 #@! TO.P,U1,5*
G04 #@! TO.N,GND*
X138125000Y-107320000D03*
X135675000Y-107320000D03*
G04 #@! TD*
D10*
G04 #@! TO.P,U1,1*
G04 #@! TO.N,Net-(U1-Pad1)*
X131150000Y-109270000D03*
G04 #@! TO.P,U1,4*
G04 #@! TO.N,Net-(U1-Pad4)*
X130250000Y-109270000D03*
G04 #@! TO.P,U1,2*
G04 #@! TO.N,Net-(U1-Pad2)*
X131150000Y-108570000D03*
G04 #@! TO.P,U1,3*
G04 #@! TO.N,Net-(U1-Pad3)*
X130250000Y-108570000D03*
D11*
G04 #@! TD*
G04 #@! TO.N,GND*
G04 #@! TO.C,U1*
X130700000Y-107220000D03*
D12*
G04 #@! TO.P,U1,5*
G04 #@! TO.N,GND*
X130525000Y-109945000D03*
D13*
G04 #@! TD*
G04 #@! TO.N,GND*
G04 #@! TO.C,U1*
G36*
X132100000Y-109770000D02*
X132100000Y-109820000D01*
X131800000Y-110120000D01*
X129300000Y-110120000D01*
X129300000Y-109770000D01*
X132100000Y-109770000D01*
X132100000Y-109770000D01*
G37*
D14*
G04 #@! TO.P,U1,5*
G04 #@! TO.N,GND*
X131925000Y-107320000D03*
X129475000Y-107320000D03*
G04 #@! TD*
D10*
G04 #@! TO.P,U1,1*
G04 #@! TO.N,Net-(U1-Pad1)*
X124950000Y-109270000D03*
G04 #@! TO.P,U1,4*
G04 #@! TO.N,Net-(U1-Pad4)*
X124050000Y-109270000D03*
G04 #@! TO.P,U1,2*
G04 #@! TO.N,Net-(U1-Pad2)*
X124950000Y-108570000D03*
G04 #@! TO.P,U1,3*
G04 #@! TO.N,Net-(U1-Pad3)*
X124050000Y-108570000D03*
D11*
G04 #@! TD*
G04 #@! TO.N,GND*
G04 #@! TO.C,U1*
X124500000Y-107220000D03*
D12*
G04 #@! TO.P,U1,5*
G04 #@! TO.N,GND*
X124325000Y-109945000D03*
D13*
G04 #@! TD*
G04 #@! TO.N,GND*
G04 #@! TO.C,U1*
G36*
X125900000Y-109770000D02*
X125900000Y-109820000D01*
X125600000Y-110120000D01*
X123100000Y-110120000D01*
X123100000Y-109770000D01*
X125900000Y-109770000D01*
X125900000Y-109770000D01*
G37*
D14*
G04 #@! TO.P,U1,5*
G04 #@! TO.N,GND*
X125725000Y-107320000D03*
X123275000Y-107320000D03*
G04 #@! TD*
D10*
G04 #@! TO.P,U1,1*
G04 #@! TO.N,Net-(U1-Pad1)*
X118750000Y-109270000D03*
G04 #@! TO.P,U1,4*
G04 #@! TO.N,Net-(U1-Pad4)*
X117850000Y-109270000D03*
G04 #@! TO.P,U1,2*
G04 #@! TO.N,Net-(U1-Pad2)*
X118750000Y-108570000D03*
G04 #@! TO.P,U1,3*
G04 #@! TO.N,Net-(U1-Pad3)*
X117850000Y-108570000D03*
D11*
G04 #@! TD*
G04 #@! TO.N,GND*
G04 #@! TO.C,U1*
X118300000Y-107220000D03*
D12*
G04 #@! TO.P,U1,5*
G04 #@! TO.N,GND*
X118125000Y-109945000D03*
D13*
G04 #@! TD*
G04 #@! TO.N,GND*
G04 #@! TO.C,U1*
G36*
X119700000Y-109770000D02*
X119700000Y-109820000D01*
X119400000Y-110120000D01*
X116900000Y-110120000D01*
X116900000Y-109770000D01*
X119700000Y-109770000D01*
X119700000Y-109770000D01*
G37*
D14*
G04 #@! TO.P,U1,5*
G04 #@! TO.N,GND*
X119525000Y-107320000D03*
X117075000Y-107320000D03*
G04 #@! TD*
D10*
G04 #@! TO.P,U1,1*
G04 #@! TO.N,Net-(U1-Pad1)*
X112550000Y-109270000D03*
G04 #@! TO.P,U1,4*
G04 #@! TO.N,Net-(U1-Pad4)*
X111650000Y-109270000D03*
G04 #@! TO.P,U1,2*
G04 #@! TO.N,Net-(U1-Pad2)*
X112550000Y-108570000D03*
G04 #@! TO.P,U1,3*
G04 #@! TO.N,Net-(U1-Pad3)*
X111650000Y-108570000D03*
D11*
G04 #@! TD*
G04 #@! TO.N,GND*
G04 #@! TO.C,U1*
X112100000Y-107220000D03*
D12*
G04 #@! TO.P,U1,5*
G04 #@! TO.N,GND*
X111925000Y-109945000D03*
D13*
G04 #@! TD*
G04 #@! TO.N,GND*
G04 #@! TO.C,U1*
G36*
X113500000Y-109770000D02*
X113500000Y-109820000D01*
X113200000Y-110120000D01*
X110700000Y-110120000D01*
X110700000Y-109770000D01*
X113500000Y-109770000D01*
X113500000Y-109770000D01*
G37*
D14*
G04 #@! TO.P,U1,5*
G04 #@! TO.N,GND*
X113325000Y-107320000D03*
X110875000Y-107320000D03*
G04 #@! TD*
D10*
G04 #@! TO.P,U1,1*
G04 #@! TO.N,Net-(U1-Pad1)*
X137350000Y-101970000D03*
G04 #@! TO.P,U1,4*
G04 #@! TO.N,Net-(U1-Pad4)*
X136450000Y-101970000D03*
G04 #@! TO.P,U1,2*
G04 #@! TO.N,Net-(U1-Pad2)*
X137350000Y-101270000D03*
G04 #@! TO.P,U1,3*
G04 #@! TO.N,Net-(U1-Pad3)*
X136450000Y-101270000D03*
D11*
G04 #@! TD*
G04 #@! TO.N,GND*
G04 #@! TO.C,U1*
X136900000Y-99920000D03*
D12*
G04 #@! TO.P,U1,5*
G04 #@! TO.N,GND*
X136725000Y-102645000D03*
D13*
G04 #@! TD*
G04 #@! TO.N,GND*
G04 #@! TO.C,U1*
G36*
X138300000Y-102470000D02*
X138300000Y-102520000D01*
X138000000Y-102820000D01*
X135500000Y-102820000D01*
X135500000Y-102470000D01*
X138300000Y-102470000D01*
X138300000Y-102470000D01*
G37*
D14*
G04 #@! TO.P,U1,5*
G04 #@! TO.N,GND*
X138125000Y-100020000D03*
X135675000Y-100020000D03*
G04 #@! TD*
D10*
G04 #@! TO.P,U1,1*
G04 #@! TO.N,Net-(U1-Pad1)*
X131150000Y-101970000D03*
G04 #@! TO.P,U1,4*
G04 #@! TO.N,Net-(U1-Pad4)*
X130250000Y-101970000D03*
G04 #@! TO.P,U1,2*
G04 #@! TO.N,Net-(U1-Pad2)*
X131150000Y-101270000D03*
G04 #@! TO.P,U1,3*
G04 #@! TO.N,Net-(U1-Pad3)*
X130250000Y-101270000D03*
D11*
G04 #@! TD*
G04 #@! TO.N,GND*
G04 #@! TO.C,U1*
X130700000Y-99920000D03*
D12*
G04 #@! TO.P,U1,5*
G04 #@! TO.N,GND*
X130525000Y-102645000D03*
D13*
G04 #@! TD*
G04 #@! TO.N,GND*
G04 #@! TO.C,U1*
G36*
X132100000Y-102470000D02*
X132100000Y-102520000D01*
X131800000Y-102820000D01*
X129300000Y-102820000D01*
X129300000Y-102470000D01*
X132100000Y-102470000D01*
X132100000Y-102470000D01*
G37*
D14*
G04 #@! TO.P,U1,5*
G04 #@! TO.N,GND*
X131925000Y-100020000D03*
X129475000Y-100020000D03*
G04 #@! TD*
D10*
G04 #@! TO.P,U1,1*
G04 #@! TO.N,Net-(U1-Pad1)*
X124950000Y-101970000D03*
G04 #@! TO.P,U1,4*
G04 #@! TO.N,Net-(U1-Pad4)*
X124050000Y-101970000D03*
G04 #@! TO.P,U1,2*
G04 #@! TO.N,Net-(U1-Pad2)*
X124950000Y-101270000D03*
G04 #@! TO.P,U1,3*
G04 #@! TO.N,Net-(U1-Pad3)*
X124050000Y-101270000D03*
D11*
G04 #@! TD*
G04 #@! TO.N,GND*
G04 #@! TO.C,U1*
X124500000Y-99920000D03*
D12*
G04 #@! TO.P,U1,5*
G04 #@! TO.N,GND*
X124325000Y-102645000D03*
D13*
G04 #@! TD*
G04 #@! TO.N,GND*
G04 #@! TO.C,U1*
G36*
X125900000Y-102470000D02*
X125900000Y-102520000D01*
X125600000Y-102820000D01*
X123100000Y-102820000D01*
X123100000Y-102470000D01*
X125900000Y-102470000D01*
X125900000Y-102470000D01*
G37*
D14*
G04 #@! TO.P,U1,5*
G04 #@! TO.N,GND*
X125725000Y-100020000D03*
X123275000Y-100020000D03*
G04 #@! TD*
D10*
G04 #@! TO.P,U1,1*
G04 #@! TO.N,Net-(U1-Pad1)*
X118750000Y-101970000D03*
G04 #@! TO.P,U1,4*
G04 #@! TO.N,Net-(U1-Pad4)*
X117850000Y-101970000D03*
G04 #@! TO.P,U1,2*
G04 #@! TO.N,Net-(U1-Pad2)*
X118750000Y-101270000D03*
G04 #@! TO.P,U1,3*
G04 #@! TO.N,Net-(U1-Pad3)*
X117850000Y-101270000D03*
D11*
G04 #@! TD*
G04 #@! TO.N,GND*
G04 #@! TO.C,U1*
X118300000Y-99920000D03*
D12*
G04 #@! TO.P,U1,5*
G04 #@! TO.N,GND*
X118125000Y-102645000D03*
D13*
G04 #@! TD*
G04 #@! TO.N,GND*
G04 #@! TO.C,U1*
G36*
X119700000Y-102470000D02*
X119700000Y-102520000D01*
X119400000Y-102820000D01*
X116900000Y-102820000D01*
X116900000Y-102470000D01*
X119700000Y-102470000D01*
X119700000Y-102470000D01*
G37*
D14*
G04 #@! TO.P,U1,5*
G04 #@! TO.N,GND*
X119525000Y-100020000D03*
X117075000Y-100020000D03*
G04 #@! TD*
D10*
G04 #@! TO.P,U1,1*
G04 #@! TO.N,Net-(U1-Pad1)*
X112550000Y-101970000D03*
G04 #@! TO.P,U1,4*
G04 #@! TO.N,Net-(U1-Pad4)*
X111650000Y-101970000D03*
G04 #@! TO.P,U1,2*
G04 #@! TO.N,Net-(U1-Pad2)*
X112550000Y-101270000D03*
G04 #@! TO.P,U1,3*
G04 #@! TO.N,Net-(U1-Pad3)*
X111650000Y-101270000D03*
D11*
G04 #@! TD*
G04 #@! TO.N,GND*
G04 #@! TO.C,U1*
X112100000Y-99920000D03*
D12*
G04 #@! TO.P,U1,5*
G04 #@! TO.N,GND*
X111925000Y-102645000D03*
D13*
G04 #@! TD*
G04 #@! TO.N,GND*
G04 #@! TO.C,U1*
G36*
X113500000Y-102470000D02*
X113500000Y-102520000D01*
X113200000Y-102820000D01*
X110700000Y-102820000D01*
X110700000Y-102470000D01*
X113500000Y-102470000D01*
X113500000Y-102470000D01*
G37*
D14*
G04 #@! TO.P,U1,5*
G04 #@! TO.N,GND*
X113325000Y-100020000D03*
X110875000Y-100020000D03*
G04 #@! TD*
D10*
G04 #@! TO.P,U1,1*
G04 #@! TO.N,Net-(U1-Pad1)*
X137350000Y-94670000D03*
G04 #@! TO.P,U1,4*
G04 #@! TO.N,Net-(U1-Pad4)*
X136450000Y-94670000D03*
G04 #@! TO.P,U1,2*
G04 #@! TO.N,Net-(U1-Pad2)*
X137350000Y-93970000D03*
G04 #@! TO.P,U1,3*
G04 #@! TO.N,Net-(U1-Pad3)*
X136450000Y-93970000D03*
D11*
G04 #@! TD*
G04 #@! TO.N,GND*
G04 #@! TO.C,U1*
X136900000Y-92620000D03*
D12*
G04 #@! TO.P,U1,5*
G04 #@! TO.N,GND*
X136725000Y-95345000D03*
D13*
G04 #@! TD*
G04 #@! TO.N,GND*
G04 #@! TO.C,U1*
G36*
X138300000Y-95170000D02*
X138300000Y-95220000D01*
X138000000Y-95520000D01*
X135500000Y-95520000D01*
X135500000Y-95170000D01*
X138300000Y-95170000D01*
X138300000Y-95170000D01*
G37*
D14*
G04 #@! TO.P,U1,5*
G04 #@! TO.N,GND*
X138125000Y-92720000D03*
X135675000Y-92720000D03*
G04 #@! TD*
D10*
G04 #@! TO.P,U1,1*
G04 #@! TO.N,Net-(U1-Pad1)*
X131150000Y-94670000D03*
G04 #@! TO.P,U1,4*
G04 #@! TO.N,Net-(U1-Pad4)*
X130250000Y-94670000D03*
G04 #@! TO.P,U1,2*
G04 #@! TO.N,Net-(U1-Pad2)*
X131150000Y-93970000D03*
G04 #@! TO.P,U1,3*
G04 #@! TO.N,Net-(U1-Pad3)*
X130250000Y-93970000D03*
D11*
G04 #@! TD*
G04 #@! TO.N,GND*
G04 #@! TO.C,U1*
X130700000Y-92620000D03*
D12*
G04 #@! TO.P,U1,5*
G04 #@! TO.N,GND*
X130525000Y-95345000D03*
D13*
G04 #@! TD*
G04 #@! TO.N,GND*
G04 #@! TO.C,U1*
G36*
X132100000Y-95170000D02*
X132100000Y-95220000D01*
X131800000Y-95520000D01*
X129300000Y-95520000D01*
X129300000Y-95170000D01*
X132100000Y-95170000D01*
X132100000Y-95170000D01*
G37*
D14*
G04 #@! TO.P,U1,5*
G04 #@! TO.N,GND*
X131925000Y-92720000D03*
X129475000Y-92720000D03*
G04 #@! TD*
D10*
G04 #@! TO.P,U1,1*
G04 #@! TO.N,Net-(U1-Pad1)*
X124950000Y-94670000D03*
G04 #@! TO.P,U1,4*
G04 #@! TO.N,Net-(U1-Pad4)*
X124050000Y-94670000D03*
G04 #@! TO.P,U1,2*
G04 #@! TO.N,Net-(U1-Pad2)*
X124950000Y-93970000D03*
G04 #@! TO.P,U1,3*
G04 #@! TO.N,Net-(U1-Pad3)*
X124050000Y-93970000D03*
D11*
G04 #@! TD*
G04 #@! TO.N,GND*
G04 #@! TO.C,U1*
X124500000Y-92620000D03*
D12*
G04 #@! TO.P,U1,5*
G04 #@! TO.N,GND*
X124325000Y-95345000D03*
D13*
G04 #@! TD*
G04 #@! TO.N,GND*
G04 #@! TO.C,U1*
G36*
X125900000Y-95170000D02*
X125900000Y-95220000D01*
X125600000Y-95520000D01*
X123100000Y-95520000D01*
X123100000Y-95170000D01*
X125900000Y-95170000D01*
X125900000Y-95170000D01*
G37*
D14*
G04 #@! TO.P,U1,5*
G04 #@! TO.N,GND*
X125725000Y-92720000D03*
X123275000Y-92720000D03*
G04 #@! TD*
D10*
G04 #@! TO.P,U1,1*
G04 #@! TO.N,Net-(U1-Pad1)*
X118750000Y-94670000D03*
G04 #@! TO.P,U1,4*
G04 #@! TO.N,Net-(U1-Pad4)*
X117850000Y-94670000D03*
G04 #@! TO.P,U1,2*
G04 #@! TO.N,Net-(U1-Pad2)*
X118750000Y-93970000D03*
G04 #@! TO.P,U1,3*
G04 #@! TO.N,Net-(U1-Pad3)*
X117850000Y-93970000D03*
D11*
G04 #@! TD*
G04 #@! TO.N,GND*
G04 #@! TO.C,U1*
X118300000Y-92620000D03*
D12*
G04 #@! TO.P,U1,5*
G04 #@! TO.N,GND*
X118125000Y-95345000D03*
D13*
G04 #@! TD*
G04 #@! TO.N,GND*
G04 #@! TO.C,U1*
G36*
X119700000Y-95170000D02*
X119700000Y-95220000D01*
X119400000Y-95520000D01*
X116900000Y-95520000D01*
X116900000Y-95170000D01*
X119700000Y-95170000D01*
X119700000Y-95170000D01*
G37*
D14*
G04 #@! TO.P,U1,5*
G04 #@! TO.N,GND*
X119525000Y-92720000D03*
X117075000Y-92720000D03*
G04 #@! TD*
G04 #@! TO.P,U1,5*
G04 #@! TO.N,GND*
X110875000Y-92720000D03*
X113325000Y-92720000D03*
D12*
X111925000Y-95345000D03*
D13*
G04 #@! TD*
G04 #@! TO.N,GND*
G04 #@! TO.C,U1*
G36*
X113500000Y-95170000D02*
X113500000Y-95220000D01*
X113200000Y-95520000D01*
X110700000Y-95520000D01*
X110700000Y-95170000D01*
X113500000Y-95170000D01*
X113500000Y-95170000D01*
G37*
D11*
G04 #@! TO.N,GND*
G04 #@! TO.C,U1*
X112100000Y-92620000D03*
D10*
G04 #@! TD*
G04 #@! TO.P,U1,3*
G04 #@! TO.N,Net-(U1-Pad3)*
X111650000Y-93970000D03*
G04 #@! TO.P,U1,2*
G04 #@! TO.N,Net-(U1-Pad2)*
X112550000Y-93970000D03*
G04 #@! TO.P,U1,4*
G04 #@! TO.N,Net-(U1-Pad4)*
X111650000Y-94670000D03*
G04 #@! TO.P,U1,1*
G04 #@! TO.N,Net-(U1-Pad1)*
X112550000Y-94670000D03*
G04 #@! TD*
D15*
G04 #@! TO.N,*
X111100000Y-96200000D03*
X111100000Y-96200000D03*
X111100000Y-96200000D03*
X111600000Y-96200000D03*
X112100000Y-96200000D03*
X112600000Y-96200000D03*
X111100000Y-97800000D03*
X113100000Y-96200000D03*
X111600000Y-97800000D03*
X112100000Y-97800000D03*
X112600000Y-97800000D03*
X113100000Y-97800000D03*
X114400000Y-94850000D03*
X114400000Y-94350000D03*
X114400000Y-93850000D03*
X114400000Y-93350000D03*
X114400000Y-92850000D03*
X114400000Y-92350000D03*
X114400000Y-91850000D03*
X116000000Y-94850000D03*
X116000000Y-91850000D03*
X116000000Y-92350000D03*
X116000000Y-93850000D03*
X116000000Y-93350000D03*
X116000000Y-92850000D03*
X116000000Y-94350000D03*
X118300000Y-97800000D03*
X124500000Y-97800000D03*
X130700000Y-97800000D03*
X136900000Y-97800000D03*
X112100000Y-105100000D03*
X118300000Y-105100000D03*
X124500000Y-105100000D03*
X130700000Y-105100000D03*
X136900000Y-105100000D03*
X112100000Y-112400000D03*
X118300000Y-112400000D03*
X124500000Y-112400000D03*
X130700000Y-112400000D03*
X136900000Y-112400000D03*
X112100000Y-119700000D03*
X118300000Y-119700000D03*
X124500000Y-119700000D03*
X130700000Y-119700000D03*
X136900000Y-119700000D03*
X117300000Y-96200000D03*
X123500000Y-96200000D03*
X129700000Y-96200000D03*
X135900000Y-96200000D03*
X111100000Y-103500000D03*
X117300000Y-103500000D03*
X123500000Y-103500000D03*
X129700000Y-103500000D03*
X135900000Y-103500000D03*
X111100000Y-110800000D03*
X117300000Y-110800000D03*
X123500000Y-110800000D03*
X129700000Y-110800000D03*
X135900000Y-110800000D03*
X111100000Y-118100000D03*
X117300000Y-118100000D03*
X123500000Y-118100000D03*
X129700000Y-118100000D03*
X135900000Y-118100000D03*
X122200000Y-92350000D03*
X128400000Y-92350000D03*
X134600000Y-92350000D03*
X116000000Y-99650000D03*
X122200000Y-99650000D03*
X128400000Y-99650000D03*
X134600000Y-99650000D03*
X116000000Y-106950000D03*
X122200000Y-106950000D03*
X128400000Y-106950000D03*
X134600000Y-106950000D03*
X116000000Y-114250000D03*
X122200000Y-114250000D03*
X128400000Y-114250000D03*
X134600000Y-114250000D03*
X116000000Y-121550000D03*
X122200000Y-121550000D03*
X128400000Y-121550000D03*
X134600000Y-121550000D03*
X118800000Y-96200000D03*
X125000000Y-96200000D03*
X131200000Y-96200000D03*
X137400000Y-96200000D03*
X112600000Y-103500000D03*
X118800000Y-103500000D03*
X125000000Y-103500000D03*
X131200000Y-103500000D03*
X137400000Y-103500000D03*
X112600000Y-110800000D03*
X118800000Y-110800000D03*
X125000000Y-110800000D03*
X131200000Y-110800000D03*
X137400000Y-110800000D03*
X112600000Y-118100000D03*
X118800000Y-118100000D03*
X125000000Y-118100000D03*
X131200000Y-118100000D03*
X137400000Y-118100000D03*
X117800000Y-96200000D03*
X124000000Y-96200000D03*
X130200000Y-96200000D03*
X136400000Y-96200000D03*
X111600000Y-103500000D03*
X117800000Y-103500000D03*
X124000000Y-103500000D03*
X130200000Y-103500000D03*
X136400000Y-103500000D03*
X111600000Y-110800000D03*
X117800000Y-110800000D03*
X124000000Y-110800000D03*
X130200000Y-110800000D03*
X136400000Y-110800000D03*
X111600000Y-118100000D03*
X117800000Y-118100000D03*
X124000000Y-118100000D03*
X130200000Y-118100000D03*
X136400000Y-118100000D03*
X122200000Y-94350000D03*
X128400000Y-94350000D03*
X134600000Y-94350000D03*
X116000000Y-101650000D03*
X122200000Y-101650000D03*
X128400000Y-101650000D03*
X134600000Y-101650000D03*
X116000000Y-108950000D03*
X122200000Y-108950000D03*
X128400000Y-108950000D03*
X134600000Y-108950000D03*
X116000000Y-116250000D03*
X122200000Y-116250000D03*
X128400000Y-116250000D03*
X134600000Y-116250000D03*
X116000000Y-123550000D03*
X122200000Y-123550000D03*
X128400000Y-123550000D03*
X134600000Y-123550000D03*
X120600000Y-94850000D03*
X126800000Y-94850000D03*
X133000000Y-94850000D03*
X114400000Y-102150000D03*
X120600000Y-102150000D03*
X126800000Y-102150000D03*
X133000000Y-102150000D03*
X114400000Y-109450000D03*
X120600000Y-109450000D03*
X126800000Y-109450000D03*
X133000000Y-109450000D03*
X114400000Y-116750000D03*
X120600000Y-116750000D03*
X126800000Y-116750000D03*
X133000000Y-116750000D03*
X114400000Y-124050000D03*
X120600000Y-124050000D03*
X126800000Y-124050000D03*
X133000000Y-124050000D03*
X120600000Y-91850000D03*
X126800000Y-91850000D03*
X133000000Y-91850000D03*
X114400000Y-99150000D03*
X120600000Y-99150000D03*
X126800000Y-99150000D03*
X133000000Y-99150000D03*
X114400000Y-106450000D03*
X120600000Y-106450000D03*
X126800000Y-106450000D03*
X133000000Y-106450000D03*
X114400000Y-113750000D03*
X120600000Y-113750000D03*
X126800000Y-113750000D03*
X133000000Y-113750000D03*
X114400000Y-121050000D03*
X120600000Y-121050000D03*
X126800000Y-121050000D03*
X133000000Y-121050000D03*
X122200000Y-93850000D03*
X128400000Y-93850000D03*
X134600000Y-93850000D03*
X116000000Y-101150000D03*
X122200000Y-101150000D03*
X128400000Y-101150000D03*
X134600000Y-101150000D03*
X116000000Y-108450000D03*
X122200000Y-108450000D03*
X128400000Y-108450000D03*
X134600000Y-108450000D03*
X116000000Y-115750000D03*
X122200000Y-115750000D03*
X128400000Y-115750000D03*
X134600000Y-115750000D03*
X116000000Y-123050000D03*
X122200000Y-123050000D03*
X128400000Y-123050000D03*
X134600000Y-123050000D03*
X120600000Y-92350000D03*
X126800000Y-92350000D03*
X133000000Y-92350000D03*
X114400000Y-99650000D03*
X120600000Y-99650000D03*
X126800000Y-99650000D03*
X133000000Y-99650000D03*
X114400000Y-106950000D03*
X120600000Y-106950000D03*
X126800000Y-106950000D03*
X133000000Y-106950000D03*
X114400000Y-114250000D03*
X120600000Y-114250000D03*
X126800000Y-114250000D03*
X133000000Y-114250000D03*
X114400000Y-121550000D03*
X120600000Y-121550000D03*
X126800000Y-121550000D03*
X133000000Y-121550000D03*
X118800000Y-97800000D03*
X125000000Y-97800000D03*
X131200000Y-97800000D03*
X137400000Y-97800000D03*
X112600000Y-105100000D03*
X118800000Y-105100000D03*
X125000000Y-105100000D03*
X131200000Y-105100000D03*
X137400000Y-105100000D03*
X112600000Y-112400000D03*
X118800000Y-112400000D03*
X125000000Y-112400000D03*
X131200000Y-112400000D03*
X137400000Y-112400000D03*
X112600000Y-119700000D03*
X118800000Y-119700000D03*
X125000000Y-119700000D03*
X131200000Y-119700000D03*
X137400000Y-119700000D03*
X117300000Y-96200000D03*
X123500000Y-96200000D03*
X129700000Y-96200000D03*
X135900000Y-96200000D03*
X111100000Y-103500000D03*
X117300000Y-103500000D03*
X123500000Y-103500000D03*
X129700000Y-103500000D03*
X135900000Y-103500000D03*
X111100000Y-110800000D03*
X117300000Y-110800000D03*
X123500000Y-110800000D03*
X129700000Y-110800000D03*
X135900000Y-110800000D03*
X111100000Y-118100000D03*
X117300000Y-118100000D03*
X123500000Y-118100000D03*
X129700000Y-118100000D03*
X135900000Y-118100000D03*
X119300000Y-96200000D03*
X125500000Y-96200000D03*
X131700000Y-96200000D03*
X137900000Y-96200000D03*
X113100000Y-103500000D03*
X119300000Y-103500000D03*
X125500000Y-103500000D03*
X131700000Y-103500000D03*
X137900000Y-103500000D03*
X113100000Y-110800000D03*
X119300000Y-110800000D03*
X125500000Y-110800000D03*
X131700000Y-110800000D03*
X137900000Y-110800000D03*
X113100000Y-118100000D03*
X119300000Y-118100000D03*
X125500000Y-118100000D03*
X131700000Y-118100000D03*
X137900000Y-118100000D03*
X117800000Y-97800000D03*
X124000000Y-97800000D03*
X130200000Y-97800000D03*
X136400000Y-97800000D03*
X111600000Y-105100000D03*
X117800000Y-105100000D03*
X124000000Y-105100000D03*
X130200000Y-105100000D03*
X136400000Y-105100000D03*
X111600000Y-112400000D03*
X117800000Y-112400000D03*
X124000000Y-112400000D03*
X130200000Y-112400000D03*
X136400000Y-112400000D03*
X111600000Y-119700000D03*
X117800000Y-119700000D03*
X124000000Y-119700000D03*
X130200000Y-119700000D03*
X136400000Y-119700000D03*
X117300000Y-97800000D03*
X123500000Y-97800000D03*
X129700000Y-97800000D03*
X135900000Y-97800000D03*
X111100000Y-105100000D03*
X117300000Y-105100000D03*
X123500000Y-105100000D03*
X129700000Y-105100000D03*
X135900000Y-105100000D03*
X111100000Y-112400000D03*
X117300000Y-112400000D03*
X123500000Y-112400000D03*
X129700000Y-112400000D03*
X135900000Y-112400000D03*
X111100000Y-119700000D03*
X117300000Y-119700000D03*
X123500000Y-119700000D03*
X129700000Y-119700000D03*
X135900000Y-119700000D03*
X120600000Y-93850000D03*
X126800000Y-93850000D03*
X133000000Y-93850000D03*
X114400000Y-101150000D03*
X120600000Y-101150000D03*
X126800000Y-101150000D03*
X133000000Y-101150000D03*
X114400000Y-108450000D03*
X120600000Y-108450000D03*
X126800000Y-108450000D03*
X133000000Y-108450000D03*
X114400000Y-115750000D03*
X120600000Y-115750000D03*
X126800000Y-115750000D03*
X133000000Y-115750000D03*
X114400000Y-123050000D03*
X120600000Y-123050000D03*
X126800000Y-123050000D03*
X133000000Y-123050000D03*
X118300000Y-96200000D03*
X124500000Y-96200000D03*
X130700000Y-96200000D03*
X136900000Y-96200000D03*
X112100000Y-103500000D03*
X118300000Y-103500000D03*
X124500000Y-103500000D03*
X130700000Y-103500000D03*
X136900000Y-103500000D03*
X112100000Y-110800000D03*
X118300000Y-110800000D03*
X124500000Y-110800000D03*
X130700000Y-110800000D03*
X136900000Y-110800000D03*
X112100000Y-118100000D03*
X118300000Y-118100000D03*
X124500000Y-118100000D03*
X130700000Y-118100000D03*
X136900000Y-118100000D03*
X122200000Y-91850000D03*
X128400000Y-91850000D03*
X134600000Y-91850000D03*
X116000000Y-99150000D03*
X122200000Y-99150000D03*
X128400000Y-99150000D03*
X134600000Y-99150000D03*
X116000000Y-106450000D03*
X122200000Y-106450000D03*
X128400000Y-106450000D03*
X134600000Y-106450000D03*
X116000000Y-113750000D03*
X122200000Y-113750000D03*
X128400000Y-113750000D03*
X134600000Y-113750000D03*
X116000000Y-121050000D03*
X122200000Y-121050000D03*
X128400000Y-121050000D03*
X134600000Y-121050000D03*
X122200000Y-92850000D03*
X128400000Y-92850000D03*
X134600000Y-92850000D03*
X116000000Y-100150000D03*
X122200000Y-100150000D03*
X128400000Y-100150000D03*
X134600000Y-100150000D03*
X116000000Y-107450000D03*
X122200000Y-107450000D03*
X128400000Y-107450000D03*
X134600000Y-107450000D03*
X116000000Y-114750000D03*
X122200000Y-114750000D03*
X128400000Y-114750000D03*
X134600000Y-114750000D03*
X116000000Y-122050000D03*
X122200000Y-122050000D03*
X128400000Y-122050000D03*
X134600000Y-122050000D03*
X122200000Y-93350000D03*
X128400000Y-93350000D03*
X134600000Y-93350000D03*
X116000000Y-100650000D03*
X122200000Y-100650000D03*
X128400000Y-100650000D03*
X134600000Y-100650000D03*
X116000000Y-107950000D03*
X122200000Y-107950000D03*
X128400000Y-107950000D03*
X134600000Y-107950000D03*
X116000000Y-115250000D03*
X122200000Y-115250000D03*
X128400000Y-115250000D03*
X134600000Y-115250000D03*
X116000000Y-122550000D03*
X122200000Y-122550000D03*
X128400000Y-122550000D03*
X134600000Y-122550000D03*
X120600000Y-93350000D03*
X126800000Y-93350000D03*
X133000000Y-93350000D03*
X114400000Y-100650000D03*
X120600000Y-100650000D03*
X126800000Y-100650000D03*
X133000000Y-100650000D03*
X114400000Y-107950000D03*
X120600000Y-107950000D03*
X126800000Y-107950000D03*
X133000000Y-107950000D03*
X114400000Y-115250000D03*
X120600000Y-115250000D03*
X126800000Y-115250000D03*
X133000000Y-115250000D03*
X114400000Y-122550000D03*
X120600000Y-122550000D03*
X126800000Y-122550000D03*
X133000000Y-122550000D03*
X120600000Y-92850000D03*
X126800000Y-92850000D03*
X133000000Y-92850000D03*
X114400000Y-100150000D03*
X120600000Y-100150000D03*
X126800000Y-100150000D03*
X133000000Y-100150000D03*
X114400000Y-107450000D03*
X120600000Y-107450000D03*
X126800000Y-107450000D03*
X133000000Y-107450000D03*
X114400000Y-114750000D03*
X120600000Y-114750000D03*
X126800000Y-114750000D03*
X133000000Y-114750000D03*
X114400000Y-122050000D03*
X120600000Y-122050000D03*
X126800000Y-122050000D03*
X133000000Y-122050000D03*
X119300000Y-97800000D03*
X125500000Y-97800000D03*
X131700000Y-97800000D03*
X137900000Y-97800000D03*
X113100000Y-105100000D03*
X119300000Y-105100000D03*
X125500000Y-105100000D03*
X131700000Y-105100000D03*
X137900000Y-105100000D03*
X113100000Y-112400000D03*
X119300000Y-112400000D03*
X125500000Y-112400000D03*
X131700000Y-112400000D03*
X137900000Y-112400000D03*
X113100000Y-119700000D03*
X119300000Y-119700000D03*
X125500000Y-119700000D03*
X131700000Y-119700000D03*
X137900000Y-119700000D03*
X117300000Y-96200000D03*
X123500000Y-96200000D03*
X129700000Y-96200000D03*
X135900000Y-96200000D03*
X111100000Y-103500000D03*
X117300000Y-103500000D03*
X123500000Y-103500000D03*
X129700000Y-103500000D03*
X135900000Y-103500000D03*
X111100000Y-110800000D03*
X117300000Y-110800000D03*
X123500000Y-110800000D03*
X129700000Y-110800000D03*
X135900000Y-110800000D03*
X111100000Y-118100000D03*
X117300000Y-118100000D03*
X123500000Y-118100000D03*
X129700000Y-118100000D03*
X135900000Y-118100000D03*
X120600000Y-94350000D03*
X126800000Y-94350000D03*
X133000000Y-94350000D03*
X114400000Y-101650000D03*
X120600000Y-101650000D03*
X126800000Y-101650000D03*
X133000000Y-101650000D03*
X114400000Y-108950000D03*
X120600000Y-108950000D03*
X126800000Y-108950000D03*
X133000000Y-108950000D03*
X114400000Y-116250000D03*
X120600000Y-116250000D03*
X126800000Y-116250000D03*
X133000000Y-116250000D03*
X114400000Y-123550000D03*
X120600000Y-123550000D03*
X126800000Y-123550000D03*
X133000000Y-123550000D03*
X122200000Y-94850000D03*
X128400000Y-94850000D03*
X134600000Y-94850000D03*
X116000000Y-102150000D03*
X122200000Y-102150000D03*
X128400000Y-102150000D03*
X134600000Y-102150000D03*
X116000000Y-109450000D03*
X122200000Y-109450000D03*
X128400000Y-109450000D03*
X134600000Y-109450000D03*
X116000000Y-116750000D03*
X122200000Y-116750000D03*
X128400000Y-116750000D03*
X134600000Y-116750000D03*
X116000000Y-124050000D03*
X122200000Y-124050000D03*
X128400000Y-124050000D03*
X134600000Y-124050000D03*
G04 #@! TO.N,Net-(U1-Pad2)*
X113697599Y-94070558D03*
X119897599Y-94070558D03*
X126097599Y-94070558D03*
X132297599Y-94070558D03*
X138497599Y-94070558D03*
X113697599Y-101370558D03*
X119897599Y-101370558D03*
X126097599Y-101370558D03*
X132297599Y-101370558D03*
X138497599Y-101370558D03*
X113697599Y-108670558D03*
X119897599Y-108670558D03*
X126097599Y-108670558D03*
X132297599Y-108670558D03*
X138497599Y-108670558D03*
X113697599Y-115970558D03*
X119897599Y-115970558D03*
X126097599Y-115970558D03*
X132297599Y-115970558D03*
X138497599Y-115970558D03*
X113697599Y-123270558D03*
X119897599Y-123270558D03*
X126097599Y-123270558D03*
X132297599Y-123270558D03*
X138497599Y-123270558D03*
G04 #@! TO.N,Net-(U1-Pad4)*
X110502400Y-94800000D03*
X116702400Y-94800000D03*
X122902400Y-94800000D03*
X129102400Y-94800000D03*
X135302400Y-94800000D03*
X110502400Y-102100000D03*
X116702400Y-102100000D03*
X122902400Y-102100000D03*
X129102400Y-102100000D03*
X135302400Y-102100000D03*
X110502400Y-109400000D03*
X116702400Y-109400000D03*
X122902400Y-109400000D03*
X129102400Y-109400000D03*
X135302400Y-109400000D03*
X110502400Y-116700000D03*
X116702400Y-116700000D03*
X122902400Y-116700000D03*
X129102400Y-116700000D03*
X135302400Y-116700000D03*
X110502400Y-124000000D03*
X116702400Y-124000000D03*
X122902400Y-124000000D03*
X129102400Y-124000000D03*
X135302400Y-124000000D03*
G04 #@! TO.N,Net-(U1-Pad3)*
X110502418Y-94070566D03*
X116702418Y-94070566D03*
X122902418Y-94070566D03*
X129102418Y-94070566D03*
X135302418Y-94070566D03*
X110502418Y-101370566D03*
X116702418Y-101370566D03*
X122902418Y-101370566D03*
X129102418Y-101370566D03*
X135302418Y-101370566D03*
X110502418Y-108670566D03*
X116702418Y-108670566D03*
X122902418Y-108670566D03*
X129102418Y-108670566D03*
X135302418Y-108670566D03*
X110502418Y-115970566D03*
X116702418Y-115970566D03*
X122902418Y-115970566D03*
X129102418Y-115970566D03*
X135302418Y-115970566D03*
X110502418Y-123270566D03*
X116702418Y-123270566D03*
X122902418Y-123270566D03*
X129102418Y-123270566D03*
X135302418Y-123270566D03*
G04 #@! TO.N,Net-(U1-Pad1)*
X113697600Y-94800000D03*
X119897600Y-94800000D03*
X126097600Y-94800000D03*
X132297600Y-94800000D03*
X138497600Y-94800000D03*
X113697600Y-102100000D03*
X119897600Y-102100000D03*
X126097600Y-102100000D03*
X132297600Y-102100000D03*
X138497600Y-102100000D03*
X113697600Y-109400000D03*
X119897600Y-109400000D03*
X126097600Y-109400000D03*
X132297600Y-109400000D03*
X138497600Y-109400000D03*
X113697600Y-116700000D03*
X119897600Y-116700000D03*
X126097600Y-116700000D03*
X132297600Y-116700000D03*
X138497600Y-116700000D03*
X113697600Y-124000000D03*
X119897600Y-124000000D03*
X126097600Y-124000000D03*
X132297600Y-124000000D03*
X138497600Y-124000000D03*
G04 #@! TO.N,GND*
X112100000Y-95497600D03*
X118300000Y-95497600D03*
X124500000Y-95497600D03*
X130700000Y-95497600D03*
X136900000Y-95497600D03*
X112100000Y-102797600D03*
X118300000Y-102797600D03*
X124500000Y-102797600D03*
X130700000Y-102797600D03*
X136900000Y-102797600D03*
X112100000Y-110097600D03*
X118300000Y-110097600D03*
X124500000Y-110097600D03*
X130700000Y-110097600D03*
X136900000Y-110097600D03*
X112100000Y-117397600D03*
X118300000Y-117397600D03*
X124500000Y-117397600D03*
X130700000Y-117397600D03*
X136900000Y-117397600D03*
X112100000Y-124697600D03*
X118300000Y-124697600D03*
X124500000Y-124697600D03*
X130700000Y-124697600D03*
X136900000Y-124697600D03*
G04 #@! TD*
D16*
G04 #@! TO.N,Net-(U1-Pad2)*
X113597041Y-93970000D02*
X113697599Y-94070558D01*
X112970000Y-93970000D02*
X112550000Y-93970000D01*
X113697599Y-94070558D02*
X113070558Y-94070558D01*
X113070558Y-94070558D02*
X112970000Y-93970000D01*
X119170000Y-93970000D02*
X118750000Y-93970000D01*
X125370000Y-93970000D02*
X124950000Y-93970000D01*
X131570000Y-93970000D02*
X131150000Y-93970000D01*
X137770000Y-93970000D02*
X137350000Y-93970000D01*
X112970000Y-101270000D02*
X112550000Y-101270000D01*
X119170000Y-101270000D02*
X118750000Y-101270000D01*
X125370000Y-101270000D02*
X124950000Y-101270000D01*
X131570000Y-101270000D02*
X131150000Y-101270000D01*
X137770000Y-101270000D02*
X137350000Y-101270000D01*
X112970000Y-108570000D02*
X112550000Y-108570000D01*
X119170000Y-108570000D02*
X118750000Y-108570000D01*
X125370000Y-108570000D02*
X124950000Y-108570000D01*
X131570000Y-108570000D02*
X131150000Y-108570000D01*
X137770000Y-108570000D02*
X137350000Y-108570000D01*
X112970000Y-115870000D02*
X112550000Y-115870000D01*
X119170000Y-115870000D02*
X118750000Y-115870000D01*
X125370000Y-115870000D02*
X124950000Y-115870000D01*
X131570000Y-115870000D02*
X131150000Y-115870000D01*
X137770000Y-115870000D02*
X137350000Y-115870000D01*
X112970000Y-123170000D02*
X112550000Y-123170000D01*
X119170000Y-123170000D02*
X118750000Y-123170000D01*
X125370000Y-123170000D02*
X124950000Y-123170000D01*
X131570000Y-123170000D02*
X131150000Y-123170000D01*
X137770000Y-123170000D02*
X137350000Y-123170000D01*
X119797041Y-93970000D02*
X119897599Y-94070558D01*
X125997041Y-93970000D02*
X126097599Y-94070558D01*
X132197041Y-93970000D02*
X132297599Y-94070558D01*
X138397041Y-93970000D02*
X138497599Y-94070558D01*
X113597041Y-101270000D02*
X113697599Y-101370558D01*
X119797041Y-101270000D02*
X119897599Y-101370558D01*
X125997041Y-101270000D02*
X126097599Y-101370558D01*
X132197041Y-101270000D02*
X132297599Y-101370558D01*
X138397041Y-101270000D02*
X138497599Y-101370558D01*
X113597041Y-108570000D02*
X113697599Y-108670558D01*
X119797041Y-108570000D02*
X119897599Y-108670558D01*
X125997041Y-108570000D02*
X126097599Y-108670558D01*
X132197041Y-108570000D02*
X132297599Y-108670558D01*
X138397041Y-108570000D02*
X138497599Y-108670558D01*
X113597041Y-115870000D02*
X113697599Y-115970558D01*
X119797041Y-115870000D02*
X119897599Y-115970558D01*
X125997041Y-115870000D02*
X126097599Y-115970558D01*
X132197041Y-115870000D02*
X132297599Y-115970558D01*
X138397041Y-115870000D02*
X138497599Y-115970558D01*
X113597041Y-123170000D02*
X113697599Y-123270558D01*
X119797041Y-123170000D02*
X119897599Y-123270558D01*
X125997041Y-123170000D02*
X126097599Y-123270558D01*
X132197041Y-123170000D02*
X132297599Y-123270558D01*
X138397041Y-123170000D02*
X138497599Y-123270558D01*
X119270558Y-94070558D02*
X119170000Y-93970000D01*
X125470558Y-94070558D02*
X125370000Y-93970000D01*
X131670558Y-94070558D02*
X131570000Y-93970000D01*
X137870558Y-94070558D02*
X137770000Y-93970000D01*
X113070558Y-101370558D02*
X112970000Y-101270000D01*
X119270558Y-101370558D02*
X119170000Y-101270000D01*
X125470558Y-101370558D02*
X125370000Y-101270000D01*
X131670558Y-101370558D02*
X131570000Y-101270000D01*
X137870558Y-101370558D02*
X137770000Y-101270000D01*
X113070558Y-108670558D02*
X112970000Y-108570000D01*
X119270558Y-108670558D02*
X119170000Y-108570000D01*
X125470558Y-108670558D02*
X125370000Y-108570000D01*
X131670558Y-108670558D02*
X131570000Y-108570000D01*
X137870558Y-108670558D02*
X137770000Y-108570000D01*
X113070558Y-115970558D02*
X112970000Y-115870000D01*
X119270558Y-115970558D02*
X119170000Y-115870000D01*
X125470558Y-115970558D02*
X125370000Y-115870000D01*
X131670558Y-115970558D02*
X131570000Y-115870000D01*
X137870558Y-115970558D02*
X137770000Y-115870000D01*
X113070558Y-123270558D02*
X112970000Y-123170000D01*
X119270558Y-123270558D02*
X119170000Y-123170000D01*
X125470558Y-123270558D02*
X125370000Y-123170000D01*
X131670558Y-123270558D02*
X131570000Y-123170000D01*
X137870558Y-123270558D02*
X137770000Y-123170000D01*
X119897599Y-94070558D02*
X119270558Y-94070558D01*
X126097599Y-94070558D02*
X125470558Y-94070558D01*
X132297599Y-94070558D02*
X131670558Y-94070558D01*
X138497599Y-94070558D02*
X137870558Y-94070558D01*
X113697599Y-101370558D02*
X113070558Y-101370558D01*
X119897599Y-101370558D02*
X119270558Y-101370558D01*
X126097599Y-101370558D02*
X125470558Y-101370558D01*
X132297599Y-101370558D02*
X131670558Y-101370558D01*
X138497599Y-101370558D02*
X137870558Y-101370558D01*
X113697599Y-108670558D02*
X113070558Y-108670558D01*
X119897599Y-108670558D02*
X119270558Y-108670558D01*
X126097599Y-108670558D02*
X125470558Y-108670558D01*
X132297599Y-108670558D02*
X131670558Y-108670558D01*
X138497599Y-108670558D02*
X137870558Y-108670558D01*
X113697599Y-115970558D02*
X113070558Y-115970558D01*
X119897599Y-115970558D02*
X119270558Y-115970558D01*
X126097599Y-115970558D02*
X125470558Y-115970558D01*
X132297599Y-115970558D02*
X131670558Y-115970558D01*
X138497599Y-115970558D02*
X137870558Y-115970558D01*
X113697599Y-123270558D02*
X113070558Y-123270558D01*
X119897599Y-123270558D02*
X119270558Y-123270558D01*
X126097599Y-123270558D02*
X125470558Y-123270558D01*
X132297599Y-123270558D02*
X131670558Y-123270558D01*
X138497599Y-123270558D02*
X137870558Y-123270558D01*
G04 #@! TO.N,Net-(U1-Pad4)*
X110502400Y-94800000D02*
X111050000Y-94800000D01*
X111180000Y-94670000D02*
X111650000Y-94670000D01*
X111050000Y-94800000D02*
X111180000Y-94670000D01*
X117250000Y-94800000D02*
X117380000Y-94670000D01*
X123450000Y-94800000D02*
X123580000Y-94670000D01*
X129650000Y-94800000D02*
X129780000Y-94670000D01*
X135850000Y-94800000D02*
X135980000Y-94670000D01*
X111050000Y-102100000D02*
X111180000Y-101970000D01*
X117250000Y-102100000D02*
X117380000Y-101970000D01*
X123450000Y-102100000D02*
X123580000Y-101970000D01*
X129650000Y-102100000D02*
X129780000Y-101970000D01*
X135850000Y-102100000D02*
X135980000Y-101970000D01*
X111050000Y-109400000D02*
X111180000Y-109270000D01*
X117250000Y-109400000D02*
X117380000Y-109270000D01*
X123450000Y-109400000D02*
X123580000Y-109270000D01*
X129650000Y-109400000D02*
X129780000Y-109270000D01*
X135850000Y-109400000D02*
X135980000Y-109270000D01*
X111050000Y-116700000D02*
X111180000Y-116570000D01*
X117250000Y-116700000D02*
X117380000Y-116570000D01*
X123450000Y-116700000D02*
X123580000Y-116570000D01*
X129650000Y-116700000D02*
X129780000Y-116570000D01*
X135850000Y-116700000D02*
X135980000Y-116570000D01*
X111050000Y-124000000D02*
X111180000Y-123870000D01*
X117250000Y-124000000D02*
X117380000Y-123870000D01*
X123450000Y-124000000D02*
X123580000Y-123870000D01*
X129650000Y-124000000D02*
X129780000Y-123870000D01*
X135850000Y-124000000D02*
X135980000Y-123870000D01*
X117380000Y-94670000D02*
X117850000Y-94670000D01*
X123580000Y-94670000D02*
X124050000Y-94670000D01*
X129780000Y-94670000D02*
X130250000Y-94670000D01*
X135980000Y-94670000D02*
X136450000Y-94670000D01*
X111180000Y-101970000D02*
X111650000Y-101970000D01*
X117380000Y-101970000D02*
X117850000Y-101970000D01*
X123580000Y-101970000D02*
X124050000Y-101970000D01*
X129780000Y-101970000D02*
X130250000Y-101970000D01*
X135980000Y-101970000D02*
X136450000Y-101970000D01*
X111180000Y-109270000D02*
X111650000Y-109270000D01*
X117380000Y-109270000D02*
X117850000Y-109270000D01*
X123580000Y-109270000D02*
X124050000Y-109270000D01*
X129780000Y-109270000D02*
X130250000Y-109270000D01*
X135980000Y-109270000D02*
X136450000Y-109270000D01*
X111180000Y-116570000D02*
X111650000Y-116570000D01*
X117380000Y-116570000D02*
X117850000Y-116570000D01*
X123580000Y-116570000D02*
X124050000Y-116570000D01*
X129780000Y-116570000D02*
X130250000Y-116570000D01*
X135980000Y-116570000D02*
X136450000Y-116570000D01*
X111180000Y-123870000D02*
X111650000Y-123870000D01*
X117380000Y-123870000D02*
X117850000Y-123870000D01*
X123580000Y-123870000D02*
X124050000Y-123870000D01*
X129780000Y-123870000D02*
X130250000Y-123870000D01*
X135980000Y-123870000D02*
X136450000Y-123870000D01*
X116702400Y-94800000D02*
X117250000Y-94800000D01*
X122902400Y-94800000D02*
X123450000Y-94800000D01*
X129102400Y-94800000D02*
X129650000Y-94800000D01*
X135302400Y-94800000D02*
X135850000Y-94800000D01*
X110502400Y-102100000D02*
X111050000Y-102100000D01*
X116702400Y-102100000D02*
X117250000Y-102100000D01*
X122902400Y-102100000D02*
X123450000Y-102100000D01*
X129102400Y-102100000D02*
X129650000Y-102100000D01*
X135302400Y-102100000D02*
X135850000Y-102100000D01*
X110502400Y-109400000D02*
X111050000Y-109400000D01*
X116702400Y-109400000D02*
X117250000Y-109400000D01*
X122902400Y-109400000D02*
X123450000Y-109400000D01*
X129102400Y-109400000D02*
X129650000Y-109400000D01*
X135302400Y-109400000D02*
X135850000Y-109400000D01*
X110502400Y-116700000D02*
X111050000Y-116700000D01*
X116702400Y-116700000D02*
X117250000Y-116700000D01*
X122902400Y-116700000D02*
X123450000Y-116700000D01*
X129102400Y-116700000D02*
X129650000Y-116700000D01*
X135302400Y-116700000D02*
X135850000Y-116700000D01*
X110502400Y-124000000D02*
X111050000Y-124000000D01*
X116702400Y-124000000D02*
X117250000Y-124000000D01*
X122902400Y-124000000D02*
X123450000Y-124000000D01*
X129102400Y-124000000D02*
X129650000Y-124000000D01*
X135302400Y-124000000D02*
X135850000Y-124000000D01*
G04 #@! TO.N,Net-(U1-Pad3)*
X111230000Y-93970000D02*
X111650000Y-93970000D01*
X110502418Y-94070566D02*
X111129434Y-94070566D01*
X111129434Y-94070566D02*
X111230000Y-93970000D01*
X117329434Y-94070566D02*
X117430000Y-93970000D01*
X123529434Y-94070566D02*
X123630000Y-93970000D01*
X129729434Y-94070566D02*
X129830000Y-93970000D01*
X135929434Y-94070566D02*
X136030000Y-93970000D01*
X111129434Y-101370566D02*
X111230000Y-101270000D01*
X117329434Y-101370566D02*
X117430000Y-101270000D01*
X123529434Y-101370566D02*
X123630000Y-101270000D01*
X129729434Y-101370566D02*
X129830000Y-101270000D01*
X135929434Y-101370566D02*
X136030000Y-101270000D01*
X111129434Y-108670566D02*
X111230000Y-108570000D01*
X117329434Y-108670566D02*
X117430000Y-108570000D01*
X123529434Y-108670566D02*
X123630000Y-108570000D01*
X129729434Y-108670566D02*
X129830000Y-108570000D01*
X135929434Y-108670566D02*
X136030000Y-108570000D01*
X111129434Y-115970566D02*
X111230000Y-115870000D01*
X117329434Y-115970566D02*
X117430000Y-115870000D01*
X123529434Y-115970566D02*
X123630000Y-115870000D01*
X129729434Y-115970566D02*
X129830000Y-115870000D01*
X135929434Y-115970566D02*
X136030000Y-115870000D01*
X111129434Y-123270566D02*
X111230000Y-123170000D01*
X117329434Y-123270566D02*
X117430000Y-123170000D01*
X123529434Y-123270566D02*
X123630000Y-123170000D01*
X129729434Y-123270566D02*
X129830000Y-123170000D01*
X135929434Y-123270566D02*
X136030000Y-123170000D01*
X117430000Y-93970000D02*
X117850000Y-93970000D01*
X123630000Y-93970000D02*
X124050000Y-93970000D01*
X129830000Y-93970000D02*
X130250000Y-93970000D01*
X136030000Y-93970000D02*
X136450000Y-93970000D01*
X111230000Y-101270000D02*
X111650000Y-101270000D01*
X117430000Y-101270000D02*
X117850000Y-101270000D01*
X123630000Y-101270000D02*
X124050000Y-101270000D01*
X129830000Y-101270000D02*
X130250000Y-101270000D01*
X136030000Y-101270000D02*
X136450000Y-101270000D01*
X111230000Y-108570000D02*
X111650000Y-108570000D01*
X117430000Y-108570000D02*
X117850000Y-108570000D01*
X123630000Y-108570000D02*
X124050000Y-108570000D01*
X129830000Y-108570000D02*
X130250000Y-108570000D01*
X136030000Y-108570000D02*
X136450000Y-108570000D01*
X111230000Y-115870000D02*
X111650000Y-115870000D01*
X117430000Y-115870000D02*
X117850000Y-115870000D01*
X123630000Y-115870000D02*
X124050000Y-115870000D01*
X129830000Y-115870000D02*
X130250000Y-115870000D01*
X136030000Y-115870000D02*
X136450000Y-115870000D01*
X111230000Y-123170000D02*
X111650000Y-123170000D01*
X117430000Y-123170000D02*
X117850000Y-123170000D01*
X123630000Y-123170000D02*
X124050000Y-123170000D01*
X129830000Y-123170000D02*
X130250000Y-123170000D01*
X136030000Y-123170000D02*
X136450000Y-123170000D01*
X116702418Y-94070566D02*
X117329434Y-94070566D01*
X122902418Y-94070566D02*
X123529434Y-94070566D01*
X129102418Y-94070566D02*
X129729434Y-94070566D01*
X135302418Y-94070566D02*
X135929434Y-94070566D01*
X110502418Y-101370566D02*
X111129434Y-101370566D01*
X116702418Y-101370566D02*
X117329434Y-101370566D01*
X122902418Y-101370566D02*
X123529434Y-101370566D01*
X129102418Y-101370566D02*
X129729434Y-101370566D01*
X135302418Y-101370566D02*
X135929434Y-101370566D01*
X110502418Y-108670566D02*
X111129434Y-108670566D01*
X116702418Y-108670566D02*
X117329434Y-108670566D01*
X122902418Y-108670566D02*
X123529434Y-108670566D01*
X129102418Y-108670566D02*
X129729434Y-108670566D01*
X135302418Y-108670566D02*
X135929434Y-108670566D01*
X110502418Y-115970566D02*
X111129434Y-115970566D01*
X116702418Y-115970566D02*
X117329434Y-115970566D01*
X122902418Y-115970566D02*
X123529434Y-115970566D01*
X129102418Y-115970566D02*
X129729434Y-115970566D01*
X135302418Y-115970566D02*
X135929434Y-115970566D01*
X110502418Y-123270566D02*
X111129434Y-123270566D01*
X116702418Y-123270566D02*
X117329434Y-123270566D01*
X122902418Y-123270566D02*
X123529434Y-123270566D01*
X129102418Y-123270566D02*
X129729434Y-123270566D01*
X135302418Y-123270566D02*
X135929434Y-123270566D01*
G04 #@! TO.N,Net-(U1-Pad1)*
X113020000Y-94670000D02*
X112550000Y-94670000D01*
X113697600Y-94800000D02*
X113150000Y-94800000D01*
X113150000Y-94800000D02*
X113020000Y-94670000D01*
X119350000Y-94800000D02*
X119220000Y-94670000D01*
X125550000Y-94800000D02*
X125420000Y-94670000D01*
X131750000Y-94800000D02*
X131620000Y-94670000D01*
X137950000Y-94800000D02*
X137820000Y-94670000D01*
X113150000Y-102100000D02*
X113020000Y-101970000D01*
X119350000Y-102100000D02*
X119220000Y-101970000D01*
X125550000Y-102100000D02*
X125420000Y-101970000D01*
X131750000Y-102100000D02*
X131620000Y-101970000D01*
X137950000Y-102100000D02*
X137820000Y-101970000D01*
X113150000Y-109400000D02*
X113020000Y-109270000D01*
X119350000Y-109400000D02*
X119220000Y-109270000D01*
X125550000Y-109400000D02*
X125420000Y-109270000D01*
X131750000Y-109400000D02*
X131620000Y-109270000D01*
X137950000Y-109400000D02*
X137820000Y-109270000D01*
X113150000Y-116700000D02*
X113020000Y-116570000D01*
X119350000Y-116700000D02*
X119220000Y-116570000D01*
X125550000Y-116700000D02*
X125420000Y-116570000D01*
X131750000Y-116700000D02*
X131620000Y-116570000D01*
X137950000Y-116700000D02*
X137820000Y-116570000D01*
X113150000Y-124000000D02*
X113020000Y-123870000D01*
X119350000Y-124000000D02*
X119220000Y-123870000D01*
X125550000Y-124000000D02*
X125420000Y-123870000D01*
X131750000Y-124000000D02*
X131620000Y-123870000D01*
X137950000Y-124000000D02*
X137820000Y-123870000D01*
X119897600Y-94800000D02*
X119350000Y-94800000D01*
X126097600Y-94800000D02*
X125550000Y-94800000D01*
X132297600Y-94800000D02*
X131750000Y-94800000D01*
X138497600Y-94800000D02*
X137950000Y-94800000D01*
X113697600Y-102100000D02*
X113150000Y-102100000D01*
X119897600Y-102100000D02*
X119350000Y-102100000D01*
X126097600Y-102100000D02*
X125550000Y-102100000D01*
X132297600Y-102100000D02*
X131750000Y-102100000D01*
X138497600Y-102100000D02*
X137950000Y-102100000D01*
X113697600Y-109400000D02*
X113150000Y-109400000D01*
X119897600Y-109400000D02*
X119350000Y-109400000D01*
X126097600Y-109400000D02*
X125550000Y-109400000D01*
X132297600Y-109400000D02*
X131750000Y-109400000D01*
X138497600Y-109400000D02*
X137950000Y-109400000D01*
X113697600Y-116700000D02*
X113150000Y-116700000D01*
X119897600Y-116700000D02*
X119350000Y-116700000D01*
X126097600Y-116700000D02*
X125550000Y-116700000D01*
X132297600Y-116700000D02*
X131750000Y-116700000D01*
X138497600Y-116700000D02*
X137950000Y-116700000D01*
X113697600Y-124000000D02*
X113150000Y-124000000D01*
X119897600Y-124000000D02*
X119350000Y-124000000D01*
X126097600Y-124000000D02*
X125550000Y-124000000D01*
X132297600Y-124000000D02*
X131750000Y-124000000D01*
X138497600Y-124000000D02*
X137950000Y-124000000D01*
X119220000Y-94670000D02*
X118750000Y-94670000D01*
X125420000Y-94670000D02*
X124950000Y-94670000D01*
X131620000Y-94670000D02*
X131150000Y-94670000D01*
X137820000Y-94670000D02*
X137350000Y-94670000D01*
X113020000Y-101970000D02*
X112550000Y-101970000D01*
X119220000Y-101970000D02*
X118750000Y-101970000D01*
X125420000Y-101970000D02*
X124950000Y-101970000D01*
X131620000Y-101970000D02*
X131150000Y-101970000D01*
X137820000Y-101970000D02*
X137350000Y-101970000D01*
X113020000Y-109270000D02*
X112550000Y-109270000D01*
X119220000Y-109270000D02*
X118750000Y-109270000D01*
X125420000Y-109270000D02*
X124950000Y-109270000D01*
X131620000Y-109270000D02*
X131150000Y-109270000D01*
X137820000Y-109270000D02*
X137350000Y-109270000D01*
X113020000Y-116570000D02*
X112550000Y-116570000D01*
X119220000Y-116570000D02*
X118750000Y-116570000D01*
X125420000Y-116570000D02*
X124950000Y-116570000D01*
X131620000Y-116570000D02*
X131150000Y-116570000D01*
X137820000Y-116570000D02*
X137350000Y-116570000D01*
X113020000Y-123870000D02*
X112550000Y-123870000D01*
X119220000Y-123870000D02*
X118750000Y-123870000D01*
X125420000Y-123870000D02*
X124950000Y-123870000D01*
X131620000Y-123870000D02*
X131150000Y-123870000D01*
X137820000Y-123870000D02*
X137350000Y-123870000D01*
G04 #@! TO.N,GND*
X113225000Y-92620000D02*
X113325000Y-92720000D01*
X112100000Y-92620000D02*
X113225000Y-92620000D01*
X110975000Y-92620000D02*
X110875000Y-92720000D01*
X112100000Y-92620000D02*
X110975000Y-92620000D01*
X117175000Y-92620000D02*
X117075000Y-92720000D01*
X123375000Y-92620000D02*
X123275000Y-92720000D01*
X129575000Y-92620000D02*
X129475000Y-92720000D01*
X135775000Y-92620000D02*
X135675000Y-92720000D01*
X110975000Y-99920000D02*
X110875000Y-100020000D01*
X117175000Y-99920000D02*
X117075000Y-100020000D01*
X123375000Y-99920000D02*
X123275000Y-100020000D01*
X129575000Y-99920000D02*
X129475000Y-100020000D01*
X135775000Y-99920000D02*
X135675000Y-100020000D01*
X110975000Y-107220000D02*
X110875000Y-107320000D01*
X117175000Y-107220000D02*
X117075000Y-107320000D01*
X123375000Y-107220000D02*
X123275000Y-107320000D01*
X129575000Y-107220000D02*
X129475000Y-107320000D01*
X135775000Y-107220000D02*
X135675000Y-107320000D01*
X110975000Y-114520000D02*
X110875000Y-114620000D01*
X117175000Y-114520000D02*
X117075000Y-114620000D01*
X123375000Y-114520000D02*
X123275000Y-114620000D01*
X129575000Y-114520000D02*
X129475000Y-114620000D01*
X135775000Y-114520000D02*
X135675000Y-114620000D01*
X110975000Y-121820000D02*
X110875000Y-121920000D01*
X117175000Y-121820000D02*
X117075000Y-121920000D01*
X123375000Y-121820000D02*
X123275000Y-121920000D01*
X129575000Y-121820000D02*
X129475000Y-121920000D01*
X135775000Y-121820000D02*
X135675000Y-121920000D01*
X118300000Y-92620000D02*
X119425000Y-92620000D01*
X124500000Y-92620000D02*
X125625000Y-92620000D01*
X130700000Y-92620000D02*
X131825000Y-92620000D01*
X136900000Y-92620000D02*
X138025000Y-92620000D01*
X112100000Y-99920000D02*
X113225000Y-99920000D01*
X118300000Y-99920000D02*
X119425000Y-99920000D01*
X124500000Y-99920000D02*
X125625000Y-99920000D01*
X130700000Y-99920000D02*
X131825000Y-99920000D01*
X136900000Y-99920000D02*
X138025000Y-99920000D01*
X112100000Y-107220000D02*
X113225000Y-107220000D01*
X118300000Y-107220000D02*
X119425000Y-107220000D01*
X124500000Y-107220000D02*
X125625000Y-107220000D01*
X130700000Y-107220000D02*
X131825000Y-107220000D01*
X136900000Y-107220000D02*
X138025000Y-107220000D01*
X112100000Y-114520000D02*
X113225000Y-114520000D01*
X118300000Y-114520000D02*
X119425000Y-114520000D01*
X124500000Y-114520000D02*
X125625000Y-114520000D01*
X130700000Y-114520000D02*
X131825000Y-114520000D01*
X136900000Y-114520000D02*
X138025000Y-114520000D01*
X112100000Y-121820000D02*
X113225000Y-121820000D01*
X118300000Y-121820000D02*
X119425000Y-121820000D01*
X124500000Y-121820000D02*
X125625000Y-121820000D01*
X130700000Y-121820000D02*
X131825000Y-121820000D01*
X136900000Y-121820000D02*
X138025000Y-121820000D01*
X119425000Y-92620000D02*
X119525000Y-92720000D01*
X125625000Y-92620000D02*
X125725000Y-92720000D01*
X131825000Y-92620000D02*
X131925000Y-92720000D01*
X138025000Y-92620000D02*
X138125000Y-92720000D01*
X113225000Y-99920000D02*
X113325000Y-100020000D01*
X119425000Y-99920000D02*
X119525000Y-100020000D01*
X125625000Y-99920000D02*
X125725000Y-100020000D01*
X131825000Y-99920000D02*
X131925000Y-100020000D01*
X138025000Y-99920000D02*
X138125000Y-100020000D01*
X113225000Y-107220000D02*
X113325000Y-107320000D01*
X119425000Y-107220000D02*
X119525000Y-107320000D01*
X125625000Y-107220000D02*
X125725000Y-107320000D01*
X131825000Y-107220000D02*
X131925000Y-107320000D01*
X138025000Y-107220000D02*
X138125000Y-107320000D01*
X113225000Y-114520000D02*
X113325000Y-114620000D01*
X119425000Y-114520000D02*
X119525000Y-114620000D01*
X125625000Y-114520000D02*
X125725000Y-114620000D01*
X131825000Y-114520000D02*
X131925000Y-114620000D01*
X138025000Y-114520000D02*
X138125000Y-114620000D01*
X113225000Y-121820000D02*
X113325000Y-121920000D01*
X119425000Y-121820000D02*
X119525000Y-121920000D01*
X125625000Y-121820000D02*
X125725000Y-121920000D01*
X131825000Y-121820000D02*
X131925000Y-121920000D01*
X138025000Y-121820000D02*
X138125000Y-121920000D01*
X118300000Y-92620000D02*
X117175000Y-92620000D01*
X124500000Y-92620000D02*
X123375000Y-92620000D01*
X130700000Y-92620000D02*
X129575000Y-92620000D01*
X136900000Y-92620000D02*
X135775000Y-92620000D01*
X112100000Y-99920000D02*
X110975000Y-99920000D01*
X118300000Y-99920000D02*
X117175000Y-99920000D01*
X124500000Y-99920000D02*
X123375000Y-99920000D01*
X130700000Y-99920000D02*
X129575000Y-99920000D01*
X136900000Y-99920000D02*
X135775000Y-99920000D01*
X112100000Y-107220000D02*
X110975000Y-107220000D01*
X118300000Y-107220000D02*
X117175000Y-107220000D01*
X124500000Y-107220000D02*
X123375000Y-107220000D01*
X130700000Y-107220000D02*
X129575000Y-107220000D01*
X136900000Y-107220000D02*
X135775000Y-107220000D01*
X112100000Y-114520000D02*
X110975000Y-114520000D01*
X118300000Y-114520000D02*
X117175000Y-114520000D01*
X124500000Y-114520000D02*
X123375000Y-114520000D01*
X130700000Y-114520000D02*
X129575000Y-114520000D01*
X136900000Y-114520000D02*
X135775000Y-114520000D01*
X112100000Y-121820000D02*
X110975000Y-121820000D01*
X118300000Y-121820000D02*
X117175000Y-121820000D01*
X124500000Y-121820000D02*
X123375000Y-121820000D01*
X130700000Y-121820000D02*
X129575000Y-121820000D01*
X136900000Y-121820000D02*
X135775000Y-121820000D01*
G04 #@! TD*
M02*
