G04 #@! TF.GenerationSoftware,KiCad,Pcbnew,5.0.2-bee76a0~70~ubuntu18.04.1*
G04 #@! TF.CreationDate,2018-12-08T03:46:04+01:00*
G04 #@! TF.ProjectId,simic2matrix_panel_3x3,73696d69-6332-46d6-9174-7269785f7061,rev?*
G04 #@! TF.SameCoordinates,Original*
G04 #@! TF.FileFunction,Legend,Top*
G04 #@! TF.FilePolarity,Positive*
%FSLAX46Y46*%
G04 Gerber Fmt 4.6, Leading zero omitted, Abs format (unit mm)*
G04 Created by KiCad (PCBNEW 5.0.2-bee76a0~70~ubuntu18.04.1) date Sat 08 Dec 2018 03:46:04 CET*
%MOMM*%
%LPD*%
G01*
G04 APERTURE LIST*
%ADD10C,0.150000*%
G04 APERTURE END LIST*
D10*
G04 #@! TO.C,U2*
X122700000Y-124800000D02*
X122700000Y-124300000D01*
X123200000Y-124800000D02*
X122700000Y-124800000D01*
X122700000Y-120200000D02*
X122700000Y-120700000D01*
X122700000Y-120200000D02*
X123200000Y-120200000D01*
X126300000Y-120200000D02*
X125800000Y-120200000D01*
X126300000Y-120200000D02*
X126300000Y-120700000D01*
X126300000Y-124800000D02*
X126300000Y-124300000D01*
X126300000Y-124800000D02*
X125800000Y-124800000D01*
X123200000Y-124800000D02*
X122700000Y-124300000D01*
X116500000Y-124800000D02*
X116500000Y-124300000D01*
X117000000Y-124800000D02*
X116500000Y-124800000D01*
X116500000Y-120200000D02*
X116500000Y-120700000D01*
X116500000Y-120200000D02*
X117000000Y-120200000D01*
X120100000Y-120200000D02*
X119600000Y-120200000D01*
X120100000Y-120200000D02*
X120100000Y-120700000D01*
X120100000Y-124800000D02*
X120100000Y-124300000D01*
X120100000Y-124800000D02*
X119600000Y-124800000D01*
X117000000Y-124800000D02*
X116500000Y-124300000D01*
X110800000Y-124800000D02*
X110300000Y-124300000D01*
X113900000Y-124800000D02*
X113400000Y-124800000D01*
X113900000Y-124800000D02*
X113900000Y-124300000D01*
X113900000Y-120200000D02*
X113900000Y-120700000D01*
X113900000Y-120200000D02*
X113400000Y-120200000D01*
X110300000Y-120200000D02*
X110800000Y-120200000D01*
X110300000Y-120200000D02*
X110300000Y-120700000D01*
X110800000Y-124800000D02*
X110300000Y-124800000D01*
X110300000Y-124800000D02*
X110300000Y-124300000D01*
X122700000Y-117500000D02*
X122700000Y-117000000D01*
X123200000Y-117500000D02*
X122700000Y-117500000D01*
X122700000Y-112900000D02*
X122700000Y-113400000D01*
X122700000Y-112900000D02*
X123200000Y-112900000D01*
X126300000Y-112900000D02*
X125800000Y-112900000D01*
X126300000Y-112900000D02*
X126300000Y-113400000D01*
X126300000Y-117500000D02*
X126300000Y-117000000D01*
X126300000Y-117500000D02*
X125800000Y-117500000D01*
X123200000Y-117500000D02*
X122700000Y-117000000D01*
X116500000Y-117500000D02*
X116500000Y-117000000D01*
X117000000Y-117500000D02*
X116500000Y-117500000D01*
X116500000Y-112900000D02*
X116500000Y-113400000D01*
X116500000Y-112900000D02*
X117000000Y-112900000D01*
X120100000Y-112900000D02*
X119600000Y-112900000D01*
X120100000Y-112900000D02*
X120100000Y-113400000D01*
X120100000Y-117500000D02*
X120100000Y-117000000D01*
X120100000Y-117500000D02*
X119600000Y-117500000D01*
X117000000Y-117500000D02*
X116500000Y-117000000D01*
X110300000Y-117500000D02*
X110300000Y-117000000D01*
X110800000Y-117500000D02*
X110300000Y-117500000D01*
X110300000Y-112900000D02*
X110300000Y-113400000D01*
X110300000Y-112900000D02*
X110800000Y-112900000D01*
X113900000Y-112900000D02*
X113400000Y-112900000D01*
X113900000Y-112900000D02*
X113900000Y-113400000D01*
X113900000Y-117500000D02*
X113900000Y-117000000D01*
X113900000Y-117500000D02*
X113400000Y-117500000D01*
X110800000Y-117500000D02*
X110300000Y-117000000D01*
X122700000Y-110200000D02*
X122700000Y-109700000D01*
X123200000Y-110200000D02*
X122700000Y-110200000D01*
X122700000Y-105600000D02*
X122700000Y-106100000D01*
X122700000Y-105600000D02*
X123200000Y-105600000D01*
X126300000Y-105600000D02*
X125800000Y-105600000D01*
X126300000Y-105600000D02*
X126300000Y-106100000D01*
X126300000Y-110200000D02*
X126300000Y-109700000D01*
X126300000Y-110200000D02*
X125800000Y-110200000D01*
X123200000Y-110200000D02*
X122700000Y-109700000D01*
X116500000Y-110200000D02*
X116500000Y-109700000D01*
X117000000Y-110200000D02*
X116500000Y-110200000D01*
X116500000Y-105600000D02*
X116500000Y-106100000D01*
X116500000Y-105600000D02*
X117000000Y-105600000D01*
X120100000Y-105600000D02*
X119600000Y-105600000D01*
X120100000Y-105600000D02*
X120100000Y-106100000D01*
X120100000Y-110200000D02*
X120100000Y-109700000D01*
X120100000Y-110200000D02*
X119600000Y-110200000D01*
X117000000Y-110200000D02*
X116500000Y-109700000D01*
X110300000Y-110200000D02*
X110300000Y-109700000D01*
X110800000Y-110200000D02*
X110300000Y-110200000D01*
X110300000Y-105600000D02*
X110300000Y-106100000D01*
X110300000Y-105600000D02*
X110800000Y-105600000D01*
X113900000Y-105600000D02*
X113400000Y-105600000D01*
X113900000Y-105600000D02*
X113900000Y-106100000D01*
X113900000Y-110200000D02*
X113900000Y-109700000D01*
X113900000Y-110200000D02*
X113400000Y-110200000D01*
X110800000Y-110200000D02*
X110300000Y-109700000D01*
G04 #@! TD*
M02*
