G04 #@! TF.GenerationSoftware,KiCad,Pcbnew,5.0.2-bee76a0~70~ubuntu18.04.1*
G04 #@! TF.CreationDate,2018-12-08T03:46:04+01:00*
G04 #@! TF.ProjectId,simic2matrix_panel_3x3,73696d69-6332-46d6-9174-7269785f7061,rev?*
G04 #@! TF.SameCoordinates,Original*
G04 #@! TF.FileFunction,Paste,Top*
G04 #@! TF.FilePolarity,Positive*
%FSLAX46Y46*%
G04 Gerber Fmt 4.6, Leading zero omitted, Abs format (unit mm)*
G04 Created by KiCad (PCBNEW 5.0.2-bee76a0~70~ubuntu18.04.1) date Sat 08 Dec 2018 03:46:04 CET*
%MOMM*%
%LPD*%
G01*
G04 APERTURE LIST*
%ADD10C,0.450000*%
%ADD11R,0.597600X0.297600*%
G04 APERTURE END LIST*
D10*
G04 #@! TO.C,U2*
X124224674Y-122576453D02*
G75*
G03X124500000Y-122625000I275326J756453D01*
G01*
X125017444Y-122436666D02*
G75*
G03X125197150Y-122222500I-517444J616666D01*
G01*
X125292770Y-121680213D02*
G75*
G03X125197150Y-121417500I-792770J-139787D01*
G01*
X124775326Y-121063547D02*
G75*
G03X124500000Y-121015000I-275326J-756453D01*
G01*
X123982556Y-121203334D02*
G75*
G03X123802850Y-121417500I517444J-616666D01*
G01*
X123707230Y-121959787D02*
G75*
G03X123802850Y-122222500I792770J139787D01*
G01*
X118024674Y-122576453D02*
G75*
G03X118300000Y-122625000I275326J756453D01*
G01*
X118817444Y-122436666D02*
G75*
G03X118997150Y-122222500I-517444J616666D01*
G01*
X119092770Y-121680213D02*
G75*
G03X118997150Y-121417500I-792770J-139787D01*
G01*
X118575326Y-121063547D02*
G75*
G03X118300000Y-121015000I-275326J-756453D01*
G01*
X117782556Y-121203334D02*
G75*
G03X117602850Y-121417500I517444J-616666D01*
G01*
X117507230Y-121959787D02*
G75*
G03X117602850Y-122222500I792770J139787D01*
G01*
X111307230Y-121959787D02*
G75*
G03X111402850Y-122222500I792770J139787D01*
G01*
X111582556Y-121203334D02*
G75*
G03X111402850Y-121417500I517444J-616666D01*
G01*
X112375326Y-121063547D02*
G75*
G03X112100000Y-121015000I-275326J-756453D01*
G01*
X112892770Y-121680213D02*
G75*
G03X112797150Y-121417500I-792770J-139787D01*
G01*
X112617444Y-122436666D02*
G75*
G03X112797150Y-122222500I-517444J616666D01*
G01*
X111824674Y-122576453D02*
G75*
G03X112100000Y-122625000I275326J756453D01*
G01*
X124224674Y-115276453D02*
G75*
G03X124500000Y-115325000I275326J756453D01*
G01*
X125017444Y-115136666D02*
G75*
G03X125197150Y-114922500I-517444J616666D01*
G01*
X125292770Y-114380213D02*
G75*
G03X125197150Y-114117500I-792770J-139787D01*
G01*
X124775326Y-113763547D02*
G75*
G03X124500000Y-113715000I-275326J-756453D01*
G01*
X123982556Y-113903334D02*
G75*
G03X123802850Y-114117500I517444J-616666D01*
G01*
X123707230Y-114659787D02*
G75*
G03X123802850Y-114922500I792770J139787D01*
G01*
X118024674Y-115276453D02*
G75*
G03X118300000Y-115325000I275326J756453D01*
G01*
X118817444Y-115136666D02*
G75*
G03X118997150Y-114922500I-517444J616666D01*
G01*
X119092770Y-114380213D02*
G75*
G03X118997150Y-114117500I-792770J-139787D01*
G01*
X118575326Y-113763547D02*
G75*
G03X118300000Y-113715000I-275326J-756453D01*
G01*
X117782556Y-113903334D02*
G75*
G03X117602850Y-114117500I517444J-616666D01*
G01*
X117507230Y-114659787D02*
G75*
G03X117602850Y-114922500I792770J139787D01*
G01*
X111824674Y-115276453D02*
G75*
G03X112100000Y-115325000I275326J756453D01*
G01*
X112617444Y-115136666D02*
G75*
G03X112797150Y-114922500I-517444J616666D01*
G01*
X112892770Y-114380213D02*
G75*
G03X112797150Y-114117500I-792770J-139787D01*
G01*
X112375326Y-113763547D02*
G75*
G03X112100000Y-113715000I-275326J-756453D01*
G01*
X111582556Y-113903334D02*
G75*
G03X111402850Y-114117500I517444J-616666D01*
G01*
X111307230Y-114659787D02*
G75*
G03X111402850Y-114922500I792770J139787D01*
G01*
X124224674Y-107976453D02*
G75*
G03X124500000Y-108025000I275326J756453D01*
G01*
X125017444Y-107836666D02*
G75*
G03X125197150Y-107622500I-517444J616666D01*
G01*
X125292770Y-107080213D02*
G75*
G03X125197150Y-106817500I-792770J-139787D01*
G01*
X124775326Y-106463547D02*
G75*
G03X124500000Y-106415000I-275326J-756453D01*
G01*
X123982556Y-106603334D02*
G75*
G03X123802850Y-106817500I517444J-616666D01*
G01*
X123707230Y-107359787D02*
G75*
G03X123802850Y-107622500I792770J139787D01*
G01*
X118024674Y-107976453D02*
G75*
G03X118300000Y-108025000I275326J756453D01*
G01*
X118817444Y-107836666D02*
G75*
G03X118997150Y-107622500I-517444J616666D01*
G01*
X119092770Y-107080213D02*
G75*
G03X118997150Y-106817500I-792770J-139787D01*
G01*
X118575326Y-106463547D02*
G75*
G03X118300000Y-106415000I-275326J-756453D01*
G01*
X117782556Y-106603334D02*
G75*
G03X117602850Y-106817500I517444J-616666D01*
G01*
X117507230Y-107359787D02*
G75*
G03X117602850Y-107622500I792770J139787D01*
G01*
X111824674Y-107976453D02*
G75*
G03X112100000Y-108025000I275326J756453D01*
G01*
X112617444Y-107836666D02*
G75*
G03X112797150Y-107622500I-517444J616666D01*
G01*
X112892770Y-107080213D02*
G75*
G03X112797150Y-106817500I-792770J-139787D01*
G01*
X112375326Y-106463547D02*
G75*
G03X112100000Y-106415000I-275326J-756453D01*
G01*
X111582556Y-106603334D02*
G75*
G03X111402850Y-106817500I517444J-616666D01*
G01*
X111307230Y-107359787D02*
G75*
G03X111402850Y-107622500I792770J139787D01*
G01*
G04 #@! TD*
D11*
G04 #@! TO.C,U2*
X123650000Y-124000000D03*
X125350000Y-124000000D03*
X125350000Y-123300000D03*
X123650000Y-123300000D03*
G04 #@! TD*
G04 #@! TO.C,U2*
X117450000Y-124000000D03*
X119150000Y-124000000D03*
X119150000Y-123300000D03*
X117450000Y-123300000D03*
G04 #@! TD*
G04 #@! TO.C,U2*
X111250000Y-123300000D03*
X112950000Y-123300000D03*
X112950000Y-124000000D03*
X111250000Y-124000000D03*
G04 #@! TD*
G04 #@! TO.C,U2*
X123650000Y-116700000D03*
X125350000Y-116700000D03*
X125350000Y-116000000D03*
X123650000Y-116000000D03*
G04 #@! TD*
G04 #@! TO.C,U2*
X117450000Y-116700000D03*
X119150000Y-116700000D03*
X119150000Y-116000000D03*
X117450000Y-116000000D03*
G04 #@! TD*
G04 #@! TO.C,U2*
X111250000Y-116700000D03*
X112950000Y-116700000D03*
X112950000Y-116000000D03*
X111250000Y-116000000D03*
G04 #@! TD*
G04 #@! TO.C,U2*
X123650000Y-109400000D03*
X125350000Y-109400000D03*
X125350000Y-108700000D03*
X123650000Y-108700000D03*
G04 #@! TD*
G04 #@! TO.C,U2*
X117450000Y-109400000D03*
X119150000Y-109400000D03*
X119150000Y-108700000D03*
X117450000Y-108700000D03*
G04 #@! TD*
G04 #@! TO.C,U2*
X111250000Y-109400000D03*
X112950000Y-109400000D03*
X112950000Y-108700000D03*
X111250000Y-108700000D03*
G04 #@! TD*
M02*
