G04 #@! TF.GenerationSoftware,KiCad,Pcbnew,5.0.2-bee76a0~70~ubuntu18.04.1*
G04 #@! TF.CreationDate,2018-12-08T03:46:04+01:00*
G04 #@! TF.ProjectId,simic2matrix_panel_3x3,73696d69-6332-46d6-9174-7269785f7061,rev?*
G04 #@! TF.SameCoordinates,Original*
G04 #@! TF.FileFunction,Paste,Bot*
G04 #@! TF.FilePolarity,Positive*
%FSLAX46Y46*%
G04 Gerber Fmt 4.6, Leading zero omitted, Abs format (unit mm)*
G04 Created by KiCad (PCBNEW 5.0.2-bee76a0~70~ubuntu18.04.1) date Sat 08 Dec 2018 03:46:04 CET*
%MOMM*%
%LPD*%
G01*
G04 APERTURE LIST*
%ADD10R,0.447600X0.247600*%
%ADD11C,0.197600*%
%ADD12C,0.100000*%
%ADD13R,0.197600X1.847600*%
G04 APERTURE END LIST*
D10*
G04 #@! TO.C,U1*
X124950000Y-123870000D03*
X124050000Y-123870000D03*
X124950000Y-123170000D03*
X124050000Y-123170000D03*
D11*
X124325000Y-124545000D03*
D12*
G36*
X125766036Y-124446200D02*
X125626200Y-124586036D01*
X125626200Y-124450439D01*
X125766036Y-124446200D01*
X125766036Y-124446200D01*
G37*
G36*
X125626200Y-124446200D02*
X125626200Y-124450439D01*
X125612211Y-124450863D01*
X125626200Y-124446200D01*
X125626200Y-124446200D01*
G37*
G36*
X125473800Y-124446200D02*
X125473800Y-124455059D01*
X125612211Y-124450863D01*
X125473800Y-124497000D01*
X125473800Y-124643800D01*
X123176200Y-124643800D01*
X123176200Y-124446200D01*
X125473800Y-124446200D01*
X125473800Y-124446200D01*
G37*
D13*
X125725000Y-121920000D03*
X123275000Y-121920000D03*
G04 #@! TD*
D10*
G04 #@! TO.C,U1*
X118750000Y-123870000D03*
X117850000Y-123870000D03*
X118750000Y-123170000D03*
X117850000Y-123170000D03*
D11*
X118125000Y-124545000D03*
D12*
G36*
X119566036Y-124446200D02*
X119426200Y-124586036D01*
X119426200Y-124450439D01*
X119566036Y-124446200D01*
X119566036Y-124446200D01*
G37*
G36*
X119426200Y-124446200D02*
X119426200Y-124450439D01*
X119412211Y-124450863D01*
X119426200Y-124446200D01*
X119426200Y-124446200D01*
G37*
G36*
X119273800Y-124446200D02*
X119273800Y-124455059D01*
X119412211Y-124450863D01*
X119273800Y-124497000D01*
X119273800Y-124643800D01*
X116976200Y-124643800D01*
X116976200Y-124446200D01*
X119273800Y-124446200D01*
X119273800Y-124446200D01*
G37*
D13*
X119525000Y-121920000D03*
X117075000Y-121920000D03*
G04 #@! TD*
D10*
G04 #@! TO.C,U1*
X112550000Y-123870000D03*
X111650000Y-123870000D03*
X112550000Y-123170000D03*
X111650000Y-123170000D03*
D11*
X111925000Y-124545000D03*
D12*
G36*
X113366036Y-124446200D02*
X113226200Y-124586036D01*
X113226200Y-124450439D01*
X113366036Y-124446200D01*
X113366036Y-124446200D01*
G37*
G36*
X113226200Y-124446200D02*
X113226200Y-124450439D01*
X113212211Y-124450863D01*
X113226200Y-124446200D01*
X113226200Y-124446200D01*
G37*
G36*
X113073800Y-124446200D02*
X113073800Y-124455059D01*
X113212211Y-124450863D01*
X113073800Y-124497000D01*
X113073800Y-124643800D01*
X110776200Y-124643800D01*
X110776200Y-124446200D01*
X113073800Y-124446200D01*
X113073800Y-124446200D01*
G37*
D13*
X113325000Y-121920000D03*
X110875000Y-121920000D03*
G04 #@! TD*
D10*
G04 #@! TO.C,U1*
X124950000Y-116570000D03*
X124050000Y-116570000D03*
X124950000Y-115870000D03*
X124050000Y-115870000D03*
D11*
X124325000Y-117245000D03*
D12*
G36*
X125766036Y-117146200D02*
X125626200Y-117286036D01*
X125626200Y-117150439D01*
X125766036Y-117146200D01*
X125766036Y-117146200D01*
G37*
G36*
X125626200Y-117146200D02*
X125626200Y-117150439D01*
X125612211Y-117150863D01*
X125626200Y-117146200D01*
X125626200Y-117146200D01*
G37*
G36*
X125473800Y-117146200D02*
X125473800Y-117155059D01*
X125612211Y-117150863D01*
X125473800Y-117197000D01*
X125473800Y-117343800D01*
X123176200Y-117343800D01*
X123176200Y-117146200D01*
X125473800Y-117146200D01*
X125473800Y-117146200D01*
G37*
D13*
X125725000Y-114620000D03*
X123275000Y-114620000D03*
G04 #@! TD*
D10*
G04 #@! TO.C,U1*
X118750000Y-116570000D03*
X117850000Y-116570000D03*
X118750000Y-115870000D03*
X117850000Y-115870000D03*
D11*
X118125000Y-117245000D03*
D12*
G36*
X119566036Y-117146200D02*
X119426200Y-117286036D01*
X119426200Y-117150439D01*
X119566036Y-117146200D01*
X119566036Y-117146200D01*
G37*
G36*
X119426200Y-117146200D02*
X119426200Y-117150439D01*
X119412211Y-117150863D01*
X119426200Y-117146200D01*
X119426200Y-117146200D01*
G37*
G36*
X119273800Y-117146200D02*
X119273800Y-117155059D01*
X119412211Y-117150863D01*
X119273800Y-117197000D01*
X119273800Y-117343800D01*
X116976200Y-117343800D01*
X116976200Y-117146200D01*
X119273800Y-117146200D01*
X119273800Y-117146200D01*
G37*
D13*
X119525000Y-114620000D03*
X117075000Y-114620000D03*
G04 #@! TD*
D10*
G04 #@! TO.C,U1*
X112550000Y-116570000D03*
X111650000Y-116570000D03*
X112550000Y-115870000D03*
X111650000Y-115870000D03*
D11*
X111925000Y-117245000D03*
D12*
G36*
X113366036Y-117146200D02*
X113226200Y-117286036D01*
X113226200Y-117150439D01*
X113366036Y-117146200D01*
X113366036Y-117146200D01*
G37*
G36*
X113226200Y-117146200D02*
X113226200Y-117150439D01*
X113212211Y-117150863D01*
X113226200Y-117146200D01*
X113226200Y-117146200D01*
G37*
G36*
X113073800Y-117146200D02*
X113073800Y-117155059D01*
X113212211Y-117150863D01*
X113073800Y-117197000D01*
X113073800Y-117343800D01*
X110776200Y-117343800D01*
X110776200Y-117146200D01*
X113073800Y-117146200D01*
X113073800Y-117146200D01*
G37*
D13*
X113325000Y-114620000D03*
X110875000Y-114620000D03*
G04 #@! TD*
D10*
G04 #@! TO.C,U1*
X124950000Y-109270000D03*
X124050000Y-109270000D03*
X124950000Y-108570000D03*
X124050000Y-108570000D03*
D11*
X124325000Y-109945000D03*
D12*
G36*
X125766036Y-109846200D02*
X125626200Y-109986036D01*
X125626200Y-109850439D01*
X125766036Y-109846200D01*
X125766036Y-109846200D01*
G37*
G36*
X125626200Y-109846200D02*
X125626200Y-109850439D01*
X125612211Y-109850863D01*
X125626200Y-109846200D01*
X125626200Y-109846200D01*
G37*
G36*
X125473800Y-109846200D02*
X125473800Y-109855059D01*
X125612211Y-109850863D01*
X125473800Y-109897000D01*
X125473800Y-110043800D01*
X123176200Y-110043800D01*
X123176200Y-109846200D01*
X125473800Y-109846200D01*
X125473800Y-109846200D01*
G37*
D13*
X125725000Y-107320000D03*
X123275000Y-107320000D03*
G04 #@! TD*
D10*
G04 #@! TO.C,U1*
X118750000Y-109270000D03*
X117850000Y-109270000D03*
X118750000Y-108570000D03*
X117850000Y-108570000D03*
D11*
X118125000Y-109945000D03*
D12*
G36*
X119566036Y-109846200D02*
X119426200Y-109986036D01*
X119426200Y-109850439D01*
X119566036Y-109846200D01*
X119566036Y-109846200D01*
G37*
G36*
X119426200Y-109846200D02*
X119426200Y-109850439D01*
X119412211Y-109850863D01*
X119426200Y-109846200D01*
X119426200Y-109846200D01*
G37*
G36*
X119273800Y-109846200D02*
X119273800Y-109855059D01*
X119412211Y-109850863D01*
X119273800Y-109897000D01*
X119273800Y-110043800D01*
X116976200Y-110043800D01*
X116976200Y-109846200D01*
X119273800Y-109846200D01*
X119273800Y-109846200D01*
G37*
D13*
X119525000Y-107320000D03*
X117075000Y-107320000D03*
G04 #@! TD*
D10*
G04 #@! TO.C,U1*
X112550000Y-109270000D03*
X111650000Y-109270000D03*
X112550000Y-108570000D03*
X111650000Y-108570000D03*
D11*
X111925000Y-109945000D03*
D12*
G36*
X113366036Y-109846200D02*
X113226200Y-109986036D01*
X113226200Y-109850439D01*
X113366036Y-109846200D01*
X113366036Y-109846200D01*
G37*
G36*
X113226200Y-109846200D02*
X113226200Y-109850439D01*
X113212211Y-109850863D01*
X113226200Y-109846200D01*
X113226200Y-109846200D01*
G37*
G36*
X113073800Y-109846200D02*
X113073800Y-109855059D01*
X113212211Y-109850863D01*
X113073800Y-109897000D01*
X113073800Y-110043800D01*
X110776200Y-110043800D01*
X110776200Y-109846200D01*
X113073800Y-109846200D01*
X113073800Y-109846200D01*
G37*
D13*
X113325000Y-107320000D03*
X110875000Y-107320000D03*
G04 #@! TD*
M02*
