G04 #@! TF.GenerationSoftware,KiCad,Pcbnew,5.0.2-bee76a0~70~ubuntu18.04.1*
G04 #@! TF.CreationDate,2018-12-08T03:46:04+01:00*
G04 #@! TF.ProjectId,simic2matrix_panel_3x3,73696d69-6332-46d6-9174-7269785f7061,rev?*
G04 #@! TF.SameCoordinates,Original*
G04 #@! TF.FileFunction,Copper,L1,Top*
G04 #@! TF.FilePolarity,Positive*
%FSLAX46Y46*%
G04 Gerber Fmt 4.6, Leading zero omitted, Abs format (unit mm)*
G04 Created by KiCad (PCBNEW 5.0.2-bee76a0~70~ubuntu18.04.1) date Sat 08 Dec 2018 03:46:04 CET*
%MOMM*%
%LPD*%
G01*
G04 APERTURE LIST*
G04 #@! TA.AperFunction,ViaPad*
%ADD10C,2.060000*%
G04 #@! TD*
G04 #@! TA.AperFunction,SMDPad,CuDef*
%ADD11R,0.750000X0.450000*%
G04 #@! TD*
G04 #@! TA.AperFunction,ViaPad*
%ADD12C,0.500000*%
G04 #@! TD*
G04 #@! TA.AperFunction,Conductor*
%ADD13C,0.152400*%
G04 #@! TD*
G04 APERTURE END LIST*
D10*
G04 #@! TO.N,GND*
G04 #@! TO.C,U2*
X124500000Y-121820000D03*
D11*
G04 #@! TD*
G04 #@! TO.P,U2,1*
G04 #@! TO.N,Net-(U1-Pad4)*
X123650000Y-124000000D03*
G04 #@! TO.P,U2,3*
G04 #@! TO.N,Net-(U1-Pad1)*
X125350000Y-124000000D03*
G04 #@! TO.P,U2,4*
G04 #@! TO.N,Net-(U1-Pad2)*
X125350000Y-123300000D03*
G04 #@! TO.P,U2,2*
G04 #@! TO.N,Net-(U1-Pad3)*
X123650000Y-123300000D03*
G04 #@! TD*
D10*
G04 #@! TO.N,GND*
G04 #@! TO.C,U2*
X118300000Y-121820000D03*
D11*
G04 #@! TD*
G04 #@! TO.P,U2,1*
G04 #@! TO.N,Net-(U1-Pad4)*
X117450000Y-124000000D03*
G04 #@! TO.P,U2,3*
G04 #@! TO.N,Net-(U1-Pad1)*
X119150000Y-124000000D03*
G04 #@! TO.P,U2,4*
G04 #@! TO.N,Net-(U1-Pad2)*
X119150000Y-123300000D03*
G04 #@! TO.P,U2,2*
G04 #@! TO.N,Net-(U1-Pad3)*
X117450000Y-123300000D03*
G04 #@! TD*
G04 #@! TO.P,U2,2*
G04 #@! TO.N,Net-(U1-Pad3)*
X111250000Y-123300000D03*
G04 #@! TO.P,U2,4*
G04 #@! TO.N,Net-(U1-Pad2)*
X112950000Y-123300000D03*
G04 #@! TO.P,U2,3*
G04 #@! TO.N,Net-(U1-Pad1)*
X112950000Y-124000000D03*
G04 #@! TO.P,U2,1*
G04 #@! TO.N,Net-(U1-Pad4)*
X111250000Y-124000000D03*
D10*
G04 #@! TD*
G04 #@! TO.N,GND*
G04 #@! TO.C,U2*
X112100000Y-121820000D03*
G04 #@! TO.N,GND*
G04 #@! TO.C,U2*
X124500000Y-114520000D03*
D11*
G04 #@! TD*
G04 #@! TO.P,U2,1*
G04 #@! TO.N,Net-(U1-Pad4)*
X123650000Y-116700000D03*
G04 #@! TO.P,U2,3*
G04 #@! TO.N,Net-(U1-Pad1)*
X125350000Y-116700000D03*
G04 #@! TO.P,U2,4*
G04 #@! TO.N,Net-(U1-Pad2)*
X125350000Y-116000000D03*
G04 #@! TO.P,U2,2*
G04 #@! TO.N,Net-(U1-Pad3)*
X123650000Y-116000000D03*
G04 #@! TD*
D10*
G04 #@! TO.N,GND*
G04 #@! TO.C,U2*
X118300000Y-114520000D03*
D11*
G04 #@! TD*
G04 #@! TO.P,U2,1*
G04 #@! TO.N,Net-(U1-Pad4)*
X117450000Y-116700000D03*
G04 #@! TO.P,U2,3*
G04 #@! TO.N,Net-(U1-Pad1)*
X119150000Y-116700000D03*
G04 #@! TO.P,U2,4*
G04 #@! TO.N,Net-(U1-Pad2)*
X119150000Y-116000000D03*
G04 #@! TO.P,U2,2*
G04 #@! TO.N,Net-(U1-Pad3)*
X117450000Y-116000000D03*
G04 #@! TD*
D10*
G04 #@! TO.N,GND*
G04 #@! TO.C,U2*
X112100000Y-114520000D03*
D11*
G04 #@! TD*
G04 #@! TO.P,U2,1*
G04 #@! TO.N,Net-(U1-Pad4)*
X111250000Y-116700000D03*
G04 #@! TO.P,U2,3*
G04 #@! TO.N,Net-(U1-Pad1)*
X112950000Y-116700000D03*
G04 #@! TO.P,U2,4*
G04 #@! TO.N,Net-(U1-Pad2)*
X112950000Y-116000000D03*
G04 #@! TO.P,U2,2*
G04 #@! TO.N,Net-(U1-Pad3)*
X111250000Y-116000000D03*
G04 #@! TD*
D10*
G04 #@! TO.N,GND*
G04 #@! TO.C,U2*
X124500000Y-107220000D03*
D11*
G04 #@! TD*
G04 #@! TO.P,U2,1*
G04 #@! TO.N,Net-(U1-Pad4)*
X123650000Y-109400000D03*
G04 #@! TO.P,U2,3*
G04 #@! TO.N,Net-(U1-Pad1)*
X125350000Y-109400000D03*
G04 #@! TO.P,U2,4*
G04 #@! TO.N,Net-(U1-Pad2)*
X125350000Y-108700000D03*
G04 #@! TO.P,U2,2*
G04 #@! TO.N,Net-(U1-Pad3)*
X123650000Y-108700000D03*
G04 #@! TD*
D10*
G04 #@! TO.N,GND*
G04 #@! TO.C,U2*
X118300000Y-107220000D03*
D11*
G04 #@! TD*
G04 #@! TO.P,U2,1*
G04 #@! TO.N,Net-(U1-Pad4)*
X117450000Y-109400000D03*
G04 #@! TO.P,U2,3*
G04 #@! TO.N,Net-(U1-Pad1)*
X119150000Y-109400000D03*
G04 #@! TO.P,U2,4*
G04 #@! TO.N,Net-(U1-Pad2)*
X119150000Y-108700000D03*
G04 #@! TO.P,U2,2*
G04 #@! TO.N,Net-(U1-Pad3)*
X117450000Y-108700000D03*
G04 #@! TD*
D10*
G04 #@! TO.N,GND*
G04 #@! TO.C,U2*
X112100000Y-107220000D03*
D11*
G04 #@! TD*
G04 #@! TO.P,U2,1*
G04 #@! TO.N,Net-(U1-Pad4)*
X111250000Y-109400000D03*
G04 #@! TO.P,U2,3*
G04 #@! TO.N,Net-(U1-Pad1)*
X112950000Y-109400000D03*
G04 #@! TO.P,U2,4*
G04 #@! TO.N,Net-(U1-Pad2)*
X112950000Y-108700000D03*
G04 #@! TO.P,U2,2*
G04 #@! TO.N,Net-(U1-Pad3)*
X111250000Y-108700000D03*
G04 #@! TD*
D12*
G04 #@! TO.N,*
X112100000Y-112400000D03*
X118300000Y-112400000D03*
X124500000Y-112400000D03*
X112100000Y-119700000D03*
X118300000Y-119700000D03*
X124500000Y-119700000D03*
X111100000Y-110800000D03*
X117300000Y-110800000D03*
X123500000Y-110800000D03*
X111100000Y-118100000D03*
X117300000Y-118100000D03*
X123500000Y-118100000D03*
X116000000Y-106950000D03*
X122200000Y-106950000D03*
X116000000Y-114250000D03*
X122200000Y-114250000D03*
X116000000Y-121550000D03*
X122200000Y-121550000D03*
X112600000Y-110800000D03*
X118800000Y-110800000D03*
X125000000Y-110800000D03*
X112600000Y-118100000D03*
X118800000Y-118100000D03*
X125000000Y-118100000D03*
X111600000Y-110800000D03*
X117800000Y-110800000D03*
X124000000Y-110800000D03*
X111600000Y-118100000D03*
X117800000Y-118100000D03*
X124000000Y-118100000D03*
X116000000Y-108950000D03*
X122200000Y-108950000D03*
X116000000Y-116250000D03*
X122200000Y-116250000D03*
X116000000Y-123550000D03*
X122200000Y-123550000D03*
X114400000Y-109450000D03*
X120600000Y-109450000D03*
X114400000Y-116750000D03*
X120600000Y-116750000D03*
X114400000Y-124050000D03*
X120600000Y-124050000D03*
X114400000Y-106450000D03*
X120600000Y-106450000D03*
X114400000Y-113750000D03*
X120600000Y-113750000D03*
X114400000Y-121050000D03*
X120600000Y-121050000D03*
X116000000Y-108450000D03*
X122200000Y-108450000D03*
X116000000Y-115750000D03*
X122200000Y-115750000D03*
X116000000Y-123050000D03*
X122200000Y-123050000D03*
X114400000Y-106950000D03*
X120600000Y-106950000D03*
X114400000Y-114250000D03*
X120600000Y-114250000D03*
X114400000Y-121550000D03*
X120600000Y-121550000D03*
X112600000Y-112400000D03*
X118800000Y-112400000D03*
X125000000Y-112400000D03*
X112600000Y-119700000D03*
X118800000Y-119700000D03*
X125000000Y-119700000D03*
X111100000Y-110800000D03*
X117300000Y-110800000D03*
X123500000Y-110800000D03*
X111100000Y-118100000D03*
X117300000Y-118100000D03*
X123500000Y-118100000D03*
X113100000Y-110800000D03*
X119300000Y-110800000D03*
X125500000Y-110800000D03*
X113100000Y-118100000D03*
X119300000Y-118100000D03*
X125500000Y-118100000D03*
X111600000Y-112400000D03*
X117800000Y-112400000D03*
X124000000Y-112400000D03*
X111600000Y-119700000D03*
X117800000Y-119700000D03*
X124000000Y-119700000D03*
X111100000Y-112400000D03*
X117300000Y-112400000D03*
X123500000Y-112400000D03*
X111100000Y-119700000D03*
X117300000Y-119700000D03*
X123500000Y-119700000D03*
X114400000Y-108450000D03*
X120600000Y-108450000D03*
X114400000Y-115750000D03*
X120600000Y-115750000D03*
X114400000Y-123050000D03*
X120600000Y-123050000D03*
X112100000Y-110800000D03*
X118300000Y-110800000D03*
X124500000Y-110800000D03*
X112100000Y-118100000D03*
X118300000Y-118100000D03*
X124500000Y-118100000D03*
X116000000Y-106450000D03*
X122200000Y-106450000D03*
X116000000Y-113750000D03*
X122200000Y-113750000D03*
X116000000Y-121050000D03*
X122200000Y-121050000D03*
X116000000Y-107450000D03*
X122200000Y-107450000D03*
X116000000Y-114750000D03*
X122200000Y-114750000D03*
X116000000Y-122050000D03*
X122200000Y-122050000D03*
X116000000Y-107950000D03*
X122200000Y-107950000D03*
X116000000Y-115250000D03*
X122200000Y-115250000D03*
X116000000Y-122550000D03*
X122200000Y-122550000D03*
X114400000Y-107950000D03*
X120600000Y-107950000D03*
X114400000Y-115250000D03*
X120600000Y-115250000D03*
X114400000Y-122550000D03*
X120600000Y-122550000D03*
X114400000Y-107450000D03*
X120600000Y-107450000D03*
X114400000Y-114750000D03*
X120600000Y-114750000D03*
X114400000Y-122050000D03*
X120600000Y-122050000D03*
X113100000Y-112400000D03*
X119300000Y-112400000D03*
X125500000Y-112400000D03*
X113100000Y-119700000D03*
X119300000Y-119700000D03*
X125500000Y-119700000D03*
X111100000Y-110800000D03*
X117300000Y-110800000D03*
X123500000Y-110800000D03*
X111100000Y-118100000D03*
X117300000Y-118100000D03*
X123500000Y-118100000D03*
X114400000Y-108950000D03*
X120600000Y-108950000D03*
X114400000Y-116250000D03*
X120600000Y-116250000D03*
X114400000Y-123550000D03*
X120600000Y-123550000D03*
X116000000Y-109450000D03*
X122200000Y-109450000D03*
X116000000Y-116750000D03*
X122200000Y-116750000D03*
X116000000Y-124050000D03*
X122200000Y-124050000D03*
G04 #@! TO.N,Net-(U1-Pad2)*
X113697599Y-108670558D03*
X119897599Y-108670558D03*
X126097599Y-108670558D03*
X113697599Y-115970558D03*
X119897599Y-115970558D03*
X126097599Y-115970558D03*
X113697599Y-123270558D03*
X119897599Y-123270558D03*
X126097599Y-123270558D03*
G04 #@! TO.N,Net-(U1-Pad4)*
X110502400Y-109400000D03*
X116702400Y-109400000D03*
X122902400Y-109400000D03*
X110502400Y-116700000D03*
X116702400Y-116700000D03*
X122902400Y-116700000D03*
X110502400Y-124000000D03*
X116702400Y-124000000D03*
X122902400Y-124000000D03*
G04 #@! TO.N,Net-(U1-Pad3)*
X110502418Y-108670566D03*
X116702418Y-108670566D03*
X122902418Y-108670566D03*
X110502418Y-115970566D03*
X116702418Y-115970566D03*
X122902418Y-115970566D03*
X110502418Y-123270566D03*
X116702418Y-123270566D03*
X122902418Y-123270566D03*
G04 #@! TO.N,Net-(U1-Pad1)*
X113697600Y-109400000D03*
X119897600Y-109400000D03*
X126097600Y-109400000D03*
X113697600Y-116700000D03*
X119897600Y-116700000D03*
X126097600Y-116700000D03*
X113697600Y-124000000D03*
X119897600Y-124000000D03*
X126097600Y-124000000D03*
G04 #@! TO.N,GND*
X112100000Y-110097600D03*
X118300000Y-110097600D03*
X124500000Y-110097600D03*
X112100000Y-117397600D03*
X118300000Y-117397600D03*
X124500000Y-117397600D03*
X112100000Y-124697600D03*
X118300000Y-124697600D03*
X124500000Y-124697600D03*
G04 #@! TD*
D13*
G04 #@! TO.N,Net-(U1-Pad2)*
X113668157Y-108700000D02*
X113697599Y-108670558D01*
X119868157Y-108700000D02*
X119897599Y-108670558D01*
X126068157Y-108700000D02*
X126097599Y-108670558D01*
X113668157Y-116000000D02*
X113697599Y-115970558D01*
X119868157Y-116000000D02*
X119897599Y-115970558D01*
X126068157Y-116000000D02*
X126097599Y-115970558D01*
X113668157Y-123300000D02*
X113697599Y-123270558D01*
X119868157Y-123300000D02*
X119897599Y-123270558D01*
X126068157Y-123300000D02*
X126097599Y-123270558D01*
X112950000Y-108700000D02*
X113668157Y-108700000D01*
X119150000Y-108700000D02*
X119868157Y-108700000D01*
X125350000Y-108700000D02*
X126068157Y-108700000D01*
X112950000Y-116000000D02*
X113668157Y-116000000D01*
X119150000Y-116000000D02*
X119868157Y-116000000D01*
X125350000Y-116000000D02*
X126068157Y-116000000D01*
X112950000Y-123300000D02*
X113668157Y-123300000D01*
X119150000Y-123300000D02*
X119868157Y-123300000D01*
X125350000Y-123300000D02*
X126068157Y-123300000D01*
G04 #@! TO.N,Net-(U1-Pad4)*
X111250000Y-109400000D02*
X110502400Y-109400000D01*
X117450000Y-109400000D02*
X116702400Y-109400000D01*
X123650000Y-109400000D02*
X122902400Y-109400000D01*
X111250000Y-116700000D02*
X110502400Y-116700000D01*
X117450000Y-116700000D02*
X116702400Y-116700000D01*
X123650000Y-116700000D02*
X122902400Y-116700000D01*
X111250000Y-124000000D02*
X110502400Y-124000000D01*
X117450000Y-124000000D02*
X116702400Y-124000000D01*
X123650000Y-124000000D02*
X122902400Y-124000000D01*
G04 #@! TO.N,Net-(U1-Pad3)*
X110531852Y-108700000D02*
X110502418Y-108670566D01*
X116731852Y-108700000D02*
X116702418Y-108670566D01*
X122931852Y-108700000D02*
X122902418Y-108670566D01*
X110531852Y-116000000D02*
X110502418Y-115970566D01*
X116731852Y-116000000D02*
X116702418Y-115970566D01*
X122931852Y-116000000D02*
X122902418Y-115970566D01*
X110531852Y-123300000D02*
X110502418Y-123270566D01*
X116731852Y-123300000D02*
X116702418Y-123270566D01*
X122931852Y-123300000D02*
X122902418Y-123270566D01*
X111250000Y-108700000D02*
X110531852Y-108700000D01*
X117450000Y-108700000D02*
X116731852Y-108700000D01*
X123650000Y-108700000D02*
X122931852Y-108700000D01*
X111250000Y-116000000D02*
X110531852Y-116000000D01*
X117450000Y-116000000D02*
X116731852Y-116000000D01*
X123650000Y-116000000D02*
X122931852Y-116000000D01*
X111250000Y-123300000D02*
X110531852Y-123300000D01*
X117450000Y-123300000D02*
X116731852Y-123300000D01*
X123650000Y-123300000D02*
X122931852Y-123300000D01*
G04 #@! TO.N,Net-(U1-Pad1)*
X112950000Y-109400000D02*
X113697600Y-109400000D01*
X119150000Y-109400000D02*
X119897600Y-109400000D01*
X125350000Y-109400000D02*
X126097600Y-109400000D01*
X112950000Y-116700000D02*
X113697600Y-116700000D01*
X119150000Y-116700000D02*
X119897600Y-116700000D01*
X125350000Y-116700000D02*
X126097600Y-116700000D01*
X112950000Y-124000000D02*
X113697600Y-124000000D01*
X119150000Y-124000000D02*
X119897600Y-124000000D01*
X125350000Y-124000000D02*
X126097600Y-124000000D01*
G04 #@! TO.N,GND*
X112100000Y-107220000D02*
X112100000Y-110097600D01*
X118300000Y-107220000D02*
X118300000Y-110097600D01*
X124500000Y-107220000D02*
X124500000Y-110097600D01*
X112100000Y-114520000D02*
X112100000Y-117397600D01*
X118300000Y-114520000D02*
X118300000Y-117397600D01*
X124500000Y-114520000D02*
X124500000Y-117397600D01*
X112100000Y-121820000D02*
X112100000Y-124697600D01*
X118300000Y-121820000D02*
X118300000Y-124697600D01*
X124500000Y-121820000D02*
X124500000Y-124697600D01*
G04 #@! TD*
M02*
