M48
METRIC,TZ
T1C0.300
T2C0.800
%
G90
G05
T1
X110502Y-109400
X110502Y-116700
X110502Y-124000
X110502Y-108671
X110502Y-115971
X110502Y-123271
X111100Y-110800
X111100Y-110800
X111100Y-110800
X111100Y-112400
X111100Y-118100
X111100Y-118100
X111100Y-118100
X111100Y-119700
X111600Y-110800
X111600Y-112400
X111600Y-118100
X111600Y-119700
X112100Y-110098
X112100Y-110800
X112100Y-112400
X112100Y-117398
X112100Y-118100
X112100Y-119700
X112100Y-124698
X112600Y-110800
X112600Y-112400
X112600Y-118100
X112600Y-119700
X113100Y-110800
X113100Y-112400
X113100Y-118100
X113100Y-119700
X113698Y-108671
X113698Y-115971
X113698Y-123271
X113698Y-109400
X113698Y-116700
X113698Y-124000
X114400Y-106450
X114400Y-106950
X114400Y-107450
X114400Y-107950
X114400Y-108450
X114400Y-108950
X114400Y-109450
X114400Y-113750
X114400Y-114250
X114400Y-114750
X114400Y-115250
X114400Y-115750
X114400Y-116250
X114400Y-116750
X114400Y-121050
X114400Y-121550
X114400Y-122050
X114400Y-122550
X114400Y-123050
X114400Y-123550
X114400Y-124050
X116000Y-106450
X116000Y-106950
X116000Y-107450
X116000Y-107950
X116000Y-108450
X116000Y-108950
X116000Y-109450
X116000Y-113750
X116000Y-114250
X116000Y-114750
X116000Y-115250
X116000Y-115750
X116000Y-116250
X116000Y-116750
X116000Y-121050
X116000Y-121550
X116000Y-122050
X116000Y-122550
X116000Y-123050
X116000Y-123550
X116000Y-124050
X116702Y-109400
X116702Y-116700
X116702Y-124000
X116702Y-108671
X116702Y-115971
X116702Y-123271
X117300Y-110800
X117300Y-110800
X117300Y-110800
X117300Y-112400
X117300Y-118100
X117300Y-118100
X117300Y-118100
X117300Y-119700
X117800Y-110800
X117800Y-112400
X117800Y-118100
X117800Y-119700
X118300Y-110098
X118300Y-110800
X118300Y-112400
X118300Y-117398
X118300Y-118100
X118300Y-119700
X118300Y-124698
X118800Y-110800
X118800Y-112400
X118800Y-118100
X118800Y-119700
X119300Y-110800
X119300Y-112400
X119300Y-118100
X119300Y-119700
X119898Y-108671
X119898Y-115971
X119898Y-123271
X119898Y-109400
X119898Y-116700
X119898Y-124000
X120600Y-106450
X120600Y-106950
X120600Y-107450
X120600Y-107950
X120600Y-108450
X120600Y-108950
X120600Y-109450
X120600Y-113750
X120600Y-114250
X120600Y-114750
X120600Y-115250
X120600Y-115750
X120600Y-116250
X120600Y-116750
X120600Y-121050
X120600Y-121550
X120600Y-122050
X120600Y-122550
X120600Y-123050
X120600Y-123550
X120600Y-124050
X122200Y-106450
X122200Y-106950
X122200Y-107450
X122200Y-107950
X122200Y-108450
X122200Y-108950
X122200Y-109450
X122200Y-113750
X122200Y-114250
X122200Y-114750
X122200Y-115250
X122200Y-115750
X122200Y-116250
X122200Y-116750
X122200Y-121050
X122200Y-121550
X122200Y-122050
X122200Y-122550
X122200Y-123050
X122200Y-123550
X122200Y-124050
X122902Y-109400
X122902Y-116700
X122902Y-124000
X122902Y-108671
X122902Y-115971
X122902Y-123271
X123500Y-110800
X123500Y-110800
X123500Y-110800
X123500Y-112400
X123500Y-118100
X123500Y-118100
X123500Y-118100
X123500Y-119700
X124000Y-110800
X124000Y-112400
X124000Y-118100
X124000Y-119700
X124500Y-110098
X124500Y-110800
X124500Y-112400
X124500Y-117398
X124500Y-118100
X124500Y-119700
X124500Y-124698
X125000Y-110800
X125000Y-112400
X125000Y-118100
X125000Y-119700
X125500Y-110800
X125500Y-112400
X125500Y-118100
X125500Y-119700
X126098Y-108671
X126098Y-115971
X126098Y-123271
X126098Y-109400
X126098Y-116700
X126098Y-124000
T2
X112100Y-121820
X124500Y-121820
X118300Y-121820
X124500Y-107220
X124500Y-107220
X124500Y-121820
X112100Y-114520
X118300Y-107220
X124500Y-114520
X118300Y-114520
X112100Y-107220
X112100Y-114520
X118300Y-114520
X112100Y-107220
X112100Y-121820
X118300Y-107220
X118300Y-121820
X124500Y-114520
T0
M30
