G04 #@! TF.GenerationSoftware,KiCad,Pcbnew,5.0.2-bee76a0~70~ubuntu18.04.1*
G04 #@! TF.CreationDate,2018-12-08T03:46:04+01:00*
G04 #@! TF.ProjectId,simic2matrix_panel_3x3,73696d69-6332-46d6-9174-7269785f7061,rev?*
G04 #@! TF.SameCoordinates,Original*
G04 #@! TF.FileFunction,Copper,L2,Bot*
G04 #@! TF.FilePolarity,Positive*
%FSLAX46Y46*%
G04 Gerber Fmt 4.6, Leading zero omitted, Abs format (unit mm)*
G04 Created by KiCad (PCBNEW 5.0.2-bee76a0~70~ubuntu18.04.1) date Sat 08 Dec 2018 03:46:04 CET*
%MOMM*%
%LPD*%
G01*
G04 APERTURE LIST*
G04 #@! TA.AperFunction,SMDPad,CuDef*
%ADD10R,0.600000X0.400000*%
G04 #@! TD*
G04 #@! TA.AperFunction,ViaPad*
%ADD11C,1.700000*%
G04 #@! TD*
G04 #@! TA.AperFunction,SMDPad,CuDef*
%ADD12C,0.350000*%
G04 #@! TD*
G04 #@! TA.AperFunction,Conductor*
%ADD13C,0.100000*%
G04 #@! TD*
G04 #@! TA.AperFunction,SMDPad,CuDef*
%ADD14R,0.350000X2.000000*%
G04 #@! TD*
G04 #@! TA.AperFunction,ViaPad*
%ADD15C,0.500000*%
G04 #@! TD*
G04 #@! TA.AperFunction,Conductor*
%ADD16C,0.152400*%
G04 #@! TD*
G04 APERTURE END LIST*
D10*
G04 #@! TO.P,U1,1*
G04 #@! TO.N,Net-(U1-Pad1)*
X124950000Y-123870000D03*
G04 #@! TO.P,U1,4*
G04 #@! TO.N,Net-(U1-Pad4)*
X124050000Y-123870000D03*
G04 #@! TO.P,U1,2*
G04 #@! TO.N,Net-(U1-Pad2)*
X124950000Y-123170000D03*
G04 #@! TO.P,U1,3*
G04 #@! TO.N,Net-(U1-Pad3)*
X124050000Y-123170000D03*
D11*
G04 #@! TD*
G04 #@! TO.N,GND*
G04 #@! TO.C,U1*
X124500000Y-121820000D03*
D12*
G04 #@! TO.P,U1,5*
G04 #@! TO.N,GND*
X124325000Y-124545000D03*
D13*
G04 #@! TD*
G04 #@! TO.N,GND*
G04 #@! TO.C,U1*
G36*
X125900000Y-124370000D02*
X125900000Y-124420000D01*
X125600000Y-124720000D01*
X123100000Y-124720000D01*
X123100000Y-124370000D01*
X125900000Y-124370000D01*
X125900000Y-124370000D01*
G37*
D14*
G04 #@! TO.P,U1,5*
G04 #@! TO.N,GND*
X125725000Y-121920000D03*
X123275000Y-121920000D03*
G04 #@! TD*
D10*
G04 #@! TO.P,U1,1*
G04 #@! TO.N,Net-(U1-Pad1)*
X118750000Y-123870000D03*
G04 #@! TO.P,U1,4*
G04 #@! TO.N,Net-(U1-Pad4)*
X117850000Y-123870000D03*
G04 #@! TO.P,U1,2*
G04 #@! TO.N,Net-(U1-Pad2)*
X118750000Y-123170000D03*
G04 #@! TO.P,U1,3*
G04 #@! TO.N,Net-(U1-Pad3)*
X117850000Y-123170000D03*
D11*
G04 #@! TD*
G04 #@! TO.N,GND*
G04 #@! TO.C,U1*
X118300000Y-121820000D03*
D12*
G04 #@! TO.P,U1,5*
G04 #@! TO.N,GND*
X118125000Y-124545000D03*
D13*
G04 #@! TD*
G04 #@! TO.N,GND*
G04 #@! TO.C,U1*
G36*
X119700000Y-124370000D02*
X119700000Y-124420000D01*
X119400000Y-124720000D01*
X116900000Y-124720000D01*
X116900000Y-124370000D01*
X119700000Y-124370000D01*
X119700000Y-124370000D01*
G37*
D14*
G04 #@! TO.P,U1,5*
G04 #@! TO.N,GND*
X119525000Y-121920000D03*
X117075000Y-121920000D03*
G04 #@! TD*
D10*
G04 #@! TO.P,U1,1*
G04 #@! TO.N,Net-(U1-Pad1)*
X112550000Y-123870000D03*
G04 #@! TO.P,U1,4*
G04 #@! TO.N,Net-(U1-Pad4)*
X111650000Y-123870000D03*
G04 #@! TO.P,U1,2*
G04 #@! TO.N,Net-(U1-Pad2)*
X112550000Y-123170000D03*
G04 #@! TO.P,U1,3*
G04 #@! TO.N,Net-(U1-Pad3)*
X111650000Y-123170000D03*
D11*
G04 #@! TD*
G04 #@! TO.N,GND*
G04 #@! TO.C,U1*
X112100000Y-121820000D03*
D12*
G04 #@! TO.P,U1,5*
G04 #@! TO.N,GND*
X111925000Y-124545000D03*
D13*
G04 #@! TD*
G04 #@! TO.N,GND*
G04 #@! TO.C,U1*
G36*
X113500000Y-124370000D02*
X113500000Y-124420000D01*
X113200000Y-124720000D01*
X110700000Y-124720000D01*
X110700000Y-124370000D01*
X113500000Y-124370000D01*
X113500000Y-124370000D01*
G37*
D14*
G04 #@! TO.P,U1,5*
G04 #@! TO.N,GND*
X113325000Y-121920000D03*
X110875000Y-121920000D03*
G04 #@! TD*
D10*
G04 #@! TO.P,U1,1*
G04 #@! TO.N,Net-(U1-Pad1)*
X124950000Y-116570000D03*
G04 #@! TO.P,U1,4*
G04 #@! TO.N,Net-(U1-Pad4)*
X124050000Y-116570000D03*
G04 #@! TO.P,U1,2*
G04 #@! TO.N,Net-(U1-Pad2)*
X124950000Y-115870000D03*
G04 #@! TO.P,U1,3*
G04 #@! TO.N,Net-(U1-Pad3)*
X124050000Y-115870000D03*
D11*
G04 #@! TD*
G04 #@! TO.N,GND*
G04 #@! TO.C,U1*
X124500000Y-114520000D03*
D12*
G04 #@! TO.P,U1,5*
G04 #@! TO.N,GND*
X124325000Y-117245000D03*
D13*
G04 #@! TD*
G04 #@! TO.N,GND*
G04 #@! TO.C,U1*
G36*
X125900000Y-117070000D02*
X125900000Y-117120000D01*
X125600000Y-117420000D01*
X123100000Y-117420000D01*
X123100000Y-117070000D01*
X125900000Y-117070000D01*
X125900000Y-117070000D01*
G37*
D14*
G04 #@! TO.P,U1,5*
G04 #@! TO.N,GND*
X125725000Y-114620000D03*
X123275000Y-114620000D03*
G04 #@! TD*
D10*
G04 #@! TO.P,U1,1*
G04 #@! TO.N,Net-(U1-Pad1)*
X118750000Y-116570000D03*
G04 #@! TO.P,U1,4*
G04 #@! TO.N,Net-(U1-Pad4)*
X117850000Y-116570000D03*
G04 #@! TO.P,U1,2*
G04 #@! TO.N,Net-(U1-Pad2)*
X118750000Y-115870000D03*
G04 #@! TO.P,U1,3*
G04 #@! TO.N,Net-(U1-Pad3)*
X117850000Y-115870000D03*
D11*
G04 #@! TD*
G04 #@! TO.N,GND*
G04 #@! TO.C,U1*
X118300000Y-114520000D03*
D12*
G04 #@! TO.P,U1,5*
G04 #@! TO.N,GND*
X118125000Y-117245000D03*
D13*
G04 #@! TD*
G04 #@! TO.N,GND*
G04 #@! TO.C,U1*
G36*
X119700000Y-117070000D02*
X119700000Y-117120000D01*
X119400000Y-117420000D01*
X116900000Y-117420000D01*
X116900000Y-117070000D01*
X119700000Y-117070000D01*
X119700000Y-117070000D01*
G37*
D14*
G04 #@! TO.P,U1,5*
G04 #@! TO.N,GND*
X119525000Y-114620000D03*
X117075000Y-114620000D03*
G04 #@! TD*
D10*
G04 #@! TO.P,U1,1*
G04 #@! TO.N,Net-(U1-Pad1)*
X112550000Y-116570000D03*
G04 #@! TO.P,U1,4*
G04 #@! TO.N,Net-(U1-Pad4)*
X111650000Y-116570000D03*
G04 #@! TO.P,U1,2*
G04 #@! TO.N,Net-(U1-Pad2)*
X112550000Y-115870000D03*
G04 #@! TO.P,U1,3*
G04 #@! TO.N,Net-(U1-Pad3)*
X111650000Y-115870000D03*
D11*
G04 #@! TD*
G04 #@! TO.N,GND*
G04 #@! TO.C,U1*
X112100000Y-114520000D03*
D12*
G04 #@! TO.P,U1,5*
G04 #@! TO.N,GND*
X111925000Y-117245000D03*
D13*
G04 #@! TD*
G04 #@! TO.N,GND*
G04 #@! TO.C,U1*
G36*
X113500000Y-117070000D02*
X113500000Y-117120000D01*
X113200000Y-117420000D01*
X110700000Y-117420000D01*
X110700000Y-117070000D01*
X113500000Y-117070000D01*
X113500000Y-117070000D01*
G37*
D14*
G04 #@! TO.P,U1,5*
G04 #@! TO.N,GND*
X113325000Y-114620000D03*
X110875000Y-114620000D03*
G04 #@! TD*
D10*
G04 #@! TO.P,U1,1*
G04 #@! TO.N,Net-(U1-Pad1)*
X124950000Y-109270000D03*
G04 #@! TO.P,U1,4*
G04 #@! TO.N,Net-(U1-Pad4)*
X124050000Y-109270000D03*
G04 #@! TO.P,U1,2*
G04 #@! TO.N,Net-(U1-Pad2)*
X124950000Y-108570000D03*
G04 #@! TO.P,U1,3*
G04 #@! TO.N,Net-(U1-Pad3)*
X124050000Y-108570000D03*
D11*
G04 #@! TD*
G04 #@! TO.N,GND*
G04 #@! TO.C,U1*
X124500000Y-107220000D03*
D12*
G04 #@! TO.P,U1,5*
G04 #@! TO.N,GND*
X124325000Y-109945000D03*
D13*
G04 #@! TD*
G04 #@! TO.N,GND*
G04 #@! TO.C,U1*
G36*
X125900000Y-109770000D02*
X125900000Y-109820000D01*
X125600000Y-110120000D01*
X123100000Y-110120000D01*
X123100000Y-109770000D01*
X125900000Y-109770000D01*
X125900000Y-109770000D01*
G37*
D14*
G04 #@! TO.P,U1,5*
G04 #@! TO.N,GND*
X125725000Y-107320000D03*
X123275000Y-107320000D03*
G04 #@! TD*
D10*
G04 #@! TO.P,U1,1*
G04 #@! TO.N,Net-(U1-Pad1)*
X118750000Y-109270000D03*
G04 #@! TO.P,U1,4*
G04 #@! TO.N,Net-(U1-Pad4)*
X117850000Y-109270000D03*
G04 #@! TO.P,U1,2*
G04 #@! TO.N,Net-(U1-Pad2)*
X118750000Y-108570000D03*
G04 #@! TO.P,U1,3*
G04 #@! TO.N,Net-(U1-Pad3)*
X117850000Y-108570000D03*
D11*
G04 #@! TD*
G04 #@! TO.N,GND*
G04 #@! TO.C,U1*
X118300000Y-107220000D03*
D12*
G04 #@! TO.P,U1,5*
G04 #@! TO.N,GND*
X118125000Y-109945000D03*
D13*
G04 #@! TD*
G04 #@! TO.N,GND*
G04 #@! TO.C,U1*
G36*
X119700000Y-109770000D02*
X119700000Y-109820000D01*
X119400000Y-110120000D01*
X116900000Y-110120000D01*
X116900000Y-109770000D01*
X119700000Y-109770000D01*
X119700000Y-109770000D01*
G37*
D14*
G04 #@! TO.P,U1,5*
G04 #@! TO.N,GND*
X119525000Y-107320000D03*
X117075000Y-107320000D03*
G04 #@! TD*
D10*
G04 #@! TO.P,U1,1*
G04 #@! TO.N,Net-(U1-Pad1)*
X112550000Y-109270000D03*
G04 #@! TO.P,U1,4*
G04 #@! TO.N,Net-(U1-Pad4)*
X111650000Y-109270000D03*
G04 #@! TO.P,U1,2*
G04 #@! TO.N,Net-(U1-Pad2)*
X112550000Y-108570000D03*
G04 #@! TO.P,U1,3*
G04 #@! TO.N,Net-(U1-Pad3)*
X111650000Y-108570000D03*
D11*
G04 #@! TD*
G04 #@! TO.N,GND*
G04 #@! TO.C,U1*
X112100000Y-107220000D03*
D12*
G04 #@! TO.P,U1,5*
G04 #@! TO.N,GND*
X111925000Y-109945000D03*
D13*
G04 #@! TD*
G04 #@! TO.N,GND*
G04 #@! TO.C,U1*
G36*
X113500000Y-109770000D02*
X113500000Y-109820000D01*
X113200000Y-110120000D01*
X110700000Y-110120000D01*
X110700000Y-109770000D01*
X113500000Y-109770000D01*
X113500000Y-109770000D01*
G37*
D14*
G04 #@! TO.P,U1,5*
G04 #@! TO.N,GND*
X113325000Y-107320000D03*
X110875000Y-107320000D03*
G04 #@! TD*
D15*
G04 #@! TO.N,*
X112100000Y-112400000D03*
X118300000Y-112400000D03*
X124500000Y-112400000D03*
X112100000Y-119700000D03*
X118300000Y-119700000D03*
X124500000Y-119700000D03*
X111100000Y-110800000D03*
X117300000Y-110800000D03*
X123500000Y-110800000D03*
X111100000Y-118100000D03*
X117300000Y-118100000D03*
X123500000Y-118100000D03*
X116000000Y-106950000D03*
X122200000Y-106950000D03*
X116000000Y-114250000D03*
X122200000Y-114250000D03*
X116000000Y-121550000D03*
X122200000Y-121550000D03*
X112600000Y-110800000D03*
X118800000Y-110800000D03*
X125000000Y-110800000D03*
X112600000Y-118100000D03*
X118800000Y-118100000D03*
X125000000Y-118100000D03*
X111600000Y-110800000D03*
X117800000Y-110800000D03*
X124000000Y-110800000D03*
X111600000Y-118100000D03*
X117800000Y-118100000D03*
X124000000Y-118100000D03*
X116000000Y-108950000D03*
X122200000Y-108950000D03*
X116000000Y-116250000D03*
X122200000Y-116250000D03*
X116000000Y-123550000D03*
X122200000Y-123550000D03*
X114400000Y-109450000D03*
X120600000Y-109450000D03*
X114400000Y-116750000D03*
X120600000Y-116750000D03*
X114400000Y-124050000D03*
X120600000Y-124050000D03*
X114400000Y-106450000D03*
X120600000Y-106450000D03*
X114400000Y-113750000D03*
X120600000Y-113750000D03*
X114400000Y-121050000D03*
X120600000Y-121050000D03*
X116000000Y-108450000D03*
X122200000Y-108450000D03*
X116000000Y-115750000D03*
X122200000Y-115750000D03*
X116000000Y-123050000D03*
X122200000Y-123050000D03*
X114400000Y-106950000D03*
X120600000Y-106950000D03*
X114400000Y-114250000D03*
X120600000Y-114250000D03*
X114400000Y-121550000D03*
X120600000Y-121550000D03*
X112600000Y-112400000D03*
X118800000Y-112400000D03*
X125000000Y-112400000D03*
X112600000Y-119700000D03*
X118800000Y-119700000D03*
X125000000Y-119700000D03*
X111100000Y-110800000D03*
X117300000Y-110800000D03*
X123500000Y-110800000D03*
X111100000Y-118100000D03*
X117300000Y-118100000D03*
X123500000Y-118100000D03*
X113100000Y-110800000D03*
X119300000Y-110800000D03*
X125500000Y-110800000D03*
X113100000Y-118100000D03*
X119300000Y-118100000D03*
X125500000Y-118100000D03*
X111600000Y-112400000D03*
X117800000Y-112400000D03*
X124000000Y-112400000D03*
X111600000Y-119700000D03*
X117800000Y-119700000D03*
X124000000Y-119700000D03*
X111100000Y-112400000D03*
X117300000Y-112400000D03*
X123500000Y-112400000D03*
X111100000Y-119700000D03*
X117300000Y-119700000D03*
X123500000Y-119700000D03*
X114400000Y-108450000D03*
X120600000Y-108450000D03*
X114400000Y-115750000D03*
X120600000Y-115750000D03*
X114400000Y-123050000D03*
X120600000Y-123050000D03*
X112100000Y-110800000D03*
X118300000Y-110800000D03*
X124500000Y-110800000D03*
X112100000Y-118100000D03*
X118300000Y-118100000D03*
X124500000Y-118100000D03*
X116000000Y-106450000D03*
X122200000Y-106450000D03*
X116000000Y-113750000D03*
X122200000Y-113750000D03*
X116000000Y-121050000D03*
X122200000Y-121050000D03*
X116000000Y-107450000D03*
X122200000Y-107450000D03*
X116000000Y-114750000D03*
X122200000Y-114750000D03*
X116000000Y-122050000D03*
X122200000Y-122050000D03*
X116000000Y-107950000D03*
X122200000Y-107950000D03*
X116000000Y-115250000D03*
X122200000Y-115250000D03*
X116000000Y-122550000D03*
X122200000Y-122550000D03*
X114400000Y-107950000D03*
X120600000Y-107950000D03*
X114400000Y-115250000D03*
X120600000Y-115250000D03*
X114400000Y-122550000D03*
X120600000Y-122550000D03*
X114400000Y-107450000D03*
X120600000Y-107450000D03*
X114400000Y-114750000D03*
X120600000Y-114750000D03*
X114400000Y-122050000D03*
X120600000Y-122050000D03*
X113100000Y-112400000D03*
X119300000Y-112400000D03*
X125500000Y-112400000D03*
X113100000Y-119700000D03*
X119300000Y-119700000D03*
X125500000Y-119700000D03*
X111100000Y-110800000D03*
X117300000Y-110800000D03*
X123500000Y-110800000D03*
X111100000Y-118100000D03*
X117300000Y-118100000D03*
X123500000Y-118100000D03*
X114400000Y-108950000D03*
X120600000Y-108950000D03*
X114400000Y-116250000D03*
X120600000Y-116250000D03*
X114400000Y-123550000D03*
X120600000Y-123550000D03*
X116000000Y-109450000D03*
X122200000Y-109450000D03*
X116000000Y-116750000D03*
X122200000Y-116750000D03*
X116000000Y-124050000D03*
X122200000Y-124050000D03*
G04 #@! TO.N,Net-(U1-Pad2)*
X113697599Y-108670558D03*
X119897599Y-108670558D03*
X126097599Y-108670558D03*
X113697599Y-115970558D03*
X119897599Y-115970558D03*
X126097599Y-115970558D03*
X113697599Y-123270558D03*
X119897599Y-123270558D03*
X126097599Y-123270558D03*
G04 #@! TO.N,Net-(U1-Pad4)*
X110502400Y-109400000D03*
X116702400Y-109400000D03*
X122902400Y-109400000D03*
X110502400Y-116700000D03*
X116702400Y-116700000D03*
X122902400Y-116700000D03*
X110502400Y-124000000D03*
X116702400Y-124000000D03*
X122902400Y-124000000D03*
G04 #@! TO.N,Net-(U1-Pad3)*
X110502418Y-108670566D03*
X116702418Y-108670566D03*
X122902418Y-108670566D03*
X110502418Y-115970566D03*
X116702418Y-115970566D03*
X122902418Y-115970566D03*
X110502418Y-123270566D03*
X116702418Y-123270566D03*
X122902418Y-123270566D03*
G04 #@! TO.N,Net-(U1-Pad1)*
X113697600Y-109400000D03*
X119897600Y-109400000D03*
X126097600Y-109400000D03*
X113697600Y-116700000D03*
X119897600Y-116700000D03*
X126097600Y-116700000D03*
X113697600Y-124000000D03*
X119897600Y-124000000D03*
X126097600Y-124000000D03*
G04 #@! TO.N,GND*
X112100000Y-110097600D03*
X118300000Y-110097600D03*
X124500000Y-110097600D03*
X112100000Y-117397600D03*
X118300000Y-117397600D03*
X124500000Y-117397600D03*
X112100000Y-124697600D03*
X118300000Y-124697600D03*
X124500000Y-124697600D03*
G04 #@! TD*
D16*
G04 #@! TO.N,Net-(U1-Pad2)*
X112970000Y-108570000D02*
X112550000Y-108570000D01*
X119170000Y-108570000D02*
X118750000Y-108570000D01*
X125370000Y-108570000D02*
X124950000Y-108570000D01*
X112970000Y-115870000D02*
X112550000Y-115870000D01*
X119170000Y-115870000D02*
X118750000Y-115870000D01*
X125370000Y-115870000D02*
X124950000Y-115870000D01*
X112970000Y-123170000D02*
X112550000Y-123170000D01*
X119170000Y-123170000D02*
X118750000Y-123170000D01*
X125370000Y-123170000D02*
X124950000Y-123170000D01*
X113597041Y-108570000D02*
X113697599Y-108670558D01*
X119797041Y-108570000D02*
X119897599Y-108670558D01*
X125997041Y-108570000D02*
X126097599Y-108670558D01*
X113597041Y-115870000D02*
X113697599Y-115970558D01*
X119797041Y-115870000D02*
X119897599Y-115970558D01*
X125997041Y-115870000D02*
X126097599Y-115970558D01*
X113597041Y-123170000D02*
X113697599Y-123270558D01*
X119797041Y-123170000D02*
X119897599Y-123270558D01*
X125997041Y-123170000D02*
X126097599Y-123270558D01*
X113070558Y-108670558D02*
X112970000Y-108570000D01*
X119270558Y-108670558D02*
X119170000Y-108570000D01*
X125470558Y-108670558D02*
X125370000Y-108570000D01*
X113070558Y-115970558D02*
X112970000Y-115870000D01*
X119270558Y-115970558D02*
X119170000Y-115870000D01*
X125470558Y-115970558D02*
X125370000Y-115870000D01*
X113070558Y-123270558D02*
X112970000Y-123170000D01*
X119270558Y-123270558D02*
X119170000Y-123170000D01*
X125470558Y-123270558D02*
X125370000Y-123170000D01*
X113697599Y-108670558D02*
X113070558Y-108670558D01*
X119897599Y-108670558D02*
X119270558Y-108670558D01*
X126097599Y-108670558D02*
X125470558Y-108670558D01*
X113697599Y-115970558D02*
X113070558Y-115970558D01*
X119897599Y-115970558D02*
X119270558Y-115970558D01*
X126097599Y-115970558D02*
X125470558Y-115970558D01*
X113697599Y-123270558D02*
X113070558Y-123270558D01*
X119897599Y-123270558D02*
X119270558Y-123270558D01*
X126097599Y-123270558D02*
X125470558Y-123270558D01*
G04 #@! TO.N,Net-(U1-Pad4)*
X111050000Y-109400000D02*
X111180000Y-109270000D01*
X117250000Y-109400000D02*
X117380000Y-109270000D01*
X123450000Y-109400000D02*
X123580000Y-109270000D01*
X111050000Y-116700000D02*
X111180000Y-116570000D01*
X117250000Y-116700000D02*
X117380000Y-116570000D01*
X123450000Y-116700000D02*
X123580000Y-116570000D01*
X111050000Y-124000000D02*
X111180000Y-123870000D01*
X117250000Y-124000000D02*
X117380000Y-123870000D01*
X123450000Y-124000000D02*
X123580000Y-123870000D01*
X111180000Y-109270000D02*
X111650000Y-109270000D01*
X117380000Y-109270000D02*
X117850000Y-109270000D01*
X123580000Y-109270000D02*
X124050000Y-109270000D01*
X111180000Y-116570000D02*
X111650000Y-116570000D01*
X117380000Y-116570000D02*
X117850000Y-116570000D01*
X123580000Y-116570000D02*
X124050000Y-116570000D01*
X111180000Y-123870000D02*
X111650000Y-123870000D01*
X117380000Y-123870000D02*
X117850000Y-123870000D01*
X123580000Y-123870000D02*
X124050000Y-123870000D01*
X110502400Y-109400000D02*
X111050000Y-109400000D01*
X116702400Y-109400000D02*
X117250000Y-109400000D01*
X122902400Y-109400000D02*
X123450000Y-109400000D01*
X110502400Y-116700000D02*
X111050000Y-116700000D01*
X116702400Y-116700000D02*
X117250000Y-116700000D01*
X122902400Y-116700000D02*
X123450000Y-116700000D01*
X110502400Y-124000000D02*
X111050000Y-124000000D01*
X116702400Y-124000000D02*
X117250000Y-124000000D01*
X122902400Y-124000000D02*
X123450000Y-124000000D01*
G04 #@! TO.N,Net-(U1-Pad3)*
X111129434Y-108670566D02*
X111230000Y-108570000D01*
X117329434Y-108670566D02*
X117430000Y-108570000D01*
X123529434Y-108670566D02*
X123630000Y-108570000D01*
X111129434Y-115970566D02*
X111230000Y-115870000D01*
X117329434Y-115970566D02*
X117430000Y-115870000D01*
X123529434Y-115970566D02*
X123630000Y-115870000D01*
X111129434Y-123270566D02*
X111230000Y-123170000D01*
X117329434Y-123270566D02*
X117430000Y-123170000D01*
X123529434Y-123270566D02*
X123630000Y-123170000D01*
X111230000Y-108570000D02*
X111650000Y-108570000D01*
X117430000Y-108570000D02*
X117850000Y-108570000D01*
X123630000Y-108570000D02*
X124050000Y-108570000D01*
X111230000Y-115870000D02*
X111650000Y-115870000D01*
X117430000Y-115870000D02*
X117850000Y-115870000D01*
X123630000Y-115870000D02*
X124050000Y-115870000D01*
X111230000Y-123170000D02*
X111650000Y-123170000D01*
X117430000Y-123170000D02*
X117850000Y-123170000D01*
X123630000Y-123170000D02*
X124050000Y-123170000D01*
X110502418Y-108670566D02*
X111129434Y-108670566D01*
X116702418Y-108670566D02*
X117329434Y-108670566D01*
X122902418Y-108670566D02*
X123529434Y-108670566D01*
X110502418Y-115970566D02*
X111129434Y-115970566D01*
X116702418Y-115970566D02*
X117329434Y-115970566D01*
X122902418Y-115970566D02*
X123529434Y-115970566D01*
X110502418Y-123270566D02*
X111129434Y-123270566D01*
X116702418Y-123270566D02*
X117329434Y-123270566D01*
X122902418Y-123270566D02*
X123529434Y-123270566D01*
G04 #@! TO.N,Net-(U1-Pad1)*
X113150000Y-109400000D02*
X113020000Y-109270000D01*
X119350000Y-109400000D02*
X119220000Y-109270000D01*
X125550000Y-109400000D02*
X125420000Y-109270000D01*
X113150000Y-116700000D02*
X113020000Y-116570000D01*
X119350000Y-116700000D02*
X119220000Y-116570000D01*
X125550000Y-116700000D02*
X125420000Y-116570000D01*
X113150000Y-124000000D02*
X113020000Y-123870000D01*
X119350000Y-124000000D02*
X119220000Y-123870000D01*
X125550000Y-124000000D02*
X125420000Y-123870000D01*
X113697600Y-109400000D02*
X113150000Y-109400000D01*
X119897600Y-109400000D02*
X119350000Y-109400000D01*
X126097600Y-109400000D02*
X125550000Y-109400000D01*
X113697600Y-116700000D02*
X113150000Y-116700000D01*
X119897600Y-116700000D02*
X119350000Y-116700000D01*
X126097600Y-116700000D02*
X125550000Y-116700000D01*
X113697600Y-124000000D02*
X113150000Y-124000000D01*
X119897600Y-124000000D02*
X119350000Y-124000000D01*
X126097600Y-124000000D02*
X125550000Y-124000000D01*
X113020000Y-109270000D02*
X112550000Y-109270000D01*
X119220000Y-109270000D02*
X118750000Y-109270000D01*
X125420000Y-109270000D02*
X124950000Y-109270000D01*
X113020000Y-116570000D02*
X112550000Y-116570000D01*
X119220000Y-116570000D02*
X118750000Y-116570000D01*
X125420000Y-116570000D02*
X124950000Y-116570000D01*
X113020000Y-123870000D02*
X112550000Y-123870000D01*
X119220000Y-123870000D02*
X118750000Y-123870000D01*
X125420000Y-123870000D02*
X124950000Y-123870000D01*
G04 #@! TO.N,GND*
X110975000Y-107220000D02*
X110875000Y-107320000D01*
X117175000Y-107220000D02*
X117075000Y-107320000D01*
X123375000Y-107220000D02*
X123275000Y-107320000D01*
X110975000Y-114520000D02*
X110875000Y-114620000D01*
X117175000Y-114520000D02*
X117075000Y-114620000D01*
X123375000Y-114520000D02*
X123275000Y-114620000D01*
X110975000Y-121820000D02*
X110875000Y-121920000D01*
X117175000Y-121820000D02*
X117075000Y-121920000D01*
X123375000Y-121820000D02*
X123275000Y-121920000D01*
X112100000Y-107220000D02*
X113225000Y-107220000D01*
X118300000Y-107220000D02*
X119425000Y-107220000D01*
X124500000Y-107220000D02*
X125625000Y-107220000D01*
X112100000Y-114520000D02*
X113225000Y-114520000D01*
X118300000Y-114520000D02*
X119425000Y-114520000D01*
X124500000Y-114520000D02*
X125625000Y-114520000D01*
X112100000Y-121820000D02*
X113225000Y-121820000D01*
X118300000Y-121820000D02*
X119425000Y-121820000D01*
X124500000Y-121820000D02*
X125625000Y-121820000D01*
X113225000Y-107220000D02*
X113325000Y-107320000D01*
X119425000Y-107220000D02*
X119525000Y-107320000D01*
X125625000Y-107220000D02*
X125725000Y-107320000D01*
X113225000Y-114520000D02*
X113325000Y-114620000D01*
X119425000Y-114520000D02*
X119525000Y-114620000D01*
X125625000Y-114520000D02*
X125725000Y-114620000D01*
X113225000Y-121820000D02*
X113325000Y-121920000D01*
X119425000Y-121820000D02*
X119525000Y-121920000D01*
X125625000Y-121820000D02*
X125725000Y-121920000D01*
X112100000Y-107220000D02*
X110975000Y-107220000D01*
X118300000Y-107220000D02*
X117175000Y-107220000D01*
X124500000Y-107220000D02*
X123375000Y-107220000D01*
X112100000Y-114520000D02*
X110975000Y-114520000D01*
X118300000Y-114520000D02*
X117175000Y-114520000D01*
X124500000Y-114520000D02*
X123375000Y-114520000D01*
X112100000Y-121820000D02*
X110975000Y-121820000D01*
X118300000Y-121820000D02*
X117175000Y-121820000D01*
X124500000Y-121820000D02*
X123375000Y-121820000D01*
G04 #@! TD*
M02*
