G04 #@! TF.GenerationSoftware,KiCad,Pcbnew,5.0.2-bee76a0~70~ubuntu18.04.1*
G04 #@! TF.CreationDate,2018-12-08T03:46:04+01:00*
G04 #@! TF.ProjectId,simic2matrix_panel_3x3,73696d69-6332-46d6-9174-7269785f7061,rev?*
G04 #@! TF.SameCoordinates,Original*
G04 #@! TF.FileFunction,Profile,NP*
%FSLAX46Y46*%
G04 Gerber Fmt 4.6, Leading zero omitted, Abs format (unit mm)*
G04 Created by KiCad (PCBNEW 5.0.2-bee76a0~70~ubuntu18.04.1) date Sat 08 Dec 2018 03:46:04 CET*
%MOMM*%
%LPD*%
G01*
G04 APERTURE LIST*
%ADD10C,0.200000*%
G04 APERTURE END LIST*
D10*
X122400000Y-120000000D02*
G75*
G02X120400000Y-120000000I-1000000J0D01*
G01*
X116200000Y-120000000D02*
G75*
G02X114200000Y-120000000I-1000000J0D01*
G01*
X122400000Y-112700000D02*
G75*
G02X120400000Y-112700000I-1000000J0D01*
G01*
X116200000Y-112700000D02*
G75*
G02X114200000Y-112700000I-1000000J0D01*
G01*
X122400000Y-105400000D02*
G75*
G02X120400000Y-105400000I-1000000J0D01*
G01*
X116200000Y-105400000D02*
G75*
G02X114200000Y-105400000I-1000000J0D01*
G01*
X122400000Y-117900000D02*
G75*
G02X122400000Y-119900000I0J-1000000D01*
G01*
X116200000Y-117900000D02*
G75*
G02X116200000Y-119900000I0J-1000000D01*
G01*
X110000000Y-117900000D02*
G75*
G02X110000000Y-119900000I0J-1000000D01*
G01*
X122400000Y-110600000D02*
G75*
G02X122400000Y-112600000I0J-1000000D01*
G01*
X116200000Y-110600000D02*
G75*
G02X116200000Y-112600000I0J-1000000D01*
G01*
X110000000Y-110600000D02*
G75*
G02X110000000Y-112600000I0J-1000000D01*
G01*
X126600000Y-119900000D02*
X126600000Y-125200000D01*
X110000000Y-119900000D02*
X110000000Y-125200000D01*
X126600000Y-112600000D02*
X126600000Y-117900000D01*
X110000000Y-112600000D02*
X110000000Y-117900000D01*
X126600000Y-105300000D02*
X126600000Y-110600000D01*
X110000000Y-105300000D02*
X110000000Y-110600000D01*
X122400000Y-120000000D02*
X122400000Y-119900000D01*
X116200000Y-120000000D02*
X116200000Y-119900000D01*
X122400000Y-112700000D02*
X122400000Y-112600000D01*
X116200000Y-112700000D02*
X116200000Y-112600000D01*
X122400000Y-105400000D02*
X122400000Y-105300000D01*
X116200000Y-105400000D02*
X116200000Y-105300000D01*
X126600000Y-119900000D02*
G75*
G02X126600000Y-117900000I0J1000000D01*
G01*
X120400000Y-119900000D02*
G75*
G02X120400000Y-117900000I0J1000000D01*
G01*
X114200000Y-119900000D02*
G75*
G02X114200000Y-117900000I0J1000000D01*
G01*
X126600000Y-112600000D02*
G75*
G02X126600000Y-110600000I0J1000000D01*
G01*
X120400000Y-112600000D02*
G75*
G02X120400000Y-110600000I0J1000000D01*
G01*
X114200000Y-112600000D02*
G75*
G02X114200000Y-110600000I0J1000000D01*
G01*
X126600000Y-125200000D02*
X122400000Y-125200000D01*
X120400000Y-125200000D02*
X116200000Y-125200000D01*
X114200000Y-125200000D02*
X110000000Y-125200000D01*
X126600000Y-105300000D02*
X122400000Y-105300000D01*
X120400000Y-105300000D02*
X116200000Y-105300000D01*
X120400000Y-125100000D02*
G75*
G02X122400000Y-125100000I1000000J0D01*
G01*
X114200000Y-125100000D02*
G75*
G02X116200000Y-125100000I1000000J0D01*
G01*
X120400000Y-117800000D02*
G75*
G02X122400000Y-117800000I1000000J0D01*
G01*
X114200000Y-117800000D02*
G75*
G02X116200000Y-117800000I1000000J0D01*
G01*
X120400000Y-110500000D02*
G75*
G02X122400000Y-110500000I1000000J0D01*
G01*
X114200000Y-110500000D02*
G75*
G02X116200000Y-110500000I1000000J0D01*
G01*
X122400000Y-125100000D02*
X122400000Y-125200000D01*
X116200000Y-125100000D02*
X116200000Y-125200000D01*
X122400000Y-117800000D02*
X122400000Y-117900000D01*
X116200000Y-117800000D02*
X116200000Y-117900000D01*
X122400000Y-110500000D02*
X122400000Y-110600000D01*
X116200000Y-110500000D02*
X116200000Y-110600000D01*
X120400000Y-120000000D02*
X120400000Y-119900000D01*
X114200000Y-120000000D02*
X114200000Y-119900000D01*
X120400000Y-112700000D02*
X120400000Y-112600000D01*
X114200000Y-112700000D02*
X114200000Y-112600000D01*
X120400000Y-105400000D02*
X120400000Y-105300000D01*
X114200000Y-105400000D02*
X114200000Y-105300000D01*
X120400000Y-125100000D02*
X120400000Y-125200000D01*
X114200000Y-125100000D02*
X114200000Y-125200000D01*
X120400000Y-117800000D02*
X120400000Y-117900000D01*
X114200000Y-117800000D02*
X114200000Y-117900000D01*
X120400000Y-110500000D02*
X120400000Y-110600000D01*
X114200000Y-110500000D02*
X114200000Y-110600000D01*
X114200000Y-105300000D02*
X110000000Y-105300000D01*
M02*
